<?xml version="1.0" encoding="utf-8"?>
<!-- Generator: Adobe Illustrator 22.0.1, SVG Export Plug-In . SVG Version: 6.00 Build 0)  -->
<svg version="1.1" id="layer" xmlns="http://www.w3.org/2000/svg" xmlns:xlink="http://www.w3.org/1999/xlink" x="0px" y="0px"
	 viewBox="37 180 503 103" style="enable-background:new 37 180 503 103;" xml:space="preserve">
<g fill="#e8a87c">
	<path d="M276.9,231.5c0.7,4.6,0.9,9.3,1.4,13.9c4.1-18.3-3-35.8-4-54.2c0.8,0.7,1.1,0.9,1.4,1.2c0.4,0.3,0.7,0.9,1.6-0.1
		c-1.8-3.6-3.7-7.3-6-11.8c-0.9,2.4-1.9,3.9-1.5,5.8C273,201.3,274.6,216.5,276.9,231.5z"/>
	<path d="M222.8,209.7c1.7,11.9,4.3,23.7,4.9,35.7c3.8-18.2-3.5-35.7-4.3-53.5c1.2-0.4,1.4,1.5,3,0.4c-1.8-3.6-3.7-7.2-5.9-11.4
		c-1.4,2.4-2,4.1-1.5,6.2C221,194.5,221.7,202.1,222.8,209.7z"/>
	<path d="M136.1,245.5c4-18.2-3.3-35.6-3.9-53.4c1-0.4,1.1,1.5,2.7,0.5c-1.9-3.8-3.9-7.6-5.9-11.5c-2.9,3.1-1.1,6.2-0.7,9.2
		C130.8,208.6,135.3,226.8,136.1,245.5z"/>
	<path d="M86.1,254c1.7,2.8,4.7,2.7,7.3,2c5.1-1.5,7.7-5.6,10.1-11.1c-7.5,8.3-10.8,9.4-16,5.6c-0.6-3.6,2.3-5.1,4.6-6.8
		c2.4-1.8,5.6-2.6,7-5.7c-7.5-2.7-10.8-1.9-12.2,3.2c1.8-0.6,3.6-1.8,4.7-0.6c-1.7,2-3.2,3.9-4.7,5.8
		C85.1,248.8,84.5,251.4,86.1,254z"/>
	<path d="M489.6,262.1c-1,0.1-0.8-1.7-1.9-1.9c-1.4,0.9-1.6,3.1-3.6,3.2c-1.5-0.1-2.3-1.4-3.8-2.2c-0.7-0.4-1.6-0.4-2.4-0.1
		c-10.2,4.1-20,11.4-32.2,11.8c11.8,1.3,21.8-4.9,31.8-8.3c2.3,0.4,3.5,2,5.3,2c1.7-0.1,2.7-1.5,4-2.3c1.1,0.2,1.7,1.7,3.2,1.3
		c3.1-1.1,2.8-3.8,3.1-6.4C491.2,259.7,491.7,262.1,489.6,262.1z"/>
	<path d="M200.4,186.7c0.9,1.6-0.9,3,0.2,4.3c0.7-2.4,2.5-4.4,2.1-7.7c-12.3,4-23.5,9.3-33,18c-0.9,0.8-1.3,1.9-0.5,3.3
		C178.6,196.5,188.7,190.2,200.4,186.7z"/>
	<path d="M301,215.6c-2-1.6-3.8-3.7-6.7-3.9c-1.7,1.3-2.6,3-3.2,4.9c1.2,0.7,2.5-1.1,3.9,0.5c-4.5,1.1-6.7,3.7-5.7,8.5
		c0.9,3.9,1.7,7.9,2.6,12.2c1.2-5.4-1.3-9.9-1.2-14.6c2.3-2.4,5.4-2.4,8.2-3.7C299.7,218.4,300.8,217.4,301,215.6z"/>
	<path d="M220.5,255c-1,1.5-2,2.9-2.7,4c-0.7,2.2,1.2,2.7,0.6,4.1c-5.1,5.5-12.1,7.4-18.8,10.1c8.6,0.2,15.9-2.2,20.4-9.8
		c1.7-0.1,3,1.3,4.4,0.2C226.1,259.8,224.8,257.1,220.5,255z M219.1,259.3c0.7-0.9,1.2-1.1,2.3-0.7
		C221.2,260.1,220.7,260.7,219.1,259.3z M222.2,259.8c1-0.1,1.3,0.5,1.6,1.6C222.5,261.3,221.7,261.1,222.2,259.8z"/>
	<path d="M58.7,261.6c1.2,0.6,2.4-1.8,3.6,0.6c-3.4,1.2-6.6,2.5-5.8,7c0.8,4.3,1.7,8.6,2.6,13.5c1.3-5.4-0.9-9.9-1.2-14.2
		c2.5-4.2,9.5-1.6,10.3-8c-1.9-1.5-3.8-3.4-7-3.5C60.3,258.5,58.8,259.6,58.7,261.6z"/>
	<path d="M507,209.4c1,1.8,1.9,3.4,3,5.3c1.6-3.7,0.5-7.8,3.2-10.3c1.3-0.8,2,0.8,3-0.1c1.3-2.1,1.4-4.2-0.7-6.5
		c-4.8,2.4-4,7.4-5.7,11.7c-1.9-2.5-2.3-6.1-6.1-6.3c-2.4,1.9-2.4,4-1.1,6.2C504.2,210.9,505.6,209.6,507,209.4z"/>
	<path d="M244.2,272.1c-1.9-2.5-2.3-6.1-6.1-6.3c-2.4,1.9-2.4,4-1.1,6.2c1.7,1.5,3.1,0.2,4.5,0c1,1.8,1.9,3.4,3,5.3
		c1.6-3.7,0.5-7.8,3.2-10.3c1.3-0.8,2,0.8,3-0.1c1.3-2.1,1.4-4.2-0.7-6.5C245.1,262.8,245.9,267.8,244.2,272.1z"/>
	<path d="M66.3,240.3c0.1-1.8,1.8-2.9,1.6-4.9c-1.8-0.8-3.7-1.6-5.8-2.6c-0.8,1.9-1.6,3.5-2.4,5.4c1.9,1.1,3.4,2.1,5,3
		c-0.6,1.6-1.1,3.1-1.7,4.6c1.8,1.3,3.6,2.1,5.8,2.7c0.9-1.8,2.1-3.3,2.4-5.3C69.7,241.9,67.5,241.9,66.3,240.3z"/>
	<path d="M143.7,198.6c1,1.9,1.9,3.6,3.1,5.8c1.2-3.9,0.9-7.4,3-10.3c0.9-1.1,2.3,0.3,3.3-0.9c0.6-1.9,0.9-3.9-1.1-6
		c-4.5,2.6-3.7,7.7-5.5,11.6c-2.1-2.5-2.3-6.8-6.8-5.7c-1.3,1.9-1.6,3.7-0.5,5.5C140.7,200.3,142.2,199.6,143.7,198.6z"/>
	<path d="M290.6,204.3c1,1.6,1.9,3.1,2.9,4.8c1.1-3.6,0.7-7.2,3.1-9.9c0.9-0.9,2.1,0.6,3.1-0.5c0.7-1.8,0.9-3.7-0.9-6.1
		c-4.6,2.6-3.8,7.7-5.7,11.4c-1.9-2.5-2.3-6.2-6.3-5.8c-2.1,2-1.9,4.1-0.8,5.9C287.8,205.6,289.2,204.1,290.6,204.3z"/>
	<path d="M241.8,205.3c-1.1,1-1.9,2-2.3,3.2c2.6,1.5-0.1,4.9,3.5,6.7c1.2,0.6,2.3-1.2,3.5-2.4c3.8,2,5.7,0.9,5.7-3.2
		c-0.1-2.4-0.3-4.9-1.6-7.1c-2.7,2.2,1.2,5.3-1,7.7c-3.5-1-1.4-4.9-3.4-6.7c-3,1.9,1.6,6.1-2.3,7.7
		C241.2,209.9,243.2,207,241.8,205.3z"/>
	<path d="M101.2,200.5c2.1,0.8,2.9-1.1,4.2-2c1.3,0.4,2.6,1.3,4.5,0.1c2-3.4,0.6-7-0.3-10.8c-1.7,1.2-1.3,2.4-1,3.8
		c0.3,1.3,1,2.7-0.5,4.2c-2.9-1.3-1.1-5.1-3.4-6.8c-1.8,2.5,1.4,5.9-1.7,8c-2.9-1.5-1.3-4.4-2.4-6.3c-1.3,1-2.1,2-2.6,3.3
		C101.1,195.2,98.2,199.3,101.2,200.5z"/>
	<path d="M187,198.5c-1.1,1.1-2,2-2.2,3.3c2.7,1.4-0.5,6,3.5,6.6c1.6,0.1,2.2-1.3,3.3-2.1c1.3,0.3,2.5,1.6,4.6,0.3
		c2-3.3,0.7-6.9-0.3-11c-2.9,2.5,0.6,5.4-1.3,7.9c-3.4-1-1.2-5-3.4-6.6c-2.4,2.2,1.9,6.2-2.2,7.7C186.4,203.2,188.2,200.5,187,198.5
		z"/>
	<path d="M143.8,223.4c6.4-2.6,9.5-6.7,9.5-12.1c-8.4,0.8-8.9,1.2-9.6,6.4c1.6,0.3,3.1-1.3,4.8-0.1
		C148,220.1,145.7,221.2,143.8,223.4z"/>
	<path d="M299.7,256c-2.6,3.9-4.4,7.9-7.9,10.5c-3.3,2.5-6.7,4.9-10.4,7.5c8-1.1,12.6-6,15.9-12.1c1.6,0.1,2.7,1.3,4.3,0.6
		C303.4,260.1,302.2,258.2,299.7,256z M301,259.5c0.7,1.6-0.7,1-1.4,0.9c-0.3,0-0.5-0.5-0.8-0.7C299.5,258.7,300.7,258.8,301,259.5z
		"/>
	<path d="M41.9,220.7c0,2.4-3.3,2.9-2.9,5.5l0,0c3.8-3,7.7-6,8-11.6c-8.2,0.4-9.4,1.2-9.7,6.4C38.8,221,40.3,219.7,41.9,220.7z"/>
	<path d="M512.6,225.7c-1.2-0.9-1.5-2.2-2.3-4.2c-1.9,3.6-3.3,6.5-3.2,9.9c0,1.9,0.6,3.3,2.6,3.7c2.1,0.4,3.5-0.7,4.1-2.6
		C514.6,230,514.8,227.5,512.6,225.7z M508.3,231c-0.4-1.5,0.1-2.2,0.9-2.8c1.5,0.1,2.4,1.1,3.8,2.2
		C511.5,232.1,510,231.8,508.3,231z"/>
	<path d="M57.9,206.9C57.9,206.9,57.9,206.9,57.9,206.9c0.5-0.1,0.8-0.4,1.1-0.7c2.8-3.7-0.1-5.6-2-8.1c-0.8-1.1-0.7-2.9-1.1-4.1
		c-1.8,3.1-2.8,6.1-2.7,9.4C53.2,205.8,55.5,207.5,57.9,206.9z M55.1,201.7c0.2-0.2,0.4-0.3,0.7-0.3c1.2,0,2.1,0.7,2.9,1.7
		c-0.8,1.6-1.8,1.8-2.9,1.6c-0.6-0.1-1-0.6-1.1-1.3C54.6,202.6,54.8,202.1,55.1,201.7z"/>
	<path d="M153.6,232.8c-2.1-1-3.8-1.8-5.7-2.7c-1.3,1.9-2.2,3.5-2.6,5.6c1.8,0.9,3.5,1.7,5.6,2.7
		C151.8,236.4,152.6,234.7,153.6,232.8z"/>
	<polygon points="522.8,266.7 528.4,269.7 530.7,264.3 524.8,261.2 	"/>
	<path d="M255.9,199.6c3.6,3.3,3.8,7.8,3.9,12.6c2.3-6.1,0.9-11.5-3-16.6C255.5,196.8,255.8,198,255.9,199.6z"/>
	<path d="M124.3,256.9c0,3.2,4.4,4.4,5.8,1.5c0.3-0.6,0.3-1.1,0.1-1.5c-1,0.2-2.2,0.8-3.2-0.5c-0.9-2.3,0.5-4.6,1-8.1
		C125.9,251.5,124.2,254.1,124.3,256.9z"/>
	<path d="M155.5,271.1c-0.9-2.3,0.5-4.6,1-8.1c-2.1,3.2-3.7,5.8-3.7,8.6c0,3.2,4.4,4.4,5.8,1.5c0.3-0.6,0.3-1.1,0.1-1.5
		C157.7,271.8,156.5,272.3,155.5,271.1z"/>
	<path d="M165.1,201.2c1.9-7.2-0.4-16.6-3.6-16.2c-0.5,1.1-0.4,2.2-0.3,3.5C164.5,191.8,164.9,196.2,165.1,201.2z"/>
	<path d="M38.1,226.1c0.3,0,0.6,0.1,0.9,0.1c0,0,0,0,0,0C38.6,226.1,38.3,226.1,38.1,226.1z"/>
	<polygon points="77.2,232.2 77.1,231.9 77,232.2 	"/>
	<path d="M200.4,190.9l0.2,0.1l0-0.1c0,0,0,0,0,0c0,0,0,0,0,0C200.6,190.9,200.4,190.9,200.4,190.9z"/>
	<path d="M156.8,262.8C156.8,262.8,156.8,262.8,156.8,262.8c0.2,0.1,0.4,0.1,0.5,0.2C157.2,262.9,157,262.9,156.8,262.8z"/>
	<path d="M535.8,240.7c-2.5-6.1-9.8-17.2-9.8-17.2l3.1-0.8c0,0-4.1-4.9-6.9-6.9c-1.3,2.7-1,5,0.1,7.6c3,7,7.1,13.3,10.1,20.3
		c0.8,2,1.9,4,1.3,6.1c-0.2,0.6-0.6,1.1-1.1,1.3c-1.2,0.7-2.5,0.6-3.7,0c-3-1.6-3.9-4.5-4.2-7.8c-3.7,2.1-3.6,8.8-9.2,7.2
		c-2-1.8-1.5-4-2.4-5.9c-3,2.5-5.2,5.6-8.7,7c-4.1,1.6-7-0.1-7.5-4.4c-0.1-0.9,0.4-1.8-0.4-2.7c-17.5,4.5-35.2,8-53.1,10.3
		c-34.1,4.4-68,4.5-101.8-1.9c-12.6-2.4-25.2-5.2-35.6-13.7c-1.1,0.8-0.8,2.5-2.3,3.2c-4.1-3.1-7.7-1.3-11.1,1.6
		c-2.6,2.2-4.8,4.7-7,7.3c-3,3.6-5.9,7.3-9.7,10.2c-2.3,1.7-4.9,3-7.6,1.3c-2.9-1.8-1.9-4.7-1.5-7.3c0.1-0.8,0.6-2,1.1-2.6
		c1.7-2,2-4.5,2.1-7c0.2-4.4-1.7-8.4-3.1-12.4c-0.5-1.3-1.6-2.6-0.9-4.2c0.1,0,0.1,0,0.1-0.2c0,0,0,0,0,0c0.2,0.4,0.5,0.7,1.4,0.6
		c-1.1-3.1-2.8-5.6-5.2-8.2c-0.5,1.7-0.9,3-1.1,3.6c1.3,7.8,4.2,14.4,7.1,20.9c-4.3,4.1-8.5,3.3-11.1-2c-0.5-1.1-0.9-2.2-1.2-3.4
		c-1.4-5.9-0.8-12.1-3.9-17.9c-1.6,2.1-2.2,4.2-1.6,6.7c0.8,3.2,1.2,6.4,1.8,9.6c0.7,4.2-1.1,8-4.5,10c-4.8,2.7-9.1,0.6-9.5-4.9
		c-0.2-2.7,0.1-5.4,0.5-8.2c0.4-2.8,1.1-5.7,0.3-9c-8.2,5.9-6.3,16.1-11.1,22.9c-5-0.7-5.8-3.2-5.6-16.2c-2.8,11-0.7,20,5.2,22.1
		c4.3-2.1,3.9-6.6,4.8-10.3c1-3.9,1-8.1,4.3-12.3c-0.2,2.6-0.4,4.1-0.5,5.7c-0.4,3.5-1,6.9-0.3,10.5c1.2,6.2,5.9,8.7,11.6,6.3
		c3.9-1.7,5-5.2,5.9-9c4.3,7.4,5.3,8,12.2,7.7c0.1,2.6-0.9,5.1-0.4,7.7c1.4,7.4,6.5,9.4,12.4,4.9c3.9-2.9,6.9-6.7,10-10.3
		c2.5-2.9,4.9-5.7,8-8c2.5-1.8,5.1-2.4,8,0c0.3,4.9,0.6,10.1,6.4,12.7c0.3-3.2,0.5-6.1,0.7-8.6c61.6,19.3,122.5,15,183.4-2.6
		c0.3,3.3,0.8,6.7,4.5,7.5c4.9,1.1,8.5-1.3,11-5.7c1.5,2.5,2.7,5.2,6.1,4.9c3.4-0.2,4.3-3.1,5.6-5.6c3.7,5.4,6.8,6.9,9.8,4.8l0,0
		c0,0,0,0,0,0c0,0,0,0,0,0C540.9,249.8,535.8,240.7,535.8,240.7z M266,229.3C266,229.3,266,229.3,266,229.3
		C266,229.3,266,229.2,266,229.3C266,229.2,266,229.3,266,229.3z M308.4,253.9c-1.7-1.2-2.1-2.7-2-4.7
		C308.6,250.2,309.6,251.5,308.4,253.9z"/>
	<path d="M40.8,255.9c-2.8-6.7-0.8-11.3,6.3-14.1c0.9,7.2,6.7,8.7,12.6,11c0.2-7.8-1.2-14.2-7.7-18.8c2.8-5.5,5.1-11.2,10.1-14.9
		c2.5,0.7,3.7,2.4,5.1,3.9c7.4,8,10.5,8.7,20.7,4.8c7.5-2.9,14.3-7.5,22.1-9.2c1.2-2.4,2.9-4.2,3.4-6.7c-4.5-0.5-8.7-1-12.9-2.2
		c-4.2-1.2-8.5-2.6-12.7-3.7c-10.3-2.6-16,1.6-16.3,12.2c-2.1-1.6-3.4-4.1-5.8-5c-2.6,0.2-4.2,1.7-5.7,3.4C56,221,52.5,225.7,50,231
		c-1.2,2.5-2.8,4.5-5,6.3c-6.9,5.8-9.1,12.9-6.1,21.6c2.2,6.3,5.1,12.2,7.7,18.3c2.1,4.8,4.9,9.5,5,15c0.5,0,1,0,1.6,0
		c-1-5.2-1.6-10.5-3.7-15.5C46.6,269.8,43.7,262.8,40.8,255.9z M78.2,212.1c3.4-0.9,6.7-0.2,10,0.7c3.9,1,7.7,2.2,12.8,3.6
		c-7.4,3.2-13.5,6.8-20.7,7.6c-3.7,0.4-5.9-1.4-6.5-5.1C73.2,215.5,74.8,213,78.2,212.1z M52,238.7c4.4,2.7,3.5,7.8,3.5,7.8
		c-4.6-1.3-5.6-5.1-5.6-5.2C49.6,239.5,50.4,238.7,52,238.7z"/>
	<path d="M204.6,247.7c0-0.4,0.2-0.7,0.3-1.1c9-0.9,12.3-4.4,12.2-13.8c-0.1-4.8-1-9.5-1.7-14.3c-1.3-8.8-2.6-17.6-3.9-26.4
		c1.4-0.5,1.5,1.3,3.2,0.4c-2-3.8-4-7.7-6.1-11.9c-1,2.1-2,3.6-1.6,5.5c2.1,9.1,3.1,18.4,4.5,27.7c1.3,8.1,2.9,16.1,3,24.1
		c-1.5,2.1-3.4,2.7-5.6,2.7c-5.4-0.2-6.9-5.3-10.1-8.5c-0.7,2.1-1.3,3.9-1.9,5.7c1.9,4.7,5.1,8.7,5.8,14.2c-1.4,1.3-2.9,2.7-4.4,4.1
		c-5.1,4.7-10.3,9.2-17.1,11.3c-8.3,2.5-12.2-1.4-12.2-10c0-2.4,0.4-11.9,0.7-16l1.2-1l1.8-1.5l0.6-0.5c0.4-0.2,0.9-0.4,1.5-0.3
		c-0.6,7.8,1.7,10.1,8.9,9.1c-0.7-4.3-1.9-8.5-3.4-12.9c6.1-2.5,11.8-5.2,17.9-7.1c4.8-1.5,7.1-4.8,8.9-9c-11.6-3.5-23.1-5.8-35-5.8
		c-3.8,0-7.4,0.2-9.2,4.3c-1.7,3.9-0.5,8.2,3.2,11.6c1.9,1.7,3.8,3.3,5.8,4.9c-2.9,2.1-5.8,4-8.4,6.1c-8.4,6.6-15.6,14.5-23.6,21.6
		c-3.1,2.8-6.3,5.4-10.3,6.9c-6.9,2.5-12.5-1.9-12.4-9.2c0-2.7,1-8.2,2.3-12.2c0.2-0.1,0.5-0.2,0.8-0.4c6.4-4.2,5.9-11,5.1-17.4
		c-1.5-12.1-3.5-24.2-5.2-36.3c0-0.2,0.2-0.4,0.2-0.6c1.1-0.3,1.4,1.6,3.2,0.7c-2.1-3.8-4.2-7.7-6.4-11.8c-1,1.9-1.9,3.4-1.6,5.4
		c2,11.3,3.9,22.5,5.7,33.8c1,6.1,2.4,12.2,1.6,18.7c-8.3,5.7-11.2-1.7-15.1-6.7c-1,2.3-2,4-2.2,5.9c1.8,4.6,4.8,8.7,5.7,13.8
		c-5,4.8-10,9.6-15.9,13.2c-3.4,2.1-7,3.5-11,3.2c-4-0.2-6.4-2.4-7.6-6.2c-1.1-3.5-0.4-6.9,0.4-10.4c1.2-5.3,1.7-10.6,0.7-16
		c-0.3,3.4-0.4,6.7-1.1,10c-0.7,3.3-1.4,6.6-2.1,9.9c-0.6,2.8-0.7,5.7-0.2,8.5c1.5,8.2,7.1,11.8,15.1,9.4c5.7-1.7,10.3-5.4,15-8.9
		c5.6-4.2,9.8-8.9,8.5-16.6c-0.1-0.5,0.2-1,0.4-1.7c1.7,0.1,3.3,0.2,4.9,0.3c0,0,0.3,0,0.7,0c-3,6-4.9,15.7-3,21.3
		c2.4,7.3,8.1,9.5,15.2,6.4c4-1.8,7.5-4.2,10.6-7.1c7-6.5,13.8-13.1,20.7-19.6l1.8-1.5l4.4-3.6l0.2-0.2c-2.3,6.6-4.1,19.4-2.3,24.8
		c2.2,6.4,6.5,8.6,13.2,7.3c8.8-1.6,14.8-7.6,21-13.5C204.7,257,204.3,252.3,204.6,247.7z M164.5,220.6c0.1-0.4,0.3-0.7,0.4-1.1
		c10.1-1.9,19.9-0.5,30.4,3.3c-6.7,2.7-12.6,5.1-18.8,7.6C172.6,227.3,168.5,224,164.5,220.6z"/>
	<path d="M173.2,259.2c8.8-0.7,12.8-6.1,16.3-12c1.2,0.4,2.3,0.8,3.5,1.2c2.5-2.7,1.1-4.5-1.5-7.2
		C188,249.7,181.2,254.4,173.2,259.2z M193.1,245.8c-1,0.2-1.5,0.1-1.6-0.7C192.3,244.6,192.6,245.2,193.1,245.8z"/>
	<path d="M230.4,200.6c9.2-7.6,19.5-13.1,30.8-17.1c0.7-0.2,1.1-0.4,1.4-0.3c0.9,0.1,1.2,2.2,1.3,3.3c0.1-0.1,0.2-0.1,0.3-0.2
		l0.8-2.7v0l1.1-4c-13.8,4.1-26,10.1-36.8,18.8c-1.3,1-2.1,2.3-1.3,4.2C228.8,201.9,229.6,201.3,230.4,200.6z"/>
</g>
</svg>
