<?xml version="1.0" standalone="no"?>
<!DOCTYPE svg PUBLIC "-//W3C//DTD SVG 1.1//EN" "http://www.w3.org/Graphics/SVG/1.1/DTD/svg11.dtd" >
<svg xmlns="http://www.w3.org/2000/svg" xmlns:xlink="http://www.w3.org/1999/xlink" version="1.1">
<metadata>
Created by FontForge 20201107 at Mon May 10 04:00:27 2021
 By www-data
Copyright (c) by Omar Type Foundry. All rights reserved. Latin subset portion based on Linux Libertine, copyright (c) 2003-2018, Philipp H. Poll. The Latin subset, only, is licensed under the SIL Open Font License, Version 1.1. [http://scripts.sil.org/OFL]
</metadata>
<defs>
<font id="OmarNaskh-ExtraLight" horiz-adv-x="0" >
  <font-face 
    font-family="Omar Naskh ExtraLight"
    font-weight="250"
    font-stretch="normal"
    units-per-em="2048"
    panose-1="0 2 4 0 0 0 7 0 0 0"
    ascent="1638"
    descent="-410"
    bbox="-2253 -1036 23311 2254"
    underline-thickness="100"
    underline-position="-800"
    unicode-range="U+0020-FEFC"
  />
<missing-glyph horiz-adv-x="676" 
d="M66 0v1085h544v-1085h-544zM134 68h408v949h-408v-949z" />
    <glyph glyph-name="shaddadammatan" unicode="&#xfc5e;" arabic-form="isolated" 
d="M152 817q-15 0 -18.5 5.5t-5 12t-7.5 12t-26 5.5t-46.5 -12t-55 -32.5t-56 -47t-49.5 -55t-35.5 -57t-13.5 -52.5q0 -20 9.5 -35.5t32.5 -26.5q13 -6 13 -25q0 -11 -4 -23.5t-9.5 -23t-12 -17.5t-11.5 -7q-37 0 -59.5 32t-22.5 80q0 44 20.5 91.5t53 92.5t72.5 85.5
t79.5 71t74 48.5t55.5 18q17 0 28.5 -6t19 -15.5t10.5 -21t3 -22.5q0 -14 -3.5 -27t-9.5 -24t-13 -17.5t-13 -6.5zM137 538q17 -10 24.5 -18.5t7.5 -17.5t-4.5 -20t-10.5 -21.5t-12.5 -17.5t-11.5 -7q-6 0 -10.5 8t-23.5 16q-35 -47 -80 -83.5t-88 -61t-78.5 -37
t-51.5 -12.5q-12 0 -12 8q0 17 45 47q69 48 118 86.5t87 80.5q-11 5 -27 13.5t-31 21t-26 30t-11 40.5q0 26 15.5 55.5t39.5 55t53.5 42t57.5 16.5q34 0 47 -28.5t13 -67.5q0 -37 -9 -73.5t-21 -54.5zM81 559q8 8 13 26t5 39q0 28 -11 45t-29 17q-9 0 -20 -6t-21.5 -14.5
t-17.5 -19t-7 -19.5t7.5 -19t20 -19t28.5 -17t32 -13zM28 194q0 -10 8 -15.5t18.5 -8.5t20 -3.5t13.5 -0.5q17 0 28.5 13.5t14.5 44.5q2 28 10 50t23 22q12 0 17.5 -17.5t5.5 -46.5q0 -45 -10.5 -78t-27.5 -54.5t-37.5 -32.5t-39.5 -11q-23 0 -43.5 8t-29.5 8
q-5 0 -14.5 -11.5t-24.5 -25t-36 -24.5t-49 -11q-26 0 -42.5 10t-26 26.5t-13 38t-3.5 44.5q0 11 3.5 28t10 33t16.5 27.5t22 11.5q14 0 14 -16q0 -8 -1 -15t-1 -18q0 -18 8.5 -34.5t33.5 -16.5q31 0 49 20q8 10 16 28.5t13 38.5q6 23 13.5 40.5t25.5 17.5q9 0 13 -9t4 -20
t-1 -22.5t-1 -18.5z" />
    <glyph glyph-name="shaddakasratan" unicode="&#xfc5f;" arabic-form="isolated" 
d="M188 227q0 -3 -3.5 -16t-8.5 -28t-12 -28t-14 -16q-30 -13 -75.5 -33.5t-94 -42.5t-92.5 -43t-70 -36q-9 -5 -16 -5t-7 10q0 7 2.5 18t7 23.5t11.5 23.5t16 18q27 20 70 42.5t90.5 45t93 42t78.5 33.5q2 1 6.5 2t7.5 1q10 0 10 -11zM38 600q0 -10 8 -15.5t18.5 -8.5
t20 -3.5t13.5 -0.5q17 0 28.5 13.5t14.5 44.5q2 28 10 50t23 22q12 0 17.5 -17.5t5.5 -46.5q0 -45 -10.5 -78t-27.5 -54.5t-37.5 -32.5t-39.5 -11q-23 0 -43.5 8t-29.5 8q-5 0 -14.5 -11.5t-24.5 -25t-36 -24.5t-49 -11q-26 0 -42.5 10t-26 26.5t-13 38t-3.5 44.5
q0 11 3.5 28t10 33t16.5 27.5t22 11.5q14 0 14 -16q0 -8 -1 -15t-1 -18q0 -18 8.5 -34.5t33.5 -16.5q31 0 49 20q8 10 16 28.5t13 38.5q6 23 13.5 40.5t25.5 17.5q9 0 13 -9t4 -20t-1 -22.5t-1 -18.5zM188 408q0 -3 -3.5 -16t-8.5 -28t-12 -28t-14 -16q-30 -13 -75.5 -33.5
t-94 -42.5t-92.5 -43t-70 -36q-9 -5 -16 -5t-7 10q0 7 2.5 18t7 23.5t11.5 23.5t16 18q27 20 70 42.5t90.5 45t93 42t78.5 33.5q2 1 6.5 2t7.5 1q10 0 10 -11z" />
    <glyph glyph-name="shaddafatha" unicode="&#xfc60;" arabic-form="isolated" 
d="M187 514q0 -3 -3.5 -16t-8.5 -28t-12 -28t-14 -16q-30 -13 -75.5 -33.5t-94 -42.5t-92.5 -43t-70 -36q-9 -5 -16 -5t-7 10q0 7 2.5 18t7 23.5t11.5 23.5t16 18q27 20 70 42.5t90.5 45t93 42t78.5 33.5q2 1 6.5 2t7.5 1q10 0 10 -11zM28 194q0 -10 8 -15.5t18.5 -8.5
t20 -3.5t13.5 -0.5q17 0 28.5 13.5t14.5 44.5q2 28 10 50t23 22q12 0 17.5 -17.5t5.5 -46.5q0 -45 -10.5 -78t-27.5 -54.5t-37.5 -32.5t-39.5 -11q-23 0 -43.5 8t-29.5 8q-5 0 -14.5 -11.5t-24.5 -25t-36 -24.5t-49 -11q-26 0 -42.5 10t-26 26.5t-13 38t-3.5 44.5
q0 11 3.5 28t10 33t16.5 27.5t22 11.5q14 0 14 -16q0 -8 -1 -15t-1 -18q0 -18 8.5 -34.5t33.5 -16.5q31 0 49 20q8 10 16 28.5t13 38.5q6 23 13.5 40.5t25.5 17.5q9 0 13 -9t4 -20t-1 -22.5t-1 -18.5z" />
    <glyph glyph-name="shaddadamma" unicode="&#xfc61;" arabic-form="isolated" 
d="M148 539q18 -9 24.5 -17.5t6.5 -18.5q0 -9 -4 -20t-10 -21.5t-12.5 -17.5t-10.5 -7q-6 0 -11.5 8t-23.5 17q-35 -48 -79.5 -84t-87.5 -60.5t-79 -37t-52 -12.5q-10 0 -10 8q0 16 43 45q69 49 118.5 87.5t87.5 80.5q-11 5 -27 13.5t-31 21t-25.5 29.5t-10.5 40
q0 25 15 54.5t39 54.5t53.5 42t57.5 17q33 0 46 -27.5t13 -65.5t-9 -74t-21 -55zM92 560q8 8 13 26t5 38q0 29 -11 45.5t-28 16.5q-9 0 -20 -5.5t-21 -14.5t-17 -19t-7 -19t7.5 -19t19.5 -19t27.5 -17t31.5 -13zM28 194q0 -10 8 -15.5t18.5 -8.5t20 -3.5t13.5 -0.5
q17 0 28.5 13.5t14.5 44.5q2 28 10 50t23 22q12 0 17.5 -17.5t5.5 -46.5q0 -45 -10.5 -78t-27.5 -54.5t-37.5 -32.5t-39.5 -11q-23 0 -43.5 8t-29.5 8q-5 0 -14.5 -11.5t-24.5 -25t-36 -24.5t-49 -11q-26 0 -42.5 10t-26 26.5t-13 38t-3.5 44.5q0 11 3.5 28t10 33t16.5 27.5
t22 11.5q14 0 14 -16q0 -8 -1 -15t-1 -18q0 -18 8.5 -34.5t33.5 -16.5q31 0 49 20q8 10 16 28.5t13 38.5q6 23 13.5 40.5t25.5 17.5q9 0 13 -9t4 -20t-1 -22.5t-1 -18.5z" />
    <glyph glyph-name="shaddakasra" unicode="&#xfc62;" arabic-form="isolated" 
d="M38 419q0 -10 8 -15.5t18.5 -8.5t20 -3.5t13.5 -0.5q17 0 28.5 13.5t14.5 44.5q2 28 10 50t23 22q12 0 17.5 -17.5t5.5 -46.5q0 -45 -10.5 -78t-27.5 -54.5t-37.5 -32.5t-39.5 -11q-23 0 -43.5 8t-29.5 8q-5 0 -14.5 -11.5t-24.5 -25t-36 -24.5t-49 -11q-26 0 -42.5 10
t-26 26.5t-13 38t-3.5 44.5q0 11 3.5 28t10 33t16.5 27.5t22 11.5q14 0 14 -16q0 -8 -1 -15t-1 -18q0 -18 8.5 -34.5t33.5 -16.5q31 0 49 20q8 10 16 28.5t13 38.5q6 23 13.5 40.5t25.5 17.5q9 0 13 -9t4 -20t-1 -22.5t-1 -18.5zM188 227q0 -3 -3.5 -16t-8.5 -28t-12 -28
t-14 -16q-30 -13 -75.5 -33.5t-94 -42.5t-92.5 -43t-70 -36q-9 -5 -16 -5t-7 10q0 7 2.5 18t7 23.5t11.5 23.5t16 18q27 20 70 42.5t90.5 45t93 42t78.5 33.5q2 1 6.5 2t7.5 1q10 0 10 -11z" />
    <glyph glyph-name="shaddasuperscriptalef" unicode="&#xfc63;" arabic-form="isolated" 
d="M1 422q0 23 -4 51.5t-14 60.5t-27 65t-43 65q-1 2 -1.5 5t-0.5 4q4 23 10 51t10 52q0 3 3 3l2 -1l1 -1q14 -11 33.5 -36.5t37 -63t30 -85.5t12.5 -102q0 -14 -2.5 -38t-7.5 -47t-12 -40t-16 -17q-11 0 -11 34v40zM35 197q0 -9 7.5 -16t17.5 -11t20 -6t14 -2
q19 0 27.5 19.5t14.5 42.5t12.5 42.5t20.5 19.5t19.5 -18.5t5.5 -48.5q0 -23 -9 -54t-26 -58.5t-41 -46.5t-55 -19q-12 0 -22 4t-17.5 9.5t-13 9.5t-9.5 4q-5 0 -15 -11.5t-26 -26t-38 -26t-52 -11.5q-27 0 -44 10.5t-27 28t-14 40.5t-4 47q0 11 4 28.5t11 34.5t17.5 29.5
t22.5 12.5q16 0 16 -19q0 -7 -1.5 -15t-1.5 -17q0 -20 9 -37t35 -17q35 0 51 19q9 10 16 32t16 43.5t20.5 38t29.5 16.5q9 0 12 -5t3 -13q0 -11 -3 -22.5t-3 -30.5z" />
    <glyph glyph-name="Allah" unicode="&#xfdf2;" horiz-adv-x="1820" arabic-form="isolated" 
d="M436 423q-13 -19 -36 -35.5t-51 -31.5t-57 -27.5t-52.5 -23.5t-38.5 -21t-15 -18q0 -14 24 -27.5t72 -13.5q42 0 81.5 12t72.5 41v145zM839 1088q-20 -31 -38 -50t-33 -29t-28 -13.5t-22 -3.5q-30 0 -48 14t-28 34.5t-13 42.5t-3 38q0 12 3.5 42t10.5 61t17 55t23 24
q7 0 10.5 -8t3.5 -20q0 -20 -4.5 -39.5t-4.5 -32.5q0 -32 8.5 -50.5t36.5 -18.5t47 16t31.5 40t20 52.5t12 52.5l7.5 40t7 16t14.5 -9t10.5 -25q0 -8 -1.5 -20t-3 -23t-2.5 -20.5t-1 -13.5q0 -9 20 -21t48 -12q15 0 23.5 24t13 53.5t6 54t1.5 26.5q0 23 10 23q11 0 21 -31
t10 -77q0 -38 -9.5 -77t-26 -70.5t-40 -51.5t-50.5 -20q-14 0 -30 6.5t-30 20.5zM437 177q-18 -19 -45 -40t-58 -38.5t-62.5 -29t-59.5 -11.5q-24 0 -50.5 7.5t-48.5 21.5t-36.5 34.5t-14.5 47.5q0 7 7 29.5t25 53.5t49 65.5t79 65.5q46 30 83.5 48t66 32t47.5 29t29 40
q0 25 7 60t16 67.5t19 55.5t16 23q4 0 6 -8t3.5 -20.5t2 -28t0.5 -31.5q0 -69 -2.5 -129t-2.5 -123q0 -60 6 -113t24 -92.5t52 -63t91 -23.5q51 0 88.5 18.5t63.5 50t42.5 73t27.5 87.5q-14 125 -29.5 237.5t-26.5 190.5q0 11 6.5 35t14.5 49t16 43.5t11 18.5q5 0 11 -24
t13 -64t15 -91t17 -105.5t18.5 -108t20.5 -97.5q9 -35 27.5 -82t50 -89t77 -71.5t106.5 -29.5q12 0 22 2t17.5 8.5t12 18.5t4.5 32q0 16 -8.5 58.5t-22 99.5t-28.5 121t-28.5 123.5t-22 107.5t-8.5 72q0 4 6 28.5t14 51.5t16 49t11 22q6 0 15 -28.5t20.5 -76t24 -109
t25 -127t23.5 -130.5t19.5 -120.5t13.5 -95.5t5 -55q0 -42 -8 -83.5t-26 -74.5t-47.5 -53.5t-72.5 -20.5q-47 0 -94 26.5t-87.5 67.5t-71 90.5t-43.5 95.5q-5 -30 -16 -65t-28 -70.5t-39 -69t-49.5 -59t-60 -41t-70.5 -15.5q-49 0 -92 21.5t-75.5 57t-51 80t-18.5 91.5z
M646 1905q-1 1 -1.5 2t-0.5 6q0 11 4 29.5t8 37.5q3 14 4.5 28t3.5 24.5t4.5 17t7.5 6.5q1 0 15.5 -16t36 -45t45.5 -68t45 -85t34.5 -97.5t13.5 -103.5q0 -24 -1.5 -56t-5 -61t-10 -49.5t-15.5 -20.5q-10 0 -12 9.5t-2 26.5q0 58 -7.5 109t-27 100.5t-53 99.5t-86.5 106z
M1670 25q-5 83 -15.5 182.5t-23 201.5t-26 199t-24 174.5t-17.5 129.5t-7 64q0 30 8.5 69t20.5 74.5t25.5 60.5t23.5 25q6 0 9.5 -5t4.5 -24q1 -36 8.5 -102.5t17.5 -151.5t21.5 -181.5t21.5 -191.5t16.5 -181.5t6.5 -151.5q0 -39 -5.5 -81t-14.5 -77t-19.5 -57.5
t-20.5 -22.5q-4 0 -6.5 9.5t-4.5 37.5z" />
    <glyph glyph-name="Muhammad" unicode="&#xfdf4;" horiz-adv-x="1868" arabic-form="isolated" 
d="M1792 402q5 0 6.5 -3t1.5 -6q0 -9 -8.5 -32.5t-20 -48t-22.5 -43.5t-17 -19q-1 0 -40 -5.5t-101.5 -17.5t-140.5 -31t-157.5 -45.5t-152.5 -61.5t-125 -78q-6 -6 -6 -20q0 -26 14 -45.5t36.5 -35t50.5 -27.5t56 -21.5t53 -17.5t41 -16q5 -2 6.5 -7.5t1.5 -10.5
q0 -17 -5.5 -38.5t-12.5 -41t-14.5 -33t-11.5 -13.5q-61 0 -124.5 18t-124 52t-116 82.5t-100.5 109t-78 131.5t-48 150q-1 5 -5 5q-2 0 -4 -3.5t-2 -14.5q0 -59 -34.5 -102t-89 -70.5t-122 -41t-133.5 -13.5q-38 0 -72 5.5t-59.5 17.5t-40.5 31.5t-15 47.5q0 10 1.5 35
t6 50.5t12.5 45.5t22 21q5 0 10 -6t7 -15q6 -25 22 -40.5t37.5 -24.5t45 -12t43.5 -3q33 0 70.5 1.5t73.5 9t69 22t58 40t40 65t15 95.5q0 51 -7.5 103t-16.5 98.5t-16.5 84t-7.5 60.5q0 14 5.5 39.5t13.5 50.5t18 43.5t18 18.5q5 0 7 -6t4 -15q8 -58 19.5 -122.5
t24.5 -128.5t26.5 -124.5t26 -110t22.5 -84.5t17 -49q16 -35 37.5 -74t46.5 -76t54 -68.5t60 -50.5q4 52 34.5 97t73 80t90 59.5t85.5 36.5q-105 9 -185.5 15t-130.5 6q-30 0 -53 -2t-42 -2q-11 0 -11 10q0 6 6 23t15.5 38.5t22.5 45t27 41.5q25 33 64.5 66t85 63.5t93 58
t89 49.5t73.5 37t46 22q-2 0 -10.5 6t-17.5 14.5t-16 18.5t-7 19q0 21 16 53.5t38.5 63t45.5 52.5t38 22q17 0 40.5 -9t49 -24t50.5 -34t45 -38.5t32 -38t12 -32.5q0 -11 -12 -33.5t-30 -47.5t-40 -46t-42 -28q-11 -4 -41.5 -11t-74 -18.5t-97 -28.5t-108.5 -41
t-109.5 -55.5t-99.5 -71.5q54 0 111.5 -4t114.5 -9t112.5 -9t105.5 -4q72 0 134 4.5t110 10.5t78.5 10.5t39.5 4.5z" />
    <glyph glyph-name="SallallahoAlaiheWasallam" unicode="&#xfdfa;" horiz-adv-x="2376" arabic-form="isolated" 
d="M401 217q-2 13 -23.5 28t-50 27.5t-57 21t-43.5 8.5q-8 0 -13.5 -6t-5.5 -14q0 -9 4 -13q35 -35 72 -52t84 -17q11 0 22 2t11 15zM1645 -465q0 -6 -8 -22.5t-19 -34.5t-21.5 -32t-16.5 -14q-7 0 -22.5 9t-31.5 21t-28 24.5t-12 19.5v2.5t2 9.5q-4 -6 -12 -21t-17.5 -31
t-19 -28t-15.5 -12q-7 0 -22 9.5t-30.5 22t-27 26t-11.5 21.5q0 6 6.5 20t15.5 29t19 28.5t18 20.5q2 2 5.5 2h6.5q7 -2 21.5 -11.5t29 -21.5t25.5 -23.5t11 -18.5v-4q4 9 11.5 23t17 27.5t20 23t19.5 9.5t22 -9t25.5 -21t23.5 -24.5t15 -19.5zM408 -148q-22 -29 -44 -42.5
t-60 -13.5q-12 0 -36.5 2.5t-48.5 9.5t-42 18t-18 29q0 22 15.5 42.5t27.5 37.5q24 34 49.5 49.5t51.5 24t51 14.5t49 21q2 5 7 18t11.5 26.5t14.5 24t15 10.5q9 0 11.5 -13.5t3 -36t0.5 -50t3 -56t10.5 -55t23.5 -45.5q24 -28 63.5 -49t88 -36t102.5 -24.5t105.5 -15
t98.5 -7.5t81 -2q66 0 138 5t143 17.5t139 33.5t127 53q6 3 12.5 7t14.5 4t8 -12q0 -6 -1.5 -13t-3.5 -10q6 -26 27.5 -41t47.5 -15q38 0 59.5 21t32 55.5t13 78.5t2.5 89q0 111 -9 221t-9 221q0 4 4 22t11 38t15.5 36t16.5 16t13.5 -20.5t9 -54.5t7 -77.5t6.5 -88.5
q3 -44 7 -86t7 -76.5l5 -57.5t2 -29q0 -13 4 -41t13 -56.5t22.5 -50.5t32.5 -22q9 0 17 2q-16 16 -21.5 37.5t-5.5 43.5q0 39 14 81.5t38 78t57.5 58.5t72.5 23q25 0 52 -11t49 -27.5t36.5 -34.5t14.5 -31q0 -4 -2 -7.5t-6 -3.5q-6 0 -14 3.5t-19.5 8t-27.5 8.5t-37 4
q-15 0 -41 -4.5t-51.5 -14.5t-44 -24.5t-18.5 -34.5q0 -21 14.5 -40.5t35.5 -35t44 -26.5t41 -15q40 9 69.5 22t49.5 25t32 20.5t17 8.5q3 0 4.5 -5t1.5 -8q0 -8 -4 -20t-9 -23.5t-10 -21t-7 -13.5q-3 -5 -18.5 -16.5t-40 -26t-56.5 -30.5t-66.5 -29t-70.5 -21.5t-69 -8.5
q-51 0 -82 15.5t-48 62.5q0 -45 -10.5 -85.5t-31.5 -71t-52.5 -48.5t-73.5 -18q-38 0 -63 26.5t-36 62.5q-54 -37 -131.5 -61.5t-162 -39.5t-167 -21t-146.5 -6q-40 0 -96.5 3t-118 12t-122.5 25.5t-111 43.5t-82.5 66.5t-37.5 94.5zM1161 723q0 102 -8.5 203t-16.5 202
q-4 47 -9.5 93.5t-5.5 93.5q0 11 7 34.5t16.5 47t20 41.5t18.5 18q9 0 10.5 -11t1.5 -16q0 -68 4.5 -135t9.5 -134t9.5 -134.5t4.5 -134.5q0 -40 -4 -76.5t-10.5 -64.5t-16 -44.5t-20.5 -16.5q-4 0 -6 4t-3 9.5t-1.5 11t-0.5 9.5zM2042 1285q0 -6 -3.5 -17.5t-9.5 -22.5
t-13 -20t-13 -12q-103 -42 -206.5 -85t-206.5 -91q-8 -4 -13 -4q-4 0 -6.5 2t-2.5 10q0 15 12.5 35t24.5 29q9 6 42 22.5t78 37t96 43t95.5 41t76.5 30.5t39 12q10 0 10 -10zM2158 906q-15 30 -46.5 41t-62.5 11t-62.5 -13.5t-60.5 -34.5t-55 -45.5t-45 -45.5h12
q32 0 76.5 5.5t90.5 16.5t87 27.5t66 37.5zM468 1044q-4 -9 -29 -20.5t-53.5 -23.5t-52 -22t-26.5 -16q0 -19 22.5 -29.5t50.5 -10.5q44 0 82 20zM403 -16q-9 -2 -32.5 -7t-49 -13.5t-45 -20t-19.5 -24.5q0 -9 10.5 -15.5t25.5 -11.5t32.5 -7.5t31.5 -2.5q11 0 24 2.5
t22 10.5v89zM1628 143q-6 -16 -32.5 -27t-57.5 -11q-19 0 -37 5t-32 16t-22.5 29t-8.5 45t8 62t21.5 65.5t32.5 51.5t41 21q42 0 71 -28.5t46.5 -69t25.5 -85t8 -76.5q0 -63 -17 -112.5t-48.5 -87t-77 -64t-102.5 -43.5q-29 -8 -56 -8q-18 0 -51.5 7.5t-67.5 19.5t-62 27.5
t-34 31.5q1 7 7.5 9t11.5 2q31 0 61 -4t62 -4t65 4.5t66 17.5q23 9 55.5 26t62.5 40t51 50t21 56q0 10 -3 18t-8 16zM1599 240q0 10 -7.5 21.5t-18 22t-23 17.5t-22.5 7q-8 0 -17 -7.5t-16.5 -18t-12.5 -21t-5 -17.5q0 -21 18 -29.5t40 -8.5q23 0 43.5 9t20.5 25zM197 169
q-6 -14 -22.5 -31t-36.5 -32t-40.5 -25t-35.5 -10q-11 0 -17.5 7.5t-6.5 18.5q0 21 8 33t19 18t21.5 8.5t16.5 4.5q7 3 18.5 8.5t22.5 12.5t19.5 15t9.5 14q-2 10 -4.5 23.5t-2.5 26.5q0 18 6 38t17.5 36t27.5 26.5t36 10.5q11 0 21.5 -0.5t21.5 -0.5q42 0 82 12t74 54
q0 11 -1 31.5t-1.5 44t-1 45t-0.5 34.5q0 12 6 29.5t14 34.5t17.5 29t16.5 12q5 0 6.5 -6.5t1.5 -11.5q2 -43 2.5 -98t3 -114t8.5 -119t19 -112q8 -33 26.5 -58.5t43.5 -42.5t55.5 -25.5t63.5 -8.5q58 0 94 18t57.5 39t33 39t20.5 18q8 0 11 -7t3 -13q0 -26 -10 -47
q8 -9 22 -16t29.5 -11.5t31 -6.5t27.5 -2q26 0 44.5 9.5t31.5 23.5t22.5 30.5t17 30.5t14.5 23.5t16 9.5q8 0 10 -9.5t2 -15.5q0 -11 -1.5 -21.5t-3.5 -21.5q17 -21 44.5 -37.5t56.5 -16.5q5 0 12.5 2t7.5 11q0 12 -3 23t-6 20.5t-6 15.5t-3 8q0 5 5.5 20t13 30.5t15 27.5
t11.5 12q9 0 14 -13.5t8 -31t3.5 -34t0.5 -23.5q0 -27 -5 -59.5t-17.5 -60.5t-35 -47t-56.5 -19q-32 0 -64.5 20t-52.5 44q-21 -38 -58 -53t-79 -15q-74 0 -127 50q-9 -19 -30.5 -32t-47 -21t-51 -11.5t-44.5 -3.5q-56 0 -95.5 18t-66.5 48t-43.5 70t-26 85t-13.5 91t-7 89
l-54 -37q14 -23 25 -51.5t11 -53.5q0 -20 -3.5 -40.5t-12 -38t-22.5 -28.5t-36 -11q-46 0 -88.5 12t-80.5 39zM456 877q-12 -10 -27.5 -21t-33 -20t-35.5 -14.5t-34 -5.5q-18 0 -36 6t-32.5 17t-23.5 26.5t-9 35.5q0 5 3.5 13t8 16.5t10 16t8.5 12.5q28 38 63.5 60.5
t67.5 36t55.5 23t29.5 22.5q1 11 2 19t2.5 15t4.5 14.5t9 18.5q2 3 7.5 13.5t12 21.5t13 19.5t11.5 8.5t6 -9.5t1 -14.5q0 -45 -4 -90t-4 -90q0 -83 19 -124t76 -41q11 0 29.5 9t36.5 24t31 36t13 45q0 44 -10.5 97t-13.5 110q0 16 5 39.5t12 44.5t15.5 36t16.5 15
q4 0 7 -5.5t5 -12.5t3.5 -13.5t1.5 -9.5q7 -42 12.5 -88t12.5 -90.5t17 -85.5t27 -71.5t42.5 -49t62.5 -18.5q22 0 22 20q0 34 -9.5 75t-20.5 85.5t-21.5 90t-11.5 89.5q0 6 4.5 21.5t11 32t14.5 29t14 12.5q7 0 15.5 -25.5t17.5 -65.5t17.5 -88.5t15.5 -95t11 -85t4 -58.5
q0 -27 -4.5 -59t-17 -60.5t-34.5 -47.5t-56 -19q-12 0 -24 3q-8 -23 -12.5 -48t-4.5 -50q0 -50 24.5 -83t62 -53.5t82.5 -29t85 -8.5q62 0 121.5 12t106.5 28t75.5 32.5t28.5 26.5q0 14 -26 27t-60 23t-66 16.5t-44 8.5q-8 1 -10 7.5t-2 14.5q0 22 13.5 44t33.5 29
q24 8 37 37.5t19.5 66.5t8 74.5t1.5 61.5q0 94 -9 187.5t-9 187.5v27.5t2 27.5q1 7 7.5 23.5t15.5 34t19 31t17 13.5q3 0 7 -27.5t8 -70t7.5 -95.5t7 -103.5t5.5 -93.5t3 -66q1 -27 4 -59.5t12.5 -61.5t29.5 -49.5t56 -21.5q32 0 51.5 11.5t32.5 25t21 24.5t17 11q6 0 8 -5
t2 -12q0 -11 -2 -19q11 -27 32.5 -44t50.5 -19q14 20 36 47.5t49.5 57t58.5 59t62.5 52.5t62.5 37t58 14t51.5 -10.5t44 -28t31 -41.5t11.5 -51q0 -23 -6.5 -46t-17.5 -45t-25.5 -42t-29.5 -36q-15 -15 -40.5 -28t-56.5 -23t-66 -18t-69.5 -13t-66.5 -7.5t-56 -2.5
q-11 0 -19.5 0.5t-15.5 1.5q-5 -6 -10.5 -17t-11.5 -21.5t-13.5 -18.5t-14.5 -8t-9.5 5.5t-2.5 10.5q0 11 7.5 27.5t12.5 26.5q-28 5 -50.5 28t-28.5 50q-18 -23 -45.5 -39t-58.5 -16q-57 0 -91 32.5t-43 88.5q-2 -38 -7 -70.5t-25 -67.5q18 -3 48 -11.5t59 -22t50.5 -33
t21.5 -43.5q0 -8 -1 -12q-17 -71 -67 -121t-116 -81.5t-139.5 -45.5t-137.5 -14q-53 0 -104 15t-91 44.5t-64.5 73.5t-24.5 103q0 48 15 95t37 90q-32 24 -53 52.5t-33 66.5q-8 -24 -24 -52t-38.5 -51.5t-49.5 -39t-55 -15.5q-37 0 -64 14t-45.5 37.5t-29 54t-14.5 63.5z
M1734 1499q0 -14 9.5 -25.5t23.5 -11.5q16 0 24 14.5t12.5 31.5t9 31.5t13.5 14.5q5 0 8 -6t5 -14t2.5 -16t0.5 -12q0 -17 -5.5 -40t-16 -44t-26 -35.5t-36.5 -14.5q-9 0 -17 3.5t-14.5 7t-11 7l-4.5 3.5q-11 -16 -23 -28q-11 -11 -26 -19.5t-34 -8.5q-17 0 -29 8t-19.5 20
t-10.5 27t-3 30q0 9 2 25.5t7 32.5t13.5 27.5t20.5 11.5q4 0 4.5 -3t0.5 -6q0 -8 -1.5 -18t-1.5 -20q0 -16 9 -28t26 -12q20 0 28.5 15.5t15.5 35.5q3 8 7 17t8.5 17t10 13.5t10.5 5.5q6 0 8.5 -3.5t2.5 -8.5q0 -6 -1.5 -12.5t-1.5 -12.5zM764 1499q0 -14 9.5 -25.5
t23.5 -11.5q16 0 24 14.5t12.5 31.5t9 31.5t13.5 14.5q5 0 8 -6t5 -14t2.5 -16t0.5 -12q0 -17 -5.5 -40t-16 -44t-26 -35.5t-36.5 -14.5q-9 0 -17 3.5t-14.5 7t-11 7l-4.5 3.5q-11 -16 -23 -28q-11 -11 -26 -19.5t-34 -8.5q-17 0 -29 8t-19.5 20t-10.5 27t-3 30q0 9 2 25.5
t7 32.5t13.5 27.5t20.5 11.5q4 0 4.5 -3t0.5 -6q0 -8 -1.5 -18t-1.5 -20q0 -16 9 -28t26 -12q20 0 28.5 15.5t15.5 35.5q3 8 7 17t8.5 17t10 13.5t10.5 5.5q6 0 8.5 -3.5t2.5 -8.5q0 -6 -1.5 -12.5t-1.5 -12.5zM2267 481q0 -3 -2.5 -13.5t-7 -22.5t-10 -22.5t-10.5 -12.5
q-24 -11 -60 -27t-74.5 -33t-73 -34t-55.5 -29q-9 -4 -13 -4q-6 0 -6 8q0 5 1.5 14t5.5 18.5t9 18.5t13 15q21 15 55 33t71.5 36t74 33.5t62.5 26.5q2 1 6 2t6 1q8 0 8 -8z" />
    <glyph glyph-name="Jallajalaluhoo" unicode="&#xfdfb;" horiz-adv-x="2796" arabic-form="isolated" 
d="M1876 -194q4 13 12 32.5t17 37t19.5 30t21.5 12.5q10 0 28.5 -9.5t36.5 -22t31.5 -25t13.5 -19.5q0 -3 -6 -23t-15.5 -43.5t-21 -42t-22.5 -18.5q-10 0 -28.5 9.5t-37 21.5t-32.5 22.5t-15 13.5q-2 5 -2 10.5v13.5zM2367 1287q-15 -3 -44.5 -12t-63.5 -20t-66.5 -21.5
t-51.5 -17.5q-126 -45 -247.5 -93t-240.5 -113q-4 -2 -6 -3.5t-6 -1.5q-6 0 -7.5 5t-1.5 10q0 11 5 27t16 27q11 12 45 31t82.5 41.5t107.5 46.5t120.5 47.5t122 45t112 37.5t90 25.5t56.5 9.5q6 0 6 -6t-2.5 -16.5t-6.5 -21t-9 -18.5t-10 -9zM1509 1383q0 -22 14.5 -32
t25.5 -10q22 0 32 17t15.5 37.5t9.5 37.5t15 17q5 0 8.5 -6.5t5.5 -15t3 -17t1 -11.5q0 -20 -6.5 -49t-19.5 -56.5t-32 -47t-43 -19.5q-9 0 -17.5 4.5t-16.5 9.5t-13.5 9.5t-8.5 4.5q-6 0 -13.5 -10.5t-19.5 -22.5t-28.5 -22.5t-39.5 -10.5q-20 0 -34 10t-22.5 25t-12.5 33
t-4 35q0 7 2 24t7 34.5t12 30.5t18 13q14 0 15 -14.5t1.5 -31.5t8 -31.5t34.5 -14.5q22 0 33 19.5t19 43t16.5 43t25.5 19.5q13 0 13 -18q0 -6 -2 -13.5t-2 -13.5zM727 1230q-5 0 -6 2.5t-1 6.5q0 16 8 36t23 31q11 8 35.5 21.5t55 29.5t63.5 31.5t60.5 28.5t47.5 21t24 8
q9 0 9 -10q0 -5 -3.5 -16t-8 -23t-10 -22t-9.5 -12q-62 -27 -135 -59.5t-139 -68.5q-3 -2 -7.5 -3.5t-6.5 -1.5zM1613 160q6 -55 10.5 -111.5t4.5 -111.5q0 -102 -32.5 -183.5t-93 -138.5t-147 -87.5t-195.5 -30.5q-69 0 -125 21t-96.5 59t-62.5 90t-22 115q0 45 11 100
t26.5 104t33 82t31.5 33q6 0 7 -5.5t1 -9.5q0 -21 -5.5 -37.5t-12.5 -34.5t-12.5 -41.5t-5.5 -57.5q0 -57 19.5 -103.5t54 -79.5t82 -50.5t103.5 -17.5q27 0 65 6t79 17.5t82 29t73 41t52 52.5t20 64q0 70 -7 139.5t-16.5 139.5t-20.5 139.5t-19 138.5q6 -1 12 -1h13
q46 0 85 13q10 -42 27 -86.5t43.5 -81t64 -59.5t88.5 -23t102 8.5t102 21.5t101 28.5t98 30.5q-32 11 -62.5 23.5t-62 23t-64 17.5t-66.5 7q-19 0 -32 -3t-23.5 -7t-20 -7t-21.5 -3q-10 0 -16 5.5t-6 13.5q0 3 1 6q22 70 59.5 103t82.5 33q23 0 49 -5.5t52 -14t51 -18
t47 -17.5q119 -42 248 -67.5t255 -25.5q4 0 10 -0.5t11.5 -1.5t9.5 -3.5t4 -5.5q0 -10 -8 -29t-19.5 -37.5t-23.5 -32.5t-20 -14t-18 0.5t-21 0.5q-35 0 -84.5 -3t-103.5 -10t-107 -17t-95 -25q-51 -18 -100.5 -38t-99.5 -37t-101.5 -28t-108.5 -11q-29 0 -61 6t-61 19
t-53.5 33t-38.5 48zM2409 -14q0 -8 -7 -29t-17 -43.5t-21.5 -39.5t-19.5 -17t-23.5 8t-32.5 19.5t-32.5 22.5t-23.5 17q-3 12 -3 24q5 12 11 27t13 30t15 29t17 23l14 6q11 -1 27.5 -9t33 -20t30 -25t19.5 -23zM1022 659q35 79 49.5 160t19.5 160t6 155t10 144q1 9 8.5 32
t18 46.5t22.5 42t23 18.5q9 0 17 -33t14.5 -87t13 -122t12.5 -137.5t11.5 -134.5t12.5 -112q6 -40 30 -70t58.5 -49.5t75.5 -29.5t80 -10q72 0 142.5 9.5t139.5 24.5t137.5 34t137.5 37q-31 10 -61.5 22.5t-61.5 22.5t-63 17t-66 7q-23 0 -36.5 -3t-23.5 -6t-19 -6t-21 -3
q-9 0 -15.5 4t-6.5 20q0 1 6.5 22t22.5 46.5t43.5 46.5t70.5 21q24 0 49.5 -5.5t51 -13.5t50.5 -17.5t48 -17.5q58 -21 120.5 -38.5t127 -30t129 -20t126.5 -7.5q8 0 21.5 -1.5t13.5 -9.5q0 -6 -7.5 -24t-18 -37.5t-22.5 -34.5t-20 -15q-109 0 -218.5 -9.5t-213.5 -44.5
q-72 -24 -144 -49t-144.5 -45t-146.5 -33t-151 -13q-70 0 -119.5 16t-83.5 43t-55 62t-33 74q-8 24 -12.5 55.5t-8 60.5t-6.5 50t-8 24q-5 -2 -8.5 -12t-6.5 -21.5t-4.5 -22.5t-1.5 -14q-10 -69 -23 -127.5t-34 -113t-53.5 -107t-80.5 -109.5q-17 -20 -47 -36.5t-67.5 -30.5
t-79.5 -24.5t-82.5 -18t-76.5 -11t-62 -3.5h-7.5t-10.5 1t-9 3.5t-4 6.5q0 7 13 16.5t29.5 18.5t32 16t20.5 9q57 25 110 53.5t101 63t91.5 76t81.5 92.5q-17 48 -51 105t-78 110.5t-96 98.5t-105 71q-11 -15 -25.5 -25.5t-34.5 -10.5q-22 0 -49.5 15t-54 36.5t-49 44.5
t-34.5 40q-13 18 -15.5 44.5t-2.5 47.5q0 11 1 31t5 40t11.5 35t21.5 15q25 0 75 -22t111.5 -61.5t128.5 -95.5t125.5 -124t102 -146t59.5 -162zM342 0q-32 -31 -68.5 -56t-83.5 -25q-16 0 -38 4t-42.5 12.5t-35 22t-14.5 33.5q0 70 62 144.5t187 145.5q0 7 2.5 33t7.5 54
t13 50t19 22q10 0 16 -23t10.5 -60.5t9 -85.5t12.5 -97.5t21 -97.5t34.5 -85.5t53 -60.5t76.5 -23q39 0 59.5 25.5t20.5 61.5q0 45 -6 91.5t-11 91.5q20 2 39 4.5t38 5.5q3 -29 6 -56.5t3 -56.5q0 -30 -2 -66t-8 -72.5t-18 -70t-31.5 -60t-48.5 -42t-70 -15.5
q-45 0 -81.5 25t-63.5 62.5t-44.5 82t-23.5 82.5zM317 221q-12 -17 -34 -32.5t-47 -31t-48.5 -33t-36.5 -39.5q6 -11 17 -17.5t24 -9.5t26 -4t22 -1q23 0 47.5 8t41.5 16q-4 33 -7 72t-5 72zM1563 685q-8 -2 -21 -3t-30 -1q-9 0 -19.5 0.5t-22.5 1.5q-5 36 -10 82.5
t-10.5 90t-9.5 79t-5 49.5q0 7 2.5 21.5t7 32t10 36t11.5 33.5t11.5 25t10.5 10q6 0 10 -7t6.5 -16t4 -18t1.5 -13zM707 407q-17 -14 -38.5 -24t-41.5 -20q-5 33 -10.5 69t-10.5 73.5t-8 74.5t-3 72q-9 13 -13.5 30.5t-4.5 28.5q0 21 10 48.5t24 52t29 42.5t25 20
q4 0 5.5 -5t1.5 -10q0 -10 -1 -19t-1 -19q1 -18 8 -30.5t15 -21.5t15 -15.5t7 -12.5q0 -9 -4 -23.5t-9 -30t-11 -30t-9 -23.5q4 -57 10.5 -113.5t14.5 -113.5zM221 570q11 0 18 -8t7 -32q0 -20 -5 -38t-15.5 -32t-26 -22.5t-37.5 -8.5q-29 0 -49.5 10.5t-33 28t-18 40
t-5.5 46.5q0 36 13.5 76.5t35 80.5t49 76.5t55 64.5t53.5 44.5t45 16.5q13 0 13 -14t-25.5 -33.5t-57.5 -54.5q-19 -21 -38 -47t-34 -53t-24 -54t-9 -50q0 -41 47 -41q11 0 22 2t20 2zM1155 123q17 22 41.5 48t52.5 48t58 37t60 15q31 0 52.5 -16.5t21.5 -48.5
q0 -14 -8 -27.5t-20 -24.5t-26.5 -17.5t-28.5 -6.5q-5 0 -9 1.5t-4 6.5q0 2 1.5 11.5t1.5 14.5q0 6 -5.5 13.5t-13.5 7.5q-21 0 -43 -10.5t-43 -27t-38.5 -37t-29.5 -39.5q-14 -23 -22 -45t-13.5 -39.5t-10 -28.5t-10.5 -11q-7 0 -18.5 2.5t-11.5 6.5q8 37 17 76.5t9 79.5
q0 9 -1 24.5t-5 31t-11 26.5t-20 11q-11 0 -23 -5.5t-20 -5.5t-12.5 4.5t-7.5 11t-4 13.5t-1 13q0 29 19 51t51 22q24 0 40 -12t25 -31t12.5 -41t3.5 -42q0 -16 -0.5 -30t-5.5 -30z" />
    <glyph glyph-name="uniFDFC" unicode="&#xfdfc;" horiz-adv-x="2303" arabic-form="isolated" 
d="M881 914q7 -77 18.5 -168t22.5 -185t19 -186t8 -170q0 -50 -1.5 -103t-10.5 -104.5t-27 -100t-51 -88.5q-15 -18 -46 -47.5t-81 -58.5t-120.5 -50t-164.5 -21q-81 0 -139 18t-97.5 47t-63 65t-36 71t-16.5 66t-4 50q0 35 7 75t18.5 79t26 74.5t28.5 63t26 43.5t20 16
q9 0 9 -7q0 -13 -10 -30.5t-21.5 -43t-21.5 -61t-10 -83.5q0 -61 23 -113.5t63.5 -91t95 -60.5t118.5 -22q71 0 140.5 14.5t125.5 38.5t94.5 54.5t48.5 63.5q6 20 9 43t3 54q0 65 -7 150t-17.5 175.5t-23.5 181t-25 167.5t-21.5 134t-12.5 82q-2 9 -8 17q-18 20 -29.5 50.5
t-11.5 62.5q0 14 1.5 27t5.5 23q5 18 16 39.5t23.5 40t24.5 31t19 12.5q2 0 4 -1.5t3 -8.5q1 -23 4 -39t12 -29.5t25 -27.5t45 -32q8 -5 14 -15.5t6 -26.5t-4 -34t-10.5 -36t-14 -35t-14.5 -32q-2 -4 -4.5 -8.5t-2.5 -9.5zM1528 -251q-10 -13 -24 -29.5t-27 -31.5t-23 -25.5
t-12 -10.5q-12 0 -33 13t-42 30t-36.5 35t-15.5 29q0 4 4 9q9 15 24.5 34.5t31 37.5t28.5 30.5t17 12.5q3 0 5 -3q7 -11 20 -24.5t28 -27t30.5 -24.5t28.5 -18q10 15 25 33t29 34t25.5 26.5t14.5 10.5t5 -2q8 -13 23.5 -28.5t32.5 -30t34 -26t29 -15.5q4 -1 4 -6q0 -2 -5 -7
q-5 -7 -20.5 -25.5t-32 -38.5t-31 -35.5t-18.5 -15.5q-9 0 -25.5 9t-34.5 22.5t-34 29t-25 28.5zM2141 -34q-6 37 -23 75.5t-36.5 72.5t-38 61t-25.5 42q-4 9 -4 23q0 6 4.5 28t11.5 45t15 41.5t15 18.5q9 0 21.5 -16t25.5 -41t26.5 -56.5t24.5 -61.5t18.5 -56.5t9.5 -41.5
q2 -20 5.5 -50t3.5 -64q0 -59 -18.5 -130t-57 -143.5t-98.5 -140t-144 -117.5q-23 -14 -53 -16.5t-69 -2.5q-42 0 -92 7t-93.5 17.5t-73 22.5t-29.5 21q0 8 14 10t31 2q47 0 88.5 2.5t80.5 11t78 25t82 43.5q31 20 65 47.5t67 60t63 67.5t53 69t37 66t15 58zM1328 52
q-12 8 -14.5 25t-2.5 34q0 16 3 33t9 31t13.5 22.5t16.5 8.5q4 0 9 -3q23 -16 64 -31t109 -15q38 0 67.5 6.5t50 15t31 17.5t10.5 15q0 11 -7 27.5t-18 35t-24.5 37t-26.5 34.5q-4 5 -4 12q0 15 6.5 40.5t15.5 49.5t19.5 41.5t18.5 17.5q10 0 23.5 -22.5t26 -59.5t21.5 -85
t9 -99q0 -17 -3.5 -41t-11 -48.5t-18 -47t-24.5 -37.5q-12 -13 -30.5 -23.5t-41.5 -18t-48.5 -12t-51.5 -4.5q-81 0 -128 15t-69 29zM1328 52q-23 16 -44 37t-38.5 50t-30 67t-19.5 86q-8 54 -12.5 126.5t-7.5 151t-5.5 158t-6 149t-9.5 123.5t-16 81q-1 2 -1 6t3 12.5
t7.5 18.5t9.5 20.5t10 19.5q7 13 12.5 26t9.5 23.5t8 17.5t9 7q8 0 14.5 -27t11 -73t7.5 -105.5t5.5 -124t4 -129.5t3 -122t2.5 -101.5t3 -67.5q3 -42 9.5 -83t18 -78t30 -67.5t46.5 -50.5q16 -12 24.5 -25.5t13 -27.5t5.5 -26t1 -21q0 -24 -17 -40t-38 -16q-6 0 -11.5 0.5
t-11.5 4.5z" />
    <glyph glyph-name="lamalefmadda" unicode="&#xfef5;" horiz-adv-x="990" arabic-form="isolated" 
d="M869 949q0 -46 -6 -110.5t-18.5 -136.5t-33 -146t-49.5 -139q10 -30 19.5 -68.5t16.5 -79t11.5 -81t4.5 -74.5q0 -26 -1.5 -46t-6.5 -43q-2 -9 -34 -18.5t-81 -17t-107.5 -12.5t-113.5 -5q-27 0 -51 1.5t-40 4.5q-6 1 -10.5 15.5t-4.5 34.5q0 60 16 76q44 22 89.5 53
t87.5 68.5t78 80t60 86.5q-42 84 -100 160.5t-118 142t-117 118.5t-98 90q-8 -11 -23.5 -24t-22.5 -13q-10 0 -35.5 20.5t-52.5 47.5t-47.5 52.5t-21.5 36.5q-6 43 -6 57q0 49 6 76t14 40t16 16t12 3q15 0 31 -9t32 -20q84 -60 167.5 -143t159 -176.5t138.5 -192.5t107 -192
q20 57 33.5 121.5t21.5 129.5t11.5 127t3.5 114q0 10 -7.5 21t-12.5 20q-12 21 -18.5 44.5t-6.5 64.5q0 21 9 45.5t21 45.5t24.5 35t18.5 14q9 0 9 -21t9 -39t22.5 -32.5t28.5 -25t27 -15.5q4 -2 6.5 -10.5t2.5 -19.5q0 -27 -11 -51.5t-24 -45t-24 -35t-11 -20.5zM771 146
q-5 49 -17.5 96.5t-32.5 94.5q-18 -28 -41.5 -59t-50 -61t-55.5 -57t-59 -47q64 2 131.5 7.5t124.5 25.5zM472 1497q5 6 11.5 11t12.5 5q10 0 10 -19q0 -27 -16 -59.5t-44.5 -61t-68.5 -47.5t-88 -19q-23 0 -41.5 3.5t-35.5 8t-34 8.5t-38 4q-31 0 -52 -7t-36 -17t-24 -21.5
t-16 -20.5q-13 -19 -26 -19q-14 0 -14 19q0 23 15.5 55.5t43.5 62.5t67 51t85 21q19 0 37.5 -4t38.5 -8.5t42 -8.5t48 -4t45 5.5t33 14.5t25 21t20 26z" />
    <glyph glyph-name="lamalefmadda.f" unicode="&#xfef6;" horiz-adv-x="1298" arabic-form="final" 
d="M1103 52q-23 16 -44.5 37t-38.5 50t-30 67t-19 86q-8 62 -14.5 122t-11.5 107t-10 76t-11 29t-14.5 -23t-16.5 -84q-4 -30 -15 -87.5t-35 -127t-64 -143.5t-103 -138q-29 -29 -72.5 -51.5t-93 -38t-100 -26t-93 -16.5t-71.5 -8.5t-35 -2.5q-12 0 -16 3t-4 7q0 8 14 16
t40.5 19t64.5 26t86 37q94 43 179 111.5t161 174.5q-37 84 -83.5 155.5t-97 128.5t-103 98.5t-100.5 65.5q-11 -16 -27 -31.5t-40 -15.5q-15 0 -38.5 10.5t-51 30t-57.5 48t-58 64.5q-5 6 -9 18t-6.5 26.5t-3.5 30t-1 30.5q0 21 2.5 40.5t7 34.5t11 23.5t15.5 8.5
q30 0 86 -24.5t124 -69.5t141.5 -108t138.5 -140.5t115 -167t72 -186.5q34 71 53 144t28.5 149t12.5 154t5 159q1 26 1 51.5t5 51.5q1 8 8 33.5t16.5 53.5t21 49.5t22.5 21.5q8 0 13 -18t8 -41t4 -44.5t2 -28.5q10 -98 18.5 -187t16 -165.5t14 -138.5t11.5 -106
q5 -42 11.5 -83t17.5 -78t29 -67.5t46 -50.5q16 -12 24.5 -25.5t13 -27.5t5.5 -26t1 -21q0 -24 -17 -40t-38 -16q-6 0 -11.5 0.5t-11.5 4.5zM467 1323q5 6 11.5 11t12.5 5q10 0 10 -19q0 -27 -16 -59.5t-44.5 -61t-68.5 -47.5t-88 -19q-23 0 -41.5 3.5t-35.5 8t-34 8.5
t-38 4q-31 0 -52 -7t-36 -17t-24 -21.5t-16 -20.5q-13 -19 -26 -19q-14 0 -14 19q0 23 15.5 55.5t43.5 62.5t67 51t85 21q19 0 37.5 -4t38.5 -8.5t42 -8.5t48 -4t45 5.5t33 14.5t25 21t20 26z" />
    <glyph glyph-name="lamalefhamza" unicode="&#xfef7;" horiz-adv-x="990" arabic-form="isolated" 
d="M869 949q0 -46 -6 -110.5t-18.5 -136.5t-33 -146t-49.5 -139q10 -30 19.5 -68.5t16.5 -79t11.5 -81t4.5 -74.5q0 -26 -1.5 -46t-6.5 -43q-2 -9 -34 -18.5t-81 -17t-107.5 -12.5t-113.5 -5q-27 0 -51 1.5t-40 4.5q-6 1 -10.5 15.5t-4.5 34.5q0 60 16 76q44 22 89.5 53
t87.5 68.5t78 80t60 86.5q-42 84 -100 160.5t-118 142t-117 118.5t-98 90q-8 -11 -23.5 -24t-22.5 -13q-10 0 -35.5 20.5t-52.5 47.5t-47.5 52.5t-21.5 36.5q-6 43 -6 57q0 49 6 76t14 40t16 16t12 3q15 0 31 -9t32 -20q84 -60 167.5 -143t159 -176.5t138.5 -192.5t107 -192
q20 57 33.5 121.5t21.5 129.5t11.5 127t3.5 114q0 10 -7.5 21t-12.5 20q-12 21 -18.5 44.5t-6.5 64.5q0 21 9 45.5t21 45.5t24.5 35t18.5 14q9 0 9 -21t9 -39t22.5 -32.5t28.5 -25t27 -15.5q4 -2 6.5 -10.5t2.5 -19.5q0 -27 -11 -51.5t-24 -45t-24 -35t-11 -20.5zM771 146
q-5 49 -17.5 96.5t-32.5 94.5q-18 -28 -41.5 -59t-50 -61t-55.5 -57t-59 -47q64 2 131.5 7.5t124.5 25.5zM83 1546q0 -9 12 -21.5t32 -24t46 -19t55 -7.5q8 0 16.5 0.5t10.5 1.5q57 24 84 37t35 13q12 0 12 -14q0 -10 -5.5 -25.5t-13.5 -30.5t-16.5 -27t-15.5 -15
q-88 -39 -147.5 -67t-97 -47t-57.5 -28t-28 -9q-9 0 -9 14q0 8 2.5 16.5t4.5 13.5q6 14 24 33t56 44q1 1 1 3t-2 3q-37 14 -51 38t-14 64q0 33 19 70t50.5 68t70.5 51.5t80 20.5q23 0 39.5 -9.5t16.5 -38.5q0 -9 -4 -26.5t-11.5 -35t-18 -30t-23.5 -12.5q-10 0 -13 6.5
t-7.5 15t-14.5 15t-33 6.5q-10 0 -23 -3.5t-25 -9.5t-22 -15t-15 -19z" />
    <glyph glyph-name="lamalefhamza.f" unicode="&#xfef8;" horiz-adv-x="1298" arabic-form="final" 
d="M1103 52q-23 16 -44.5 37t-38.5 50t-30 67t-19 86q-8 62 -14.5 122t-11.5 107t-10 76t-11 29t-14.5 -23t-16.5 -84q-4 -30 -15 -87.5t-35 -127t-64 -143.5t-103 -138q-29 -29 -72.5 -51.5t-93 -38t-100 -26t-93 -16.5t-71.5 -8.5t-35 -2.5q-12 0 -16 3t-4 7q0 8 14 16
t40.5 19t64.5 26t86 37q94 43 179 111.5t161 174.5q-37 84 -83.5 155.5t-97 128.5t-103 98.5t-100.5 65.5q-11 -16 -27 -31.5t-40 -15.5q-15 0 -38.5 10.5t-51 30t-57.5 48t-58 64.5q-5 6 -9 18t-6.5 26.5t-3.5 30t-1 30.5q0 21 2.5 40.5t7 34.5t11 23.5t15.5 8.5
q30 0 86 -24.5t124 -69.5t141.5 -108t138.5 -140.5t115 -167t72 -186.5q34 71 53 144t28.5 149t12.5 154t5 159q1 26 1 51.5t5 51.5q1 8 8 33.5t16.5 53.5t21 49.5t22.5 21.5q8 0 13 -18t8 -41t4 -44.5t2 -28.5q10 -98 18.5 -187t16 -165.5t14 -138.5t11.5 -106
q5 -42 11.5 -83t17.5 -78t29 -67.5t46 -50.5q16 -12 24.5 -25.5t13 -27.5t5.5 -26t1 -21q0 -24 -17 -40t-38 -16q-6 0 -11.5 0.5t-11.5 4.5zM88 1394q0 -9 12 -21.5t32 -24t46 -19t55 -7.5q8 0 16.5 0.5t10.5 1.5q57 24 84 37t35 13q12 0 12 -14q0 -10 -5.5 -25.5
t-13.5 -30.5t-16.5 -27t-15.5 -15q-88 -39 -147.5 -67t-97 -47t-57.5 -28t-28 -9q-9 0 -9 14q0 8 2.5 16.5t4.5 13.5q6 14 24 33t56 44q1 1 1 3t-2 3q-37 14 -51 38t-14 64q0 33 19 70t50.5 68t70.5 51.5t80 20.5q23 0 39.5 -9.5t16.5 -38.5q0 -9 -4 -26.5t-11.5 -35
t-18 -30t-23.5 -12.5q-10 0 -13 6.5t-7.5 15t-14.5 15t-33 6.5q-10 0 -23 -3.5t-25 -9.5t-22 -15t-15 -19z" />
    <glyph glyph-name="lamalefhamzabelow" unicode="&#xfef9;" horiz-adv-x="990" arabic-form="isolated" 
d="M869 949q0 -46 -6 -110.5t-18.5 -136.5t-33 -146t-49.5 -139q10 -30 19.5 -68.5t16.5 -79t11.5 -81t4.5 -74.5q0 -26 -1.5 -46t-6.5 -43q-2 -9 -34 -18.5t-81 -17t-107.5 -12.5t-113.5 -5q-27 0 -51 1.5t-40 4.5q-6 1 -10.5 15.5t-4.5 34.5q0 60 16 76q44 22 89.5 53
t87.5 68.5t78 80t60 86.5q-42 84 -100 160.5t-118 142t-117 118.5t-98 90q-8 -11 -23.5 -24t-22.5 -13q-10 0 -35.5 20.5t-52.5 47.5t-47.5 52.5t-21.5 36.5q-6 43 -6 57q0 49 6 76t14 40t16 16t12 3q15 0 31 -9t32 -20q84 -60 167.5 -143t159 -176.5t138.5 -192.5t107 -192
q20 57 33.5 121.5t21.5 129.5t11.5 127t3.5 114q0 10 -7.5 21t-12.5 20q-12 21 -18.5 44.5t-6.5 64.5q0 21 9 45.5t21 45.5t24.5 35t18.5 14q9 0 9 -21t9 -39t22.5 -32.5t28.5 -25t27 -15.5q4 -2 6.5 -10.5t2.5 -19.5q0 -27 -11 -51.5t-24 -45t-24 -35t-11 -20.5zM771 146
q-5 49 -17.5 96.5t-32.5 94.5q-18 -28 -41.5 -59t-50 -61t-55.5 -57t-59 -47q64 2 131.5 7.5t124.5 25.5zM297 -291q0 -9 12 -21.5t32 -24t46 -19t55 -7.5q8 0 16.5 0.5t10.5 1.5q57 24 84 37t35 13q12 0 12 -14q0 -10 -5.5 -25.5t-13.5 -30.5t-16.5 -27t-15.5 -15
q-88 -39 -147.5 -67t-97 -47t-57.5 -28t-28 -9q-9 0 -9 14q0 8 2.5 16.5t4.5 13.5q6 14 24 33t56 44q1 1 1 3t-2 3q-37 14 -51 38t-14 64q0 33 19 70t50.5 68t70.5 51.5t80 20.5q23 0 39.5 -9.5t16.5 -38.5q0 -9 -4 -26.5t-11.5 -35t-18 -30t-23.5 -12.5q-10 0 -13 6.5
t-7.5 15t-14.5 15t-33 6.5q-10 0 -23 -3.5t-25 -9.5t-22 -15t-15 -19z" />
    <glyph glyph-name="lamalefhamzabelow.f" unicode="&#xfefa;" horiz-adv-x="1298" arabic-form="final" 
d="M1103 52q-23 16 -44.5 37t-38.5 50t-30 67t-19 86q-8 62 -14.5 122t-11.5 107t-10 76t-11 29t-14.5 -23t-16.5 -84q-4 -30 -15 -87.5t-35 -127t-64 -143.5t-103 -138q-29 -29 -72.5 -51.5t-93 -38t-100 -26t-93 -16.5t-71.5 -8.5t-35 -2.5q-12 0 -16 3t-4 7q0 8 14 16
t40.5 19t64.5 26t86 37q94 43 179 111.5t161 174.5q-37 84 -83.5 155.5t-97 128.5t-103 98.5t-100.5 65.5q-11 -16 -27 -31.5t-40 -15.5q-15 0 -38.5 10.5t-51 30t-57.5 48t-58 64.5q-5 6 -9 18t-6.5 26.5t-3.5 30t-1 30.5q0 21 2.5 40.5t7 34.5t11 23.5t15.5 8.5
q30 0 86 -24.5t124 -69.5t141.5 -108t138.5 -140.5t115 -167t72 -186.5q34 71 53 144t28.5 149t12.5 154t5 159q1 26 1 51.5t5 51.5q1 8 8 33.5t16.5 53.5t21 49.5t22.5 21.5q8 0 13 -18t8 -41t4 -44.5t2 -28.5q10 -98 18.5 -187t16 -165.5t14 -138.5t11.5 -106
q5 -42 11.5 -83t17.5 -78t29 -67.5t46 -50.5q16 -12 24.5 -25.5t13 -27.5t5.5 -26t1 -21q0 -24 -17 -40t-38 -16q-6 0 -11.5 0.5t-11.5 4.5zM288 -333q0 -9 12 -21.5t32 -24t46 -19t55 -7.5q8 0 16.5 0.5t10.5 1.5q57 24 84 37t35 13q12 0 12 -14q0 -10 -5.5 -25.5
t-13.5 -30.5t-16.5 -27t-15.5 -15q-88 -39 -147.5 -67t-97 -47t-57.5 -28t-28 -9q-9 0 -9 14q0 8 2.5 16.5t4.5 13.5q6 14 24 33t56 44q1 1 1 3t-2 3q-37 14 -51 38t-14 64q0 33 19 70t50.5 68t70.5 51.5t80 20.5q23 0 39.5 -9.5t16.5 -38.5q0 -9 -4 -26.5t-11.5 -35
t-18 -30t-23.5 -12.5q-10 0 -13 6.5t-7.5 15t-14.5 15t-33 6.5q-10 0 -23 -3.5t-25 -9.5t-22 -15t-15 -19z" />
    <glyph glyph-name="lamalef" unicode="&#xfefb;" horiz-adv-x="990" arabic-form="isolated" 
d="M869 949q0 -46 -6 -110.5t-18.5 -136.5t-33 -146t-49.5 -139q10 -30 19.5 -68.5t16.5 -79t11.5 -81t4.5 -74.5q0 -26 -1.5 -46t-6.5 -43q-2 -9 -34 -18.5t-81 -17t-107.5 -12.5t-113.5 -5q-27 0 -51 1.5t-40 4.5q-6 1 -10.5 15.5t-4.5 34.5q0 60 16 76q44 22 89.5 53
t87.5 68.5t78 80t60 86.5q-42 84 -100 160.5t-118 142t-117 118.5t-98 90q-8 -11 -23.5 -24t-22.5 -13q-10 0 -35.5 20.5t-52.5 47.5t-47.5 52.5t-21.5 36.5q-6 43 -6 57q0 49 6 76t14 40t16 16t12 3q15 0 31 -9t32 -20q84 -60 167.5 -143t159 -176.5t138.5 -192.5t107 -192
q20 57 33.5 121.5t21.5 129.5t11.5 127t3.5 114q0 10 -7.5 21t-12.5 20q-12 21 -18.5 44.5t-6.5 64.5q0 21 9 45.5t21 45.5t24.5 35t18.5 14q9 0 9 -21t9 -39t22.5 -32.5t28.5 -25t27 -15.5q4 -2 6.5 -10.5t2.5 -19.5q0 -27 -11 -51.5t-24 -45t-24 -35t-11 -20.5zM771 146
q-5 49 -17.5 96.5t-32.5 94.5q-18 -28 -41.5 -59t-50 -61t-55.5 -57t-59 -47q64 2 131.5 7.5t124.5 25.5z" />
    <glyph glyph-name="lamalef.f" unicode="&#xfefc;" horiz-adv-x="1298" arabic-form="final" 
d="M1103 52q-23 16 -44.5 37t-38.5 50t-30 67t-19 86q-8 62 -14.5 122t-11.5 107t-10 76t-11 29t-14.5 -23t-16.5 -84q-4 -30 -15 -87.5t-35 -127t-64 -143.5t-103 -138q-29 -29 -72.5 -51.5t-93 -38t-100 -26t-93 -16.5t-71.5 -8.5t-35 -2.5q-12 0 -16 3t-4 7q0 8 14 16
t40.5 19t64.5 26t86 37q94 43 179 111.5t161 174.5q-37 84 -83.5 155.5t-97 128.5t-103 98.5t-100.5 65.5q-11 -16 -27 -31.5t-40 -15.5q-15 0 -38.5 10.5t-51 30t-57.5 48t-58 64.5q-5 6 -9 18t-6.5 26.5t-3.5 30t-1 30.5q0 21 2.5 40.5t7 34.5t11 23.5t15.5 8.5
q30 0 86 -24.5t124 -69.5t141.5 -108t138.5 -140.5t115 -167t72 -186.5q34 71 53 144t28.5 149t12.5 154t5 159q1 26 1 51.5t5 51.5q1 8 8 33.5t16.5 53.5t21 49.5t22.5 21.5q8 0 13 -18t8 -41t4 -44.5t2 -28.5q10 -98 18.5 -187t16 -165.5t14 -138.5t11.5 -106
q5 -42 11.5 -83t17.5 -78t29 -67.5t46 -50.5q16 -12 24.5 -25.5t13 -27.5t5.5 -26t1 -21q0 -24 -17 -40t-38 -16q-6 0 -11.5 0.5t-11.5 4.5z" />
    <glyph glyph-name=".notdef" horiz-adv-x="676" 
d="M66 0v1085h544v-1085h-544zM134 68h408v949h-408v-949z" />
    <glyph glyph-name=".null" 
 />
    <glyph glyph-name="nonmarkingreturn" horiz-adv-x="586" 
 />
    <glyph glyph-name="NULL" 
 />
    <glyph glyph-name="space" unicode=" " horiz-adv-x="313" 
 />
    <glyph glyph-name="numbersignArabic" unicode="&#x600;" horiz-adv-x="1426" 
d="M1289 142q13 10 24 10q15 0 15 -24q0 -10 -3 -22.5t-10 -23.5q-24 -45 -38 -77t-21 -55t-8.5 -38t-1.5 -25q0 -11 1.5 -22.5t5.5 -21t10.5 -15.5t16.5 -6q4 0 23 3.5t41 7.5t41 7.5t24 3.5q8 0 11.5 -8.5t3.5 -28.5q0 -56 -16.5 -83t-33.5 -37q-16 -11 -67 -19.5
t-148 -15t-246 -10t-362 -3.5q-90 0 -162.5 6t-129 15t-97 20t-67.5 21q-15 6 -31.5 14.5t-31 19t-23.5 22t-9 23.5q0 21 29 21q13 0 39.5 -1.5t71.5 -3t110.5 -3t157.5 -1.5q169 0 335 4.5t338 10.5q18 1 31 8.5t13 32.5q0 48 15.5 92.5t39.5 82.5t53 68.5t56 50.5z" />
    <glyph glyph-name="yearsignArabic" unicode="&#x601;" horiz-adv-x="3730" 
d="M946 -385q-14 -25 -37 -61t-55.5 -69t-75 -56.5t-94.5 -23.5q-31 0 -54.5 14t-42.5 35t-33.5 45t-26.5 45t-22 35t-20 14q-5 0 -7 -1q-47 -23 -78 -61.5t-52 -83.5t-36.5 -90.5t-32.5 -82.5t-39 -60.5t-56 -23.5q-20 0 -51 14t-60.5 46.5t-51 85.5t-21.5 132
q0 23 2.5 47.5t7.5 51.5q3 19 10.5 40.5t16 38.5t17 28.5t14.5 11.5q11 0 11 -32q0 -20 -9.5 -54.5t-9.5 -79.5q0 -36 6 -72.5t19.5 -66.5t35 -48.5t51.5 -18.5q24 0 34 18t18.5 50t21.5 75t43 93q17 29 43.5 64.5t56 66.5t59.5 52t55 21q22 0 38 -14t29.5 -35t26.5 -46
t29 -46t37 -35t50 -14q51 0 88.5 22.5t67.5 54t54 65t47 56.5q14 14 24 14q6 0 11.5 -5t16.5 -13q85 -65 195 -111t238 -75.5t271.5 -43.5t294.5 -14q180 0 365 18t364 51.5t347 80.5t312 105q35 14 71 27t70.5 23.5t64.5 16.5t53 6q34 0 48 -20.5t14 -49.5q0 -21 -6 -43
q-10 -39 -23.5 -65t-30.5 -47t-37 -40.5t-43.5 -43t-49.5 -55.5t-54 -78q-10 -16 -17 -22t-12 -6q-7 0 -9.5 6t-2.5 14t1.5 16.5t3.5 13.5q15 46 33 79t37 57.5t36.5 43t31.5 34.5t22.5 32t8.5 36q0 11 -19 11q-9 0 -21 -2.5t-23.5 -6t-21.5 -7t-16 -6.5q-145 -72 -326 -134
t-382.5 -107.5t-414.5 -71t-422 -25.5q-150 0 -293.5 14.5t-275 46t-247.5 80.5t-211 119z" />
    <glyph glyph-name="footnoteArabic" unicode="&#x602;" horiz-adv-x="1708" 
d="M664 -244q47 -3 102.5 -5t116.5 -2q58 0 127.5 1.5t140 4.5t136.5 7t118 9q35 3 73.5 6.5t75 6t68.5 4.5t53 2q11 0 22 -4t11 -21q0 -8 -3 -21q-3 -12 -14 -28t-25.5 -30.5t-31 -25.5t-32.5 -12q-99 -10 -209.5 -19.5t-223.5 -17t-224.5 -12t-213.5 -4.5
q-177 0 -317.5 16t-240.5 55q-82 32 -120.5 71t-44.5 67q-5 22 -6.5 44t-1.5 45q0 69 17.5 133.5t51 114.5t83 80.5t112.5 30.5q25 0 52 -6q63 -13 111 -42.5t83.5 -69t60.5 -87t42.5 -97.5t29 -100t21.5 -94zM565 -234q-9 57 -42 113.5t-80.5 102t-104 73.5t-110.5 28
q-45 0 -75 -17t-47.5 -39.5t-24.5 -44.5t-7 -31q0 -18 23 -38.5t61.5 -40.5t88.5 -38.5t104.5 -33t110 -24t103.5 -10.5z" />
    <glyph glyph-name="safha" unicode="&#x603;" horiz-adv-x="1929" 
d="M1308 -216q14 -2 40.5 -3.5t70.5 -1.5q85 0 172 20t178 59q35 16 48 26t13 14q0 15 -17 32t-42.5 31.5t-57 23.5t-59.5 9q-32 0 -62 -8.5t-58 -22.5t-53.5 -32t-47.5 -37q-22 -18 -52 -42t-73 -68zM1060 -260q-20 -33 -41.5 -55t-44 -36t-45.5 -21.5t-47 -11.5
q-13 -2 -49 -4.5t-81.5 -4.5t-93.5 -3t-85 -1q-54 0 -123 3t-135.5 9.5t-121 16.5t-78.5 24q-65 39 -89 69.5t-24 48.5q0 14 22 14q4 0 33 -2.5t74.5 -6t103 -8t118 -8t120 -6t109.5 -2.5q40 0 87 0.5t94.5 2t92 5.5t81 11t61 17.5t32.5 26.5q3 5 10 22t16.5 35t20.5 32.5
t21 14.5q13 0 20 -15.5t20 -36t36.5 -41t69.5 -31.5q52 66 101 114.5t92 86.5q81 73 150.5 111t139.5 38q33 0 69 -10t65.5 -29.5t48.5 -47t19 -61.5q0 -15 -5 -39t-17 -53.5t-32.5 -63t-50.5 -67.5q-32 -36 -85.5 -65t-116.5 -48.5t-130 -30t-125 -10.5q-52 0 -98 3t-78 13
q-15 -17 -27.5 -35t-23 -33t-19.5 -24.5t-17 -9.5q-10 0 -10 12q0 15 14 42.5t35 69.5q-32 18 -52 37.5t-31 41.5z" />
    <glyph glyph-name="uni0604" unicode="&#x604;" horiz-adv-x="1929" 
d="M1629 64q-35 -69 -80 -109t-105 -40q-36 0 -59.5 10.5t-40 25.5t-28 33.5t-23 33.5t-25 25.5t-33.5 10.5q-27 0 -51.5 -13.5t-42.5 -33t-28.5 -42.5t-10.5 -42q0 -15 13.5 -31t35 -31.5t47.5 -29.5t51 -25q16 -7 31 -16t26.5 -17.5t18.5 -15t8 -9.5q5 -15 5 -46
q0 -18 -5.5 -38t-13 -37.5t-16 -28.5t-14.5 -11h-3.5t-4.5 2q-70 43 -116.5 61t-75.5 18q-9 0 -25 -2.5t-33.5 -6.5t-33.5 -9.5t-26 -10.5q-57 -29 -172 -37.5t-275 -8.5q-60 0 -119.5 3t-113 10t-96.5 18.5t-70 27.5q-72 43 -98.5 73.5t-26.5 50.5q0 15 23 15q7 0 56.5 -6
t123 -13t161.5 -13t171 -6q76 0 134 0.5t103 2t79.5 5.5t63 11t54.5 17.5t53 26.5q-2 11 -4 25.5t-2 30.5q0 52 19 111.5t52.5 110.5t78.5 84.5t97 33.5q19 0 30.5 -10t21 -25t20 -33t26.5 -33t41.5 -25t64.5 -10q34 0 60 13t45.5 34t33.5 47.5t24 53.5q2 6 4 16t5 19t8 16
t12 7t10 -9t3 -35q0 -32 15 -55.5t37.5 -39t48.5 -23.5t47 -8q44 0 44 32q0 12 -4.5 23t-11.5 21.5t-14.5 19.5t-13.5 16q-2 1 -3 3t-1 4q0 5 7.5 29t17.5 51t20 48.5t15 21.5q9 0 18 -14t17 -37.5t13 -53t5 -59.5q0 -42 -11.5 -87t-33 -83t-52.5 -62.5t-71 -24.5
q-29 0 -52 10t-39.5 25.5t-26.5 34t-14 34.5z" />
    <glyph glyph-name="uni0605" unicode="&#x605;" horiz-adv-x="1329" 
d="M169 1549q22 26 35 34t32 8q14 0 34.5 -7.5t49.5 -19.5t67 -27.5t87 -32.5q44 -15 91 -25.5t92 -17t85 -9.5t72 -3q102 0 184 10t144.5 22.5t105 22.5t64.5 10q13 0 15 -3.5t2 -9.5q0 -4 -10 -14.5t-24 -23t-29 -24.5t-25 -19q-27 -19 -67 -33t-87 -25t-99 -18.5
t-103 -12t-97.5 -6.5t-83.5 -2q-85 0 -157.5 8.5t-138 25.5t-127 42t-123.5 59q-40 -41 -63 -70.5t-36 -48t-19.5 -27.5t-13.5 -9q-13 0 -18.5 6t-5.5 21q0 10 14.5 32.5t37.5 51.5t53 64t62 71z" />
    <glyph glyph-name="uni0606" unicode="&#x606;" horiz-adv-x="1027" 
d="M944 312q-17 10 -43 24q-22 12 -54.5 30t-75.5 43l-329 -721q-4 -8 -10 -11t-14 -3t-21 3.5t-25.5 9t-22.5 13t-11 16.5l-299 1751h86l263 -1525q64 140 108 241t74.5 170.5t49 112.5t29.5 66t18 31t14 8q14 0 25 -10q52 -37 83 -59.5t58 -41t58.5 -39.5l82.5 -55
q-2 -4 -5.5 -11.5t-9.5 -15.5t-13.5 -15.5t-15.5 -11.5zM537 1171q16 -45 27 -91.5t18 -90t10 -81.5t3 -66q0 -32 -4.5 -64t-12 -58t-17 -42.5t-19.5 -16.5q-6 0 -6 16q0 56 -3 97.5t-9.5 78.5t-16.5 75t-23 87q-17 56 -38.5 100.5t-41 79.5t-33 61.5t-13.5 46.5
q0 14 10.5 41t25.5 86q3 15 10 15q5 0 10.5 -5.5t10.5 -13t8.5 -14.5l5.5 -11q13 -29 26 -45.5t25 -25t24.5 -11t24.5 -2.5q53 0 81 28t48 92q7 22 19 22q13 0 13 -25q0 -34 16.5 -59.5t53.5 -25.5q29 0 57 23.5t41 83.5q2 5 5 7t5 2q6 0 11 -8.5t5 -23.5q0 -53 -14.5 -94.5
t-37 -70t-49 -43t-51.5 -14.5q-39 0 -58.5 11t-30.5 26q-14 -35 -44.5 -55t-71.5 -22z" />
    <glyph glyph-name="uni0607" unicode="&#x607;" horiz-adv-x="1027" 
d="M944 312q-17 10 -43 24q-22 12 -54.5 30t-75.5 43l-329 -721q-4 -8 -10 -11t-14 -3t-21 3.5t-25.5 9t-22.5 13t-11 16.5l-299 1751h86l263 -1525q64 140 108 241t74.5 170.5t49 112.5t29.5 66t18 31t14 8q14 0 25 -10q52 -37 83 -59.5t58 -41t58.5 -39.5l82.5 -55
q-2 -4 -5.5 -11.5t-9.5 -15.5t-13.5 -15.5t-15.5 -11.5zM778 799q-14 -21 -29.5 -41t-37 -35t-50 -24.5t-68.5 -9.5q-24 0 -47.5 7.5t-42.5 21t-30.5 33t-11.5 43.5q0 37 15.5 71.5t34.5 64.5t34.5 54.5t15.5 41.5q0 16 -10.5 22.5t-26.5 11t-34 8.5t-34 15.5t-26.5 32
t-10.5 57.5q0 27 15 59.5t38.5 64.5t52.5 61.5t56.5 52.5t51 36.5t35.5 13.5q11 0 11 -11q0 -22 -5.5 -34t-13.5 -32q-11 -31 -37.5 -50t-53.5 -33t-47.5 -25.5t-20.5 -27.5q0 -13 13 -21.5t32 -14.5t41.5 -12t41.5 -15.5t32 -24t13 -37.5q0 -36 -16.5 -68t-36.5 -60
t-36.5 -53t-16.5 -48q0 -35 23 -53.5t65 -18.5q25 0 45 4.5t35.5 10.5t27.5 10.5t21 4.5q11 0 11 -12q0 -7 -4 -17t-14 -24z" />
    <glyph glyph-name="uni0608" unicode="&#x608;" horiz-adv-x="1660" 
d="M533 196q-21 -54 -30.5 -92.5t-9.5 -80.5q0 -48 13.5 -89t46 -71.5t85.5 -47.5t133 -17q83 0 158 18.5t138.5 49.5t114 72t83.5 86q15 20 26 41.5t11 39.5q0 20 -3.5 44t-10 49t-15.5 50t-19 48q-37 -50 -77 -71.5t-96 -21.5q-38 0 -65.5 14t-44.5 35.5t-25 46.5t-8 47
q0 20 7 52t19.5 68t29.5 72.5t36.5 65.5t41.5 47.5t45 18.5q28 0 53.5 -15t48 -40.5t41.5 -60.5t34 -75q30 22 66 55.5t73.5 65t73.5 53.5t66 22q21 0 21 -18q0 -4 -2 -9.5t-4 -12.5l-44 -115q-8 -20 -22 -20q-22 -5 -48.5 -20t-53.5 -34t-51.5 -38.5t-42.5 -34.5
q9 -41 17 -89.5t8 -104.5q0 -69 -9.5 -135.5t-38.5 -113.5q-22 -35 -62.5 -85t-106.5 -96t-160.5 -78t-224.5 -32q-70 0 -127 20t-97 57.5t-61.5 92t-21.5 122.5q0 43 8.5 97.5t23.5 104.5q-32 -15 -68 -33.5t-79.5 -41t-96 -49.5t-116.5 -58q-3 -3 -9 -3t-6 8q0 3 4.5 12
t12 21t16 26t16.5 28q5 9 11.5 15t11.5 9q34 16 81 42t95.5 53t93 52t74.5 40q4 2 8.5 4t10.5 2q7 0 12 -4t5 -13q0 -8 -5.5 -18.5t-12.5 -28.5zM1209 404q-8 26 -22 49t-31.5 40t-37 27t-38.5 10q-12 0 -26.5 -8t-27 -22t-21 -32.5t-8.5 -39.5q0 -14 9.5 -29.5t24 -28
t32.5 -21t36 -8.5q13 0 29 7t31 17t28.5 20.5t21.5 18.5z" />
    <glyph glyph-name="uni0609" unicode="&#x609;" horiz-adv-x="1271" 
d="M1164 71q22 -13 22 -31q0 -10 -6 -19l-63 -127q-12 -23 -31 -23q-4 0 -9 2l-10 4l-133 68q-23 10 -23 29q0 9 6 21l63 126q11 22 30 22q11 0 21 -5zM864 71q22 -13 22 -31q0 -4 -1 -9t-4 -10l-63 -127q-12 -23 -31 -23q-4 0 -9 2l-10 4l-133 68q-24 10 -24 29q0 5 2 10
t5 11l63 126q11 22 30 22q11 0 20 -5zM352 1001q22 -13 22 -31q0 -4 -1 -9t-4 -10l-63 -127q-12 -23 -31 -23q-8 0 -20 7l-132 67q-24 10 -24 29q0 5 2 10t5 11l63 126q5 11 13 16.5t17 5.5q11 0 20 -5zM951 1367q-33 -78 -72.5 -169t-82.5 -189t-87.5 -200t-88.5 -202
t-85.5 -195t-78 -178.5t-66 -152.5t-49.5 -117q-30 -71 -46.5 -115t-24.5 -76.5t-10 -59t-2 -61.5q-28 -8 -50 -12.5t-40 -4.5q-34 0 -49.5 13.5t-15.5 36.5q0 12 4.5 31.5t18 57t37 97t61.5 152.5q30 74 73.5 175.5t95 218.5t108 244t112 251.5t107 241t93.5 213.5h138z
" />
    <glyph glyph-name="uni060A" unicode="&#x60a;" horiz-adv-x="1576" 
d="M1164 71q22 -13 22 -31q0 -10 -6 -19l-63 -127q-12 -23 -31 -23q-4 0 -9 2l-10 4l-133 68q-23 10 -23 29q0 9 6 21l63 126q11 22 30 22q11 0 21 -5zM864 71q22 -13 22 -31q0 -4 -1 -9t-4 -10l-63 -127q-12 -23 -31 -23q-4 0 -9 2l-10 4l-133 68q-24 10 -24 29q0 5 2 10
t5 11l63 126q11 22 30 22q11 0 20 -5zM352 1001q22 -13 22 -31q0 -4 -1 -9t-4 -10l-63 -127q-12 -23 -31 -23q-8 0 -20 7l-132 67q-24 10 -24 29q0 5 2 10t5 11l63 126q5 11 13 16.5t17 5.5q11 0 20 -5zM951 1367q-33 -78 -72.5 -169t-82.5 -189t-87.5 -200t-88.5 -202
t-85.5 -195t-78 -178.5t-66 -152.5t-49.5 -117q-30 -71 -46.5 -115t-24.5 -76.5t-10 -59t-2 -61.5q-28 -8 -50 -12.5t-40 -4.5q-34 0 -49.5 13.5t-15.5 36.5q0 12 4.5 31.5t18 57t37 97t61.5 152.5q30 74 73.5 175.5t95 218.5t108 244t112 251.5t107 241t93.5 213.5h138z
M1463 71q22 -13 22 -31q0 -9 -5 -19l-64 -127q-11 -23 -31 -23q-4 0 -9 2l-10 4l-133 68q-23 11 -23 29q0 5 2 10t4 11l64 126q5 11 13 16.5t16 5.5q11 0 21 -5z" />
    <glyph glyph-name="Afghani" unicode="&#x60b;" horiz-adv-x="1126" 
d="M597 1098q8 -13 23.5 -28.5t32.5 -29.5t34 -25.5t29 -15.5q4 -1 4 -6q0 -4 -5 -7q-5 -7 -20.5 -26t-32 -39t-31 -35.5t-18.5 -15.5q-11 0 -32 13t-42 30t-36.5 35t-15.5 29q0 4 4 9q9 15 24.5 34.5t31.5 37.5t28.5 30.5t16.5 12.5q3 0 5 -3zM976 438q-6 -15 -21 -28.5
t-36 -23t-47 -15.5t-53 -6q-65 0 -100.5 40.5t-35.5 104.5q0 49 17.5 99t42 90.5t51 66t44.5 25.5q35 0 64.5 -18.5t53.5 -48.5t42.5 -68t30.5 -78t18.5 -77.5t6.5 -66.5t-3.5 -61.5t-10 -64t-17 -60t-24.5 -49.5q-19 -28 -71 -65.5t-134 -71.5t-192.5 -57.5t-247.5 -23.5
q-89 0 -139 8.5t-75.5 24.5t-33 38t-11.5 48q-2 13 -4.5 26.5t-2.5 30.5q0 27 7.5 34t18.5 7t23 -13q11 -13 31 -22.5t43 -15.5t45 -9t37 -3q66 0 139.5 6.5t147 19t142.5 30.5t124.5 42t94.5 53.5t52 64.5q-1 26 -6.5 50t-10.5 37zM680 -85q6 0 21 -14t30.5 -32t29 -35
t17.5 -22q29 -42 50.5 -96t21.5 -118q0 -34 -1 -57t-2.5 -37.5t-3.5 -21t-3 -8.5q-14 -22 -22.5 -31.5t-13.5 -9.5t-6.5 11t-1.5 28q0 52 -5.5 88t-19.5 68.5t-38.5 66t-63.5 80.5q-10 13 -10 40q0 5 1.5 21t4 33.5t6.5 31.5t9 14zM931 558q-8 22 -21 40t-28.5 31t-32 20
t-30.5 7q-13 0 -25 -10t-21 -23.5t-14.5 -27.5t-5.5 -23q0 -15 7.5 -27.5t20 -21t28 -13.5t32.5 -5q16 0 32 4.5t29 11.5t21 16.5t8 20.5z" />
    <glyph glyph-name="Arabic.comma" unicode="&#x60c;" horiz-adv-x="546" 
d="M177 -11q-24 34 -34.5 74.5t-10.5 84.5q0 48 11.5 96t32.5 88q13 25 34 51.5t43.5 48.5t44 36t35.5 14q13 0 13 -13t-11.5 -31.5t-31.5 -35.5q-18 -15 -35 -37.5t-30 -49t-20.5 -55.5t-7.5 -58q0 -7 1 -19t3.5 -23.5t6.5 -20t9 -8.5q8 0 23 8.5t39 8.5q19 0 38.5 -7
t35.5 -20.5t26 -34t10 -48.5q0 -20 -8 -39.5t-22 -35.5t-33.5 -26t-43.5 -10q-75 0 -118 62z" />
    <glyph glyph-name="Arabic.date.separator" unicode="&#x60d;" horiz-adv-x="735" 
d="M629 491q8 4 15 4q18 0 18 -21q0 -12 -5 -37.5t-12.5 -52.5t-16.5 -49t-18 -28q-72 -47 -139 -103.5t-130 -119.5t-123 -130.5t-119 -134.5q-5 -6 -11.5 -8t-10.5 -2q-5 0 -6.5 7.5t-1.5 19.5q0 16 2.5 32t5.5 29t6 22t5 12q26 50 65 105.5t85.5 111t98 108.5t103 98.5
t100 81t89.5 55.5z" />
    <glyph glyph-name="Arabic.poetic.verse" unicode="&#x60e;" horiz-adv-x="1597" 
d="M595 -7q20 -2 59 -4t78 -2q109 0 220 10t214.5 29t194 45t158.5 58q5 3 15 7.5t18 4.5q14 0 14 -17q0 -22 -10 -42.5t-25 -38t-33 -31.5t-34 -21q-75 -35 -169 -61.5t-199 -44t-215.5 -26.5t-216.5 -9q-142 0 -262 15t-201 47q-56 21 -88 42.5t-48 43t-19.5 42.5t-3.5 42
q0 60 12.5 117t39.5 101.5t68.5 72t99.5 27.5q11 0 21.5 -1.5t21.5 -3.5q79 -17 130 -61t82.5 -101.5t48.5 -121t29 -118.5zM513 1q-7 48 -35 94.5t-68 83t-87 59.5t-92 23q-41 0 -66 -15t-38.5 -33.5t-18 -34.5t-4.5 -19q0 -15 18.5 -31.5t50 -33.5t72.5 -32t86.5 -28
t92.5 -21.5t89 -11.5z" />
    <glyph glyph-name="Arabic.misra" unicode="&#x60f;" horiz-adv-x="1187" 
d="M320 414q-42 18 -73.5 45.5t-52.5 59t-31.5 64.5t-10.5 63q0 55 19.5 109.5t51 97.5t72 69.5t82.5 26.5q48 0 83 -6.5t62 -18t49.5 -27t45.5 -32.5q19 -14 19 -29q0 -11 -9.5 -13t-14.5 -2t-16 4.5t-26 10t-32.5 10t-34.5 4.5q-49 0 -97 -12.5t-86 -31t-61.5 -40
t-23.5 -40.5q0 -17 18 -48.5t50.5 -62.5t78.5 -54t102 -23q20 0 28.5 2.5t16.5 6.5q19 9 46 22t56.5 27.5t59.5 29.5t56 26.5t46 19t29 7.5q17 0 17 -15q0 -16 -22.5 -43.5t-46.5 -61.5q-9 -12 -33.5 -25.5t-58.5 -28.5t-74.5 -32t-81.5 -36q-71 -34 -137 -83t-117 -113
t-81.5 -142.5t-30.5 -171.5q0 -68 28.5 -138.5t88.5 -130.5q39 99 96.5 193t129.5 166.5t156.5 116.5t177.5 44q69 0 121 -28t86.5 -73t51.5 -102t17 -116q0 -110 -39 -202t-108.5 -159t-165 -104t-207.5 -37q-89 0 -170 27t-143 76q-17 -38 -28.5 -81t-21 -80t-19.5 -61.5
t-23 -24.5q-8 0 -10.5 14t-2.5 47q0 60 15 120t35 114q-34 35 -59 80t-41 95t-24 103.5t-8 106.5q0 78 17 153t47.5 142.5t73 125t93.5 100.5zM328 -388q48 -38 121 -64t157 -26q61 0 117 15t105 40t89 57.5t68.5 68t44 71.5t15.5 67q0 46 -25.5 76.5t-63 49t-80.5 26
t-77 7.5q-92 0 -162.5 -32t-126 -85.5t-99.5 -123.5t-83 -147z" />
    <glyph glyph-name="s.wasallam" unicode="&#x610;" 
d="M-239 319q0 -24 -1 -54t-4.5 -56t-10.5 -43.5t-19 -17.5q-9 0 -15 16.5t-6 59.5q0 42 -9 73t-19.5 54.5t-19 40.5t-8.5 30q0 8 7.5 24.5t17 33t18 29t10.5 12.5q6 0 12 -11q11 -24 36.5 -42t54.5 -25q30 41 68.5 77.5t76.5 63.5t71 43t52 16q20 0 40 -5.5t36 -16.5
t26 -27t10 -38q0 -12 -3 -28t-8.5 -33t-14 -34.5t-19.5 -30.5q-23 -28 -59.5 -47.5t-77.5 -32t-82 -18.5t-74 -6q-20 0 -44.5 3.5t-41.5 11.5v-22zM-133 438q41 0 81.5 6.5t75 16.5t61 20t40.5 18q-3 6 -14.5 12.5t-26 12.5t-29.5 10t-25 4q-18 0 -38.5 -9t-42 -23.5
t-42.5 -32.5t-40 -35z" />
    <glyph glyph-name="a.salaam" unicode="&#x611;" 
d="M39 644q7 -6 14.5 -19t7.5 -21q0 -12 -13 -12q-9 0 -26.5 4t-37.5 4t-34.5 -4.5t-23.5 -11t-13 -13t-4 -10.5q0 -23 27.5 -49.5t73.5 -37.5q14 3 32.5 10t37 16t35.5 18.5t28 18.5q11 8 16 8t7.5 -6t2.5 -15q0 -14 -5.5 -28.5t-12.5 -27.5t-13.5 -21.5t-7.5 -9.5
q-55 -45 -128 -75t-155 -30q-12 0 -28.5 1t-26.5 4v-19q0 -26 -3 -55.5t-9 -55.5t-14.5 -43t-19.5 -17q-7 0 -13 17t-6 63q0 27 -7 56.5t-16.5 55.5t-19.5 45t-16 26q-4 7 -7 19t-3 24q0 11 4 19q4 6 10.5 21t13.5 30.5t14 27t11 11.5q5 0 12 -12q9 -29 23.5 -47t31 -29
t34 -16.5t32.5 -9.5q-11 8 -18.5 22t-7.5 39t10.5 55t29 56.5t45 44t58.5 17.5q16 0 34 -7.5t44 -30.5z" />
    <glyph glyph-name="rahima" unicode="&#x612;" 
d="M237 469q5 -22 5 -52q0 -39 -13.5 -83t-39 -81.5t-61.5 -62.5t-80 -25q-12 0 -34.5 3.5t-45 10t-39 15.5t-16.5 20q0 8 6.5 10t14.5 2q40 0 73.5 8t69.5 31q20 12 40 30t36 37.5t26.5 38.5t11.5 35q-3 18 -12 37t-24 36q-8 9 -12.5 17t-4.5 22q0 12 3 26t7 27t9 21.5
t8 8.5q8 0 19 -14.5t21.5 -35.5t19 -43.5t12.5 -38.5zM-333 206q-3 -30 -14.5 -47t-19.5 -17q-7 0 -7 17q0 51 12.5 95.5t33.5 81.5t50 65.5t62 48.5q-5 1 -15 1.5t-21.5 1t-21.5 1t-15 0.5q-23 0 -39 -2.5t-27.5 -6t-20 -6t-15.5 -2.5q-6 0 -6 8q0 7 3.5 19.5t8.5 25t10 23
t7 13.5q8 6 19.5 10.5t23.5 7t23.5 3.5t20.5 1q53 0 105 -10t110 -10q25 0 50.5 1.5t53.5 1.5q8 0 15 -2t7 -14q0 -10 -3.5 -23t-9 -24.5t-12 -19.5t-12.5 -8q-65 0 -116.5 -14.5t-90.5 -37.5t-67 -50.5t-46 -53.5t-26.5 -47t-9.5 -31z" />
    <glyph glyph-name="raziya" unicode="&#x613;" 
d="M231 474q2 -10 3.5 -24t1.5 -28q0 -39 -13.5 -83.5t-39 -82.5t-61 -63t-80.5 -25q-12 0 -35 4t-45 10.5t-38.5 15.5t-16.5 20q0 7 6.5 9t13.5 2q41 0 75 8t69 30q20 13 40 31t36 37.5t26.5 39t11.5 35.5q-3 38 -36 73q-17 17 -17 37q0 12 3 27t7 28t8.5 22t7.5 9
q9 0 20 -14.5t22 -35.5t19.5 -43.5t11.5 -38.5zM-235 674q-4 -9 -9 -20.5t-10.5 -21.5t-11 -16.5t-9.5 -6.5q-6 0 -17.5 5.5t-23 13t-20 13.5t-9.5 8q-1 3 -1 8q0 7 4.5 20.5t11 27t14 23.5t14.5 10q5 0 16.5 -5.5t23.5 -13.5t21 -16t9 -14q0 -3 -3 -15zM-331 333
q2 -8 4.5 -21.5t2.5 -30.5q0 -4 -2 -24.5t-6.5 -44t-12.5 -42.5t-20 -19q-8 0 -13 18t-5 64q0 33 -8.5 60.5t-18.5 49.5t-18.5 39t-8.5 28q0 8 7 24t16 32t16.5 28t9.5 12q8 0 12 -10q11 -25 36 -42t53 -23q29 39 66 74.5t74 61.5t68.5 41.5t49.5 15.5q20 0 39.5 -5.5
t34.5 -16t24.5 -26t9.5 -36.5q0 -12 -3 -27.5t-8.5 -32t-13 -33t-17.5 -29.5q-23 -26 -58.5 -45t-75 -31t-79.5 -18t-72 -6q-18 0 -42 3.5t-41 11.5zM-228 426q40 0 79 6.5t72.5 15.5t59 19t39.5 18q-4 4 -15 10.5t-24.5 11.5t-28 9t-25.5 4q-18 0 -37.5 -8t-40 -21.5
t-41 -30.5t-38.5 -34z" />
    <glyph glyph-name="arabic.takhallus" unicode="&#x614;" 
d="M203 226q-6 -42 -26.5 -67.5t-46.5 -25.5q-12 0 -27.5 4.5t-30 12t-27 18t-18.5 23.5q-6 -11 -15 -22t-24 -21q-19 -14 -49.5 -17t-76.5 -3q-51 0 -96.5 3t-71.5 10q-6 1 -17.5 6t-24.5 12.5t-25 16t-19 16.5q-4 4 -4 7q0 7 14 7q15 -2 37.5 -3.5t50.5 -2t58.5 -1
t60.5 -0.5q27 0 53 0.5t47 2t35.5 4t20.5 7.5q17 11 26.5 23t22.5 35q6 12 15 12t12 -19q3 -14 14 -25.5t28 -21.5q7 -3 22.5 -8t26.5 -5q8 0 10.5 3.5t2.5 13.5q0 23 -2.5 32.5t-2.5 14.5q0 7 4 15t9.5 15t10 11.5t6.5 5.5q2 2 3 2h2q6 0 10.5 -13.5t4.5 -37.5
q0 -18 -3 -40z" />
    <glyph glyph-name="tah.small" unicode="&#x615;" 
d="M12 506q1 -2 1 -4q0 -4 -2 -11t-5 -14.5l-6 -15t-4 -11.5q1 -17 3.5 -29.5t4.5 -23.5t3.5 -23.5t1.5 -30.5q0 -27 -4 -44q16 15 36 28.5t39 24t35 16.5t26 6q12 0 25 -6.5t23.5 -17.5t17.5 -25t7 -28q0 -15 -9 -39.5t-24 -44.5q-18 -22 -53 -38t-76 -26t-82 -15t-71 -5
q-5 0 -9.5 0.5t-6.5 0.5q-9 0 -27.5 7.5t-37 18.5t-32 24t-13.5 25q0 5 6 5q15 0 29.5 -1t28.5 -1q20 0 39 1t39 4q11 11 25 27.5t26 30.5q0 46 -7.5 82t-17 62.5t-17 44.5t-7.5 29q0 4 4.5 19.5t12 32t17.5 29.5t22 13q2 0 6 -5t4 -16q0 -17 8.5 -29.5t20.5 -26.5zM-28 217
q135 11 185 44q-5 18 -19.5 30.5t-29.5 12.5q-14 0 -32 -8.5t-37 -21t-37 -28t-30 -29.5z" />
    <glyph glyph-name="uni0616" unicode="&#x616;" 
d="M-169 490q0 -42 -2 -65.5t-5.5 -37.5t-9.5 -24.5t-15 -25.5q-12 -20 -36 -35t-49.5 -28t-47 -26t-28.5 -30q7 -4 23 -6t38 -2q46 0 114.5 6t146.5 14t157.5 15.5t148.5 9.5q13 0 13 -11q0 -8 -7 -20t-17.5 -23t-23 -19t-22.5 -8q-11 0 -47 -3t-85 -7.5t-104.5 -10
t-106 -10t-90 -7.5t-55.5 -3q-12 0 -24 -0.5t-25 -0.5q-20 0 -38 1.5t-32 7.5t-22 17t-8 30q0 39 15 67t37.5 47.5t49 33t49.5 24t38.5 20t16.5 22.5q-3 54 -6 102q-1 20 -2 41t-1.5 39.5t-1 33.5t-0.5 24t4 24.5t10 29.5t13.5 24.5t14.5 10.5q6 0 8 -4.5t4 -15.5
q1 -24 2.5 -52.5t3 -57.5t3 -57.5t1.5 -53.5zM3 717q8 -85 11.5 -148t3.5 -106q0 -51 -6.5 -85.5t-14.5 -55t-15.5 -29t-9.5 -8.5q-7 0 -7 14q0 9 0.5 18t0.5 21q0 47 -4.5 122.5t-15.5 181.5q-1 5 -1 8.5v7.5q0 11 3 17l20 40q5 11 10 18t10 7t9 -7t6 -16z" />
    <glyph glyph-name="uni0617" unicode="&#x617;" 
d="M135 428q3 -8 4.5 -22t1.5 -28q0 -38 -13.5 -81.5t-38.5 -81t-60.5 -62t-78.5 -24.5q-12 0 -34.5 4t-44.5 10.5t-38 15.5t-16 19q0 8 6 10t14 2q39 0 72.5 8.5t68.5 29.5q19 12 39 29.5t36.5 36.5t27 38.5t11.5 35.5q-2 19 -12 37t-25 35q-7 7 -12.5 16t-5.5 20
q0 12 3 27t7.5 27.5t9 21.5t6.5 9q9 0 20 -14.5t22 -35.5t19 -44t11 -39zM67 730q-3 -9 -8 -19.5t-10.5 -20.5t-11.5 -16.5t-10 -6.5q-6 0 -16.5 5.5t-21.5 12.5t-20 13.5t-10 8.5q-2 2 -2 3v2q0 7 4.5 20.5t11 27t14 23.5t14.5 10q5 0 16.5 -5.5t23 -13t20.5 -15.5t9 -13
q0 -3 -0.5 -6.5t-2.5 -9.5z" />
    <glyph glyph-name="uni0618" unicode="&#x618;" 
d="M115 175q2 0 3 1t2 1q3 0 3 -5q-2 -22 -11 -40t-20 -24l-208 -96l-4 -2h-1q-3 0 -3 5q1 11 5.5 25.5t10.5 21.5q4 6 12.5 11t24.5 13z" />
    <glyph glyph-name="uni0619" unicode="&#x619;" 
d="M129 227q23 -14 23 -26q0 -7 -3 -15.5t-7.5 -16t-9.5 -13t-8 -5.5q-4 0 -8.5 5t-17.5 13q-11 -16 -24 -34t-30 -35.5t-38 -32.5t-46 -26q-19 -8 -39.5 -14t-43.5 -6t-23 7q0 6 8 10l24 12q18 10 42 26.5t48.5 35.5t46 39t34.5 36q-8 4 -20.5 10.5t-24.5 16.5t-20.5 23
t-8.5 29q0 19 11.5 41t29.5 41t40 31.5t43 12.5q26 0 35 -20.5t9 -49.5q0 -28 -6 -54.5t-16 -40.5zM94 239q6 5 11.5 22t5.5 33q0 21 -11.5 34t-24.5 13q-7 0 -16 -5t-17 -12.5t-13.5 -15.5t-5.5 -15t6.5 -15t17 -15.5t23 -13.5t24.5 -10z" />
    <glyph glyph-name="uni061A" unicode="&#x61a;" 
d="M115 -2q2 0 3 1t2 1q3 0 3 -5q-2 -22 -11 -40t-20 -24l-208 -96l-4 -2h-1q-3 0 -3 5q1 11 5.5 25.5t10.5 21.5q4 6 12.5 11t24.5 13z" />
    <glyph glyph-name="Arabic.semicolon" unicode="&#x61b;" horiz-adv-x="555" 
d="M191 228q-24 34 -34.5 74.5t-10.5 84.5q0 48 11.5 95t32.5 87q13 25 34 52t43.5 49t44 36.5t35.5 14.5q13 0 13 -13t-11.5 -31.5t-31.5 -35.5q-18 -15 -35 -37.5t-30 -49t-20.5 -55.5t-7.5 -58q0 -7 1 -19t3.5 -23.5t6.5 -20t9 -8.5q8 0 23 8.5t39 8.5q19 0 38.5 -7
t35.5 -20.5t26 -34t10 -48.5q0 -20 -8 -39.5t-22 -35.5t-33.5 -26t-43.5 -10q-75 0 -118 62zM189 -86q0 24 9 44.5t24 35.5t35.5 24t44.5 9t44.5 -9t35.5 -24t24 -35.5t9 -44.5t-9 -44.5t-24 -35.5t-35.5 -24t-44.5 -9t-44.5 9t-35.5 24t-24 35.5t-9 44.5z" />
    <glyph glyph-name="uni061E" unicode="&#x61e;" horiz-adv-x="639" 
d="M298 538q9 -14 25 -30t34 -31t36 -27t30 -16q4 -1 4 -6q0 -3 -5 -8q-6 -7 -22 -27t-33.5 -41t-32.5 -37t-19 -16q-12 0 -34 13.5t-43.5 31.5t-38 37t-16.5 30q0 4 4 9q10 15 26 36t32.5 40t30 32t17.5 13q3 0 5 -3zM310 102q-11 -14 -25 -31.5t-28 -33t-24.5 -26.5
t-13.5 -11q-12 0 -34 13.5t-43.5 31.5t-38 37t-16.5 30q0 4 4 9q10 15 26 36t32.5 40t30 32t17.5 13q3 0 5 -3q7 -12 21 -26.5t29.5 -28t32 -25t29.5 -18.5q11 16 26.5 35t30.5 35.5t26.5 27.5t15.5 11q3 0 5 -3q9 -14 25 -30t34 -31t36 -27t30 -16q4 -1 4 -6q0 -3 -5 -8
q-6 -7 -22 -27t-33.5 -41t-32.5 -37t-19 -16q-10 0 -27.5 9.5t-36 24t-35.5 30.5t-26 30z" />
    <glyph glyph-name="Arabic.questionmark" unicode="&#x61f;" horiz-adv-x="671" 
d="M596 651q0 -19 -6.5 -38t-18.5 -34.5t-30 -25t-40 -9.5q-19 0 -36 7.5t-29.5 20t-20 29.5t-7.5 35q0 40 27 67t66 27q12 0 27 -5q-12 25 -30 42.5t-38.5 28.5t-42 16.5t-40.5 5.5q-31 0 -60 -10.5t-51 -30t-35 -46.5t-13 -60q0 -30 14 -62t34.5 -68.5t44.5 -78.5
t44.5 -91.5t34.5 -108t14 -126.5q0 -33 -1.5 -50.5t-7.5 -38.5q-4 -14 -7.5 -16.5t-13.5 -2.5q-14 0 -19 5.5t-5 15.5q0 5 1 14.5l2 19t2 18t1 11.5q0 39 -7.5 63.5t-22 43.5t-35.5 36t-47 41q-34 31 -64.5 60.5t-53 63.5t-35.5 74.5t-13 92.5q0 58 23.5 108.5t63 88.5
t91.5 60t109 22q46 0 88 -17.5t74 -47t50.5 -68.5t18.5 -82zM257 -143q0 21 8 40t22 33t33 22t40 8t40 -8t33 -22t22 -33t8 -40t-8 -40t-22 -33t-33 -22t-40 -8t-40 8t-33 22t-22 33t-8 40z" />
    <glyph glyph-name="uni0620" unicode="&#x620;" horiz-adv-x="1275" 
d="M1064 173q34 -14 49 -48.5t15 -71.5q0 -19 -1.5 -40t-7.5 -42t-17 -42.5t-30 -41.5q-54 -57 -128 -105t-157 -82t-168.5 -53t-162.5 -19q-95 0 -168 28.5t-122.5 79t-75 118.5t-25.5 147q0 70 16 133.5t37 114.5t41 85t28 45q14 17 23.5 22.5t15.5 5.5q10 0 10 -14
q0 -5 -6.5 -17.5t-14.5 -26.5q-17 -26 -31.5 -59t-25.5 -68t-17.5 -69t-6.5 -62q0 -67 28 -123.5t77 -97.5t116 -64t145 -23q71 0 140 14.5t130.5 37.5t113 50.5t89 53.5t58.5 46.5t21 30.5q0 21 -29.5 31t-74 16t-96.5 10.5t-96.5 15t-74 30t-29.5 54.5q0 71 24.5 136.5
t64.5 123t92 104.5t106 81t106.5 52.5t94.5 18.5q37 0 59.5 -19.5t22.5 -55.5q0 -14 -4 -34t-10.5 -39.5t-14 -33t-14.5 -13.5q-12 0 -17 6.5t-11 14.5t-16.5 14.5t-32.5 6.5q-37 0 -79.5 -14t-84 -37t-80 -51.5t-68 -57.5t-47 -56.5t-17.5 -46.5q0 -7 3 -13
q10 -21 36 -34.5t59.5 -21.5t70.5 -12t71 -6.5t60 -5t38 -7.5zM661 -653q0 -14 -1 -33t-3 -37.5t-6.5 -34.5t-11.5 -25q-23 -34 -55 -56t-83 -22q-45 0 -72 29.5t-27 72.5t11.5 86.5t28.5 78.5t36.5 57.5t34.5 22.5q14 0 39 -9t49 -26.5t42 -43.5t18 -60zM629 -693
q-7 18 -21.5 34.5t-33 29.5t-39.5 21.5t-41 10.5q-12 -9 -20 -23t-12.5 -30t-6 -32t-1.5 -28q0 -21 16.5 -41.5t48.5 -20.5q16 0 35 8t35.5 19.5t28 25.5t11.5 26z" />
    <glyph glyph-name="hamza" unicode="&#x621;" horiz-adv-x="695" 
d="M256 15q0 2 -5 4q-39 8 -63 22t-37.5 31t-18.5 35t-5 33q0 45 15 85.5t39 75t55 61.5t63 46t61.5 29.5t52.5 10.5q9 0 20 -3t20.5 -9.5t16 -18t6.5 -28.5q0 -5 -3.5 -27t-12 -46t-21 -43.5t-30.5 -19.5q-9 0 -13 8.5t-11 19t-20.5 19.5t-40.5 9t-49 -12t-37 -27.5
t-23.5 -31t-8.5 -21.5q0 -9 16 -23t43.5 -27t64.5 -22.5t79 -9.5q17 0 31.5 2t19.5 4q30 12 55 25.5t44 25t32 18.5t19 7q11 0 11 -22q0 -10 -5 -24.5t-12 -28.5t-16.5 -26t-18.5 -17q-35 -19 -86 -47.5t-107.5 -61.5t-114 -69t-104.5 -69q-2 -1 -6.5 -4.5t-10.5 -7
t-12.5 -6t-10.5 -2.5q-8 0 -8 9q0 14 12.5 36t33 46t46.5 47.5t53 41.5q2 2 2 3z" />
    <glyph glyph-name="alefmadda" unicode="&#x622;" horiz-adv-x="450" 
d="M254 89q-1 74 -7 163.5t-14.5 181.5t-17.5 181t-17 162t-13.5 123.5t-5.5 66.5q0 26 9 63.5t21.5 72t26.5 58.5t24 24q7 0 9 -9.5t2 -33.5q0 -56 3.5 -105.5t9 -102t11.5 -113.5t11.5 -141.5t9 -185.5t3.5 -244q0 -42 -5.5 -81t-13.5 -69.5t-17.5 -48.5t-17.5 -18
q-5 0 -7.5 12t-3.5 44zM490 1477q5 6 11.5 11t12.5 5q10 0 10 -19q0 -27 -16 -59.5t-44.5 -61t-68.5 -47.5t-88 -19q-23 0 -41.5 3.5t-35.5 8t-34 8.5t-38 4q-31 0 -52 -7t-36 -17t-24 -21.5t-16 -20.5q-13 -19 -26 -19q-14 0 -14 19q0 23 15.5 55.5t43.5 62.5t67 51t85 21
q19 0 37.5 -4t38.5 -8.5t42 -8.5t48 -4t45 5.5t33 14.5t25 21t20 26z" />
    <glyph glyph-name="alefhamza" unicode="&#x623;" horiz-adv-x="425" 
d="M254 89q-1 74 -7 163.5t-14.5 181.5t-17.5 181t-17 162t-13.5 123.5t-5.5 66.5q0 26 9 63.5t21.5 72t26.5 58.5t24 24q7 0 9 -9.5t2 -33.5q0 -56 3.5 -105.5t9 -102t11.5 -113.5t11.5 -141.5t9 -185.5t3.5 -244q0 -42 -5.5 -81t-13.5 -69.5t-17.5 -48.5t-17.5 -18
q-5 0 -7.5 12t-3.5 44zM111 1474q0 -9 12 -21.5t32 -24t46 -19t55 -7.5q8 0 16.5 0.5t10.5 1.5q57 24 84 37t35 13q12 0 12 -14q0 -10 -5.5 -25.5t-13.5 -30.5t-16.5 -27t-15.5 -15q-88 -39 -147.5 -67t-97 -47t-57.5 -28t-28 -9q-9 0 -9 14q0 8 2.5 16.5t4.5 13.5
q6 14 24 33t56 44q1 1 1 3t-2 3q-37 14 -51 38t-14 64q0 33 19 70t50.5 68t70.5 51.5t80 20.5q23 0 39.5 -9.5t16.5 -38.5q0 -9 -4 -26.5t-11.5 -35t-18 -30t-23.5 -12.5q-10 0 -13 6.5t-7.5 15t-14.5 15t-33 6.5q-10 0 -23 -3.5t-25 -9.5t-22 -15t-15 -19z" />
    <glyph glyph-name="wawhamza" unicode="&#x624;" horiz-adv-x="851" 
d="M731 -34q0 12 -3 26.5t-7 27t-8 21.5t-5 12q-13 -23 -33 -36.5t-42 -20.5t-42 -9t-32 -2q-39 0 -65 13t-42.5 35t-23.5 50.5t-7 58.5q0 21 7 50t19 60t28 61.5t33.5 54.5t35.5 39t35 15q42 0 80 -34t67.5 -89.5t47 -126.5t17.5 -144q0 -48 -6.5 -93.5t-22.5 -94.5
q-16 -51 -43 -104t-65 -103t-87.5 -96t-109.5 -82q-23 -14 -53 -16.5t-69 -2.5q-42 0 -92 7t-93.5 17.5t-73 22.5t-29.5 21q0 8 14 10t31 2q47 0 88.5 2.5t80.5 11t78 25t82 43.5q31 20 65.5 47.5t69 60t65.5 67.5t55.5 69t39 66t15.5 58zM665 187q-8 16 -21.5 33.5t-30 32
t-35.5 23.5t-38 9q-11 -6 -21 -18t-18 -25.5t-13 -26t-5 -18.5q0 -29 20 -51.5t61 -22.5q24 0 41 6.5t29 16t19 21t12 20.5zM481 744q0 -9 12 -21.5t32 -24t46 -19t55 -7.5q8 0 16.5 0.5t10.5 1.5q57 24 84 37t35 13q12 0 12 -14q0 -10 -5.5 -25.5t-13.5 -30.5t-16.5 -27
t-15.5 -15q-88 -39 -147.5 -67t-97 -47t-57.5 -28t-28 -9q-9 0 -9 14q0 8 2.5 16.5t4.5 13.5q6 14 24 33t56 44q1 1 1 3t-2 3q-37 14 -51 38t-14 64q0 33 19 70t50.5 68t70.5 51.5t80 20.5q23 0 39.5 -9.5t16.5 -38.5q0 -9 -4 -26.5t-11.5 -35t-18 -30t-23.5 -12.5
q-10 0 -13 6.5t-7.5 15t-14.5 15t-33 6.5q-10 0 -23 -3.5t-25 -9.5t-22 -15t-15 -19z" />
    <glyph glyph-name="alefhamzabelow" unicode="&#x625;" horiz-adv-x="425" 
d="M254 89q-1 74 -7 163.5t-14.5 181.5t-17.5 181t-17 162t-13.5 123.5t-5.5 66.5q0 26 9 63.5t21.5 72t26.5 58.5t24 24q7 0 9 -9.5t2 -33.5q0 -56 3.5 -105.5t9 -102t11.5 -113.5t11.5 -141.5t9 -185.5t3.5 -244q0 -42 -5.5 -81t-13.5 -69.5t-17.5 -48.5t-17.5 -18
q-5 0 -7.5 12t-3.5 44zM163 -201q0 -9 12 -21.5t32 -24t46 -19t55 -7.5q8 0 16.5 0.5t10.5 1.5q57 24 84 37t35 13q12 0 12 -14q0 -10 -5.5 -25.5t-13.5 -30.5t-16.5 -27t-15.5 -15q-88 -39 -147.5 -67t-97 -47t-57.5 -28t-28 -9q-9 0 -9 14q0 8 2.5 16.5t4.5 13.5
q6 14 24 33t56 44q1 1 1 3t-2 3q-37 14 -51 38t-14 64q0 33 19 70t50.5 68t70.5 51.5t80 20.5q23 0 39.5 -9.5t16.5 -38.5q0 -9 -4 -26.5t-11.5 -35t-18 -30t-23.5 -12.5q-10 0 -13 6.5t-7.5 15t-14.5 15t-33 6.5q-10 0 -23 -3.5t-25 -9.5t-22 -15t-15 -19z" />
    <glyph glyph-name="yehhamza" unicode="&#x626;" horiz-adv-x="1275" 
d="M1064 173q34 -14 49 -48.5t15 -71.5q0 -19 -1.5 -40t-7.5 -42t-17 -42.5t-30 -41.5q-54 -57 -128 -105t-157 -82t-168.5 -53t-162.5 -19q-95 0 -168 28.5t-122.5 79t-75 118.5t-25.5 147q0 70 16 133.5t37 114.5t41 85t28 45q14 17 23.5 22.5t15.5 5.5q10 0 10 -14
q0 -5 -6.5 -17.5t-14.5 -26.5q-17 -26 -31.5 -59t-25.5 -68t-17.5 -69t-6.5 -62q0 -67 28 -123.5t77 -97.5t116 -64t145 -23q71 0 140 14.5t130.5 37.5t113 50.5t89 53.5t58.5 46.5t21 30.5q0 21 -29.5 31t-74 16t-96.5 10.5t-96.5 15t-74 30t-29.5 54.5q0 71 24.5 136.5
t64.5 123t92 104.5t106 81t106.5 52.5t94.5 18.5q37 0 59.5 -19.5t22.5 -55.5q0 -14 -4 -34t-10.5 -39.5t-14 -33t-14.5 -13.5q-12 0 -17 6.5t-11 14.5t-16.5 14.5t-32.5 6.5q-37 0 -79.5 -14t-84 -37t-80 -51.5t-68 -57.5t-47 -56.5t-17.5 -46.5q0 -7 3 -13
q10 -21 36 -34.5t59.5 -21.5t70.5 -12t71 -6.5t60 -5t38 -7.5zM449 742q0 -9 12 -21.5t32 -24t46 -19t55 -7.5q8 0 16.5 0.5t10.5 1.5q57 24 84 37t35 13q12 0 12 -14q0 -10 -5.5 -25.5t-13.5 -30.5t-16.5 -27t-15.5 -15q-88 -39 -147.5 -67t-97 -47t-57.5 -28t-28 -9
q-9 0 -9 14q0 8 2.5 16.5t4.5 13.5q6 14 24 33t56 44q1 1 1 3t-2 3q-37 14 -51 38t-14 64q0 33 19 70t50.5 68t70.5 51.5t80 20.5q23 0 39.5 -9.5t16.5 -38.5q0 -9 -4 -26.5t-11.5 -35t-18 -30t-23.5 -12.5q-10 0 -13 6.5t-7.5 15t-14.5 15t-33 6.5q-10 0 -23 -3.5t-25 -9.5
t-22 -15t-15 -19z" />
    <glyph glyph-name="alef" unicode="&#x627;" horiz-adv-x="425" 
d="M254 89q-1 74 -7 163.5t-14.5 181.5t-17.5 181t-17 162t-13.5 123.5t-5.5 66.5q0 26 9 63.5t21.5 72t26.5 58.5t24 24q7 0 9 -9.5t2 -33.5q0 -56 3.5 -105.5t9 -102t11.5 -113.5t11.5 -141.5t9 -185.5t3.5 -244q0 -42 -5.5 -81t-13.5 -69.5t-17.5 -48.5t-17.5 -18
q-5 0 -7.5 12t-3.5 44z" />
    <glyph glyph-name="uni.beh" unicode="&#x628;" horiz-adv-x="1650" 
d="M1565 389q0 -24 -3.5 -53.5t-9.5 -58.5t-14.5 -54t-18.5 -40q-13 -18 -49 -39t-91 -42t-127 -40t-157 -34t-181 -24t-198 -9q-149 0 -254 12.5t-175 34.5t-110.5 50t-61 60t-26 64.5t-5.5 62.5q0 43 13 87.5t31 81t37.5 60t31.5 23.5t12 -19q0 -13 -6.5 -27.5t-14 -33.5
t-14 -43t-6.5 -56q0 -42 32.5 -79t100.5 -64.5t174.5 -43.5t254.5 -16q82 0 171.5 7t175.5 19t163 28.5t135 35t92.5 38.5t34.5 40q0 30 -14 60t-30.5 56.5t-30 48.5t-13.5 37q0 2 3 19.5t9 38t15 37.5t21 17q10 0 27 -24t34 -60t29.5 -78.5t12.5 -79.5zM853 -189
q8 -13 23.5 -28.5t32.5 -29.5t34 -25.5t29 -15.5q4 -1 4 -6q0 -4 -5 -7q-5 -7 -20.5 -26t-32 -39t-31 -35.5t-18.5 -15.5q-11 0 -32 13t-42 30t-36.5 35t-15.5 29q0 4 4 9q9 15 24.5 34.5t31.5 37.5t28.5 30.5t16.5 12.5q3 0 5 -3z" />
    <glyph glyph-name="tehmarbuta" unicode="&#x629;" horiz-adv-x="559" 
d="M484 259q0 -23 -4 -48.5t-12 -51t-19 -49.5t-25 -43q-10 -15 -29 -28t-44 -23.5t-55 -16.5t-62 -6q-39 0 -69 13t-51 34.5t-31.5 49.5t-10.5 59q0 30 10.5 69.5t28 82t39 83t44 73t43.5 52t36 19.5q22 0 58 -18t70 -52.5t58.5 -84.5t24.5 -114zM414 220q-7 23 -25.5 49
t-43.5 47.5t-54.5 36t-57.5 14.5q-20 -10 -37 -28t-29.5 -38t-19.5 -40t-7 -35q0 -11 8.5 -25t23.5 -26t34.5 -20.5t42.5 -8.5q29 0 58.5 6t52.5 16.5t38 24t16 27.5zM273 813q-10 -13 -24 -29.5t-27 -31.5t-23 -25.5t-12 -10.5q-12 0 -33 13t-42 30t-36.5 35t-15.5 29
q0 4 4 9q9 15 24.5 34.5t31 37.5t28.5 30.5t17 12.5q3 0 5 -3q7 -11 20 -24.5t28 -27t30.5 -24.5t28.5 -18q10 15 25 33t29 34t25.5 26.5t14.5 10.5t5 -2q8 -13 23.5 -28.5t32.5 -30t34 -26t29 -15.5q4 -1 4 -6q0 -2 -5 -7q-5 -7 -20.5 -25.5t-32 -38.5t-31 -35.5
t-18.5 -15.5q-9 0 -25.5 9t-34.5 22.5t-34 29t-25 28.5z" />
    <glyph glyph-name="teh" unicode="&#x62a;" horiz-adv-x="1650" 
d="M1565 389q0 -24 -3.5 -53.5t-9.5 -58.5t-14.5 -54t-18.5 -40q-13 -18 -49 -39t-91 -42t-127 -40t-157 -34t-181 -24t-198 -9q-149 0 -254 12.5t-175 34.5t-110.5 50t-61 60t-26 64.5t-5.5 62.5q0 43 13 87.5t31 81t37.5 60t31.5 23.5t12 -19q0 -13 -6.5 -27.5t-14 -33.5
t-14 -43t-6.5 -56q0 -42 32.5 -79t100.5 -64.5t174.5 -43.5t254.5 -16q82 0 171.5 7t175.5 19t163 28.5t135 35t92.5 38.5t34.5 40q0 30 -14 60t-30.5 56.5t-30 48.5t-13.5 37q0 2 3 19.5t9 38t15 37.5t21 17q10 0 27 -24t34 -60t29.5 -78.5t12.5 -79.5zM853 723
q-10 -13 -24 -29.5t-27 -31.5t-23 -25.5t-12 -10.5q-12 0 -33 13t-42 30t-36.5 35t-15.5 29q0 4 4 9q9 15 24.5 34.5t31 37.5t28.5 30.5t17 12.5q3 0 5 -3q7 -11 20 -24.5t28 -27t30.5 -24.5t28.5 -18q10 15 25 33t29 34t25.5 26.5t14.5 10.5t5 -2q8 -13 23.5 -28.5
t32.5 -30t34 -26t29 -15.5q4 -1 4 -6q0 -2 -5 -7q-5 -7 -20.5 -25.5t-32 -38.5t-31 -35.5t-18.5 -15.5q-9 0 -25.5 9t-34.5 22.5t-34 29t-25 28.5z" />
    <glyph glyph-name="theh" unicode="&#x62b;" horiz-adv-x="1650" 
d="M1565 389q0 -24 -3.5 -53.5t-9.5 -58.5t-14.5 -54t-18.5 -40q-13 -18 -49 -39t-91 -42t-127 -40t-157 -34t-181 -24t-198 -9q-149 0 -254 12.5t-175 34.5t-110.5 50t-61 60t-26 64.5t-5.5 62.5q0 43 13 87.5t31 81t37.5 60t31.5 23.5t12 -19q0 -13 -6.5 -27.5t-14 -33.5
t-14 -43t-6.5 -56q0 -42 32.5 -79t100.5 -64.5t174.5 -43.5t254.5 -16q82 0 171.5 7t175.5 19t163 28.5t135 35t92.5 38.5t34.5 40q0 30 -14 60t-30.5 56.5t-30 48.5t-13.5 37q0 2 3 19.5t9 38t15 37.5t21 17q10 0 27 -24t34 -60t29.5 -78.5t12.5 -79.5zM853 723
q-10 -13 -24 -29.5t-27 -31.5t-23 -25.5t-12 -10.5q-12 0 -33 13t-42 30t-36.5 35t-15.5 29q0 4 4 9q9 15 24.5 34.5t31 37.5t28.5 30.5t17 12.5q3 0 5 -3q7 -11 20 -24.5t28 -27t30.5 -24.5t28.5 -18q10 15 25 33t29 34t25.5 26.5t14.5 10.5t5 -2q8 -13 23.5 -28.5
t32.5 -30t34 -26t29 -15.5q4 -1 4 -6q0 -2 -5 -7q-5 -7 -20.5 -25.5t-32 -38.5t-31 -35.5t-18.5 -15.5q-9 0 -25.5 9t-34.5 22.5t-34 29t-25 28.5zM841 1151q8 -13 23.5 -28.5t32.5 -29.5t34 -25.5t29 -15.5q4 -1 4 -6q0 -4 -5 -7q-5 -7 -20.5 -26t-32 -39t-31 -35.5
t-18.5 -15.5q-11 0 -32 13t-42 30t-36.5 35t-15.5 29q0 4 4 9q9 15 24.5 34.5t31.5 37.5t28.5 30.5t16.5 12.5q3 0 5 -3z" />
    <glyph glyph-name="jeem" unicode="&#x62c;" horiz-adv-x="1157" 
d="M498 349q-20 4 -44 8.5t-49 8t-49.5 6t-45.5 2.5q-53 0 -93.5 -7t-70.5 -15t-48.5 -15t-26.5 -7q-3 0 -4 3t-1 6q0 4 7 24.5t16.5 45.5t19.5 47.5t16 30.5q14 15 39.5 24t54 13.5t56 6t45.5 1.5q26 0 75 -6.5t111.5 -15t132.5 -15t138 -6.5q29 0 65 1t73 1.5t73 1.5t66 1
q13 0 18.5 -2t5.5 -15q0 -11 -7.5 -33.5t-18.5 -45t-24 -40t-25 -17.5t-24.5 0.5t-24.5 0.5q-122 0 -231.5 -23t-201.5 -64.5t-166 -98t-126 -124.5t-79.5 -144.5t-27.5 -156.5q0 -88 28 -156t77 -119t116 -85.5t144.5 -56t163 -31t172.5 -9.5q73 0 134.5 3.5t109.5 8
t81.5 8.5t51.5 4q12 0 20 -1.5t8 -9.5q0 -6 -18.5 -20.5t-52 -33t-81.5 -38.5t-107 -36.5t-128 -27t-145 -10.5q-142 0 -260 34.5t-203 99t-132.5 157t-47.5 208.5q0 113 29.5 223.5t86.5 207t140 174t189 124.5zM675 -85q8 -13 23.5 -28.5t32.5 -29.5t34 -25.5t29 -15.5
q4 -1 4 -6q0 -4 -5 -7q-5 -7 -20.5 -26t-32 -39t-31 -35.5t-18.5 -15.5q-11 0 -32 13t-42 30t-36.5 35t-15.5 29q0 4 4 9q9 15 24.5 34.5t31.5 37.5t28.5 30.5t16.5 12.5q3 0 5 -3z" />
    <glyph glyph-name="hah" unicode="&#x62d;" horiz-adv-x="1157" 
d="M498 349q-20 4 -44 8.5t-49 8t-49.5 6t-45.5 2.5q-53 0 -93.5 -7t-70.5 -15t-48.5 -15t-26.5 -7q-3 0 -4 3t-1 6q0 4 7 24.5t16.5 45.5t19.5 47.5t16 30.5q14 15 39.5 24t54 13.5t56 6t45.5 1.5q26 0 75 -6.5t111.5 -15t132.5 -15t138 -6.5q29 0 65 1t73 1.5t73 1.5t66 1
q13 0 18.5 -2t5.5 -15q0 -11 -7.5 -33.5t-18.5 -45t-24 -40t-25 -17.5t-24.5 0.5t-24.5 0.5q-122 0 -231.5 -23t-201.5 -64.5t-166 -98t-126 -124.5t-79.5 -144.5t-27.5 -156.5q0 -88 28 -156t77 -119t116 -85.5t144.5 -56t163 -31t172.5 -9.5q73 0 134.5 3.5t109.5 8
t81.5 8.5t51.5 4q12 0 20 -1.5t8 -9.5q0 -6 -18.5 -20.5t-52 -33t-81.5 -38.5t-107 -36.5t-128 -27t-145 -10.5q-142 0 -260 34.5t-203 99t-132.5 157t-47.5 208.5q0 113 29.5 223.5t86.5 207t140 174t189 124.5z" />
    <glyph glyph-name="khah" unicode="&#x62e;" horiz-adv-x="1157" 
d="M498 349q-20 4 -44 8.5t-49 8t-49.5 6t-45.5 2.5q-53 0 -93.5 -7t-70.5 -15t-48.5 -15t-26.5 -7q-3 0 -4 3t-1 6q0 4 7 24.5t16.5 45.5t19.5 47.5t16 30.5q14 15 39.5 24t54 13.5t56 6t45.5 1.5q26 0 75 -6.5t111.5 -15t132.5 -15t138 -6.5q29 0 65 1t73 1.5t73 1.5t66 1
q13 0 18.5 -2t5.5 -15q0 -11 -7.5 -33.5t-18.5 -45t-24 -40t-25 -17.5t-24.5 0.5t-24.5 0.5q-122 0 -231.5 -23t-201.5 -64.5t-166 -98t-126 -124.5t-79.5 -144.5t-27.5 -156.5q0 -88 28 -156t77 -119t116 -85.5t144.5 -56t163 -31t172.5 -9.5q73 0 134.5 3.5t109.5 8
t81.5 8.5t51.5 4q12 0 20 -1.5t8 -9.5q0 -6 -18.5 -20.5t-52 -33t-81.5 -38.5t-107 -36.5t-128 -27t-145 -10.5q-142 0 -260 34.5t-203 99t-132.5 157t-47.5 208.5q0 113 29.5 223.5t86.5 207t140 174t189 124.5zM602 934q8 -13 23.5 -28.5t32.5 -29.5t34 -25.5t29 -15.5
q4 -1 4 -6q0 -4 -5 -7q-5 -7 -20.5 -26t-32 -39t-31 -35.5t-18.5 -15.5q-11 0 -32 13t-42 30t-36.5 35t-15.5 29q0 4 4 9q9 15 24.5 34.5t31.5 37.5t28.5 30.5t16.5 12.5q3 0 5 -3z" />
    <glyph glyph-name="dal" unicode="&#x62f;" horiz-adv-x="714" 
d="M561 248q0 3 -1 6q-11 25 -28 58t-37.5 67.5t-44.5 68t-49.5 60t-51.5 42.5t-51 16q-5 0 -11 -3t-12.5 -7t-13 -7t-12.5 -3q-8 0 -14.5 9.5t-6.5 29.5q0 15 5 33t13 35.5t17.5 31.5t17.5 21q10 8 22 11.5t25 3.5q47 0 92.5 -35.5t83.5 -87.5t65 -111t38 -107
q12 -51 12 -110q0 -32 -3.5 -63t-9.5 -60q-6 -25 -41 -52.5t-92 -50t-131.5 -37.5t-158.5 -15q-61 0 -84 18.5t-23 64.5q0 6 2 22t7 32.5t12 29t18 12.5q6 0 10 -3t12 -6t23.5 -6t45.5 -3q36 0 85 6t98.5 17t94 26.5t70.5 34.5q7 6 7 11z" />
    <glyph glyph-name="thal" unicode="&#x630;" horiz-adv-x="714" 
d="M561 248q0 3 -1 6q-11 25 -28 58t-37.5 67.5t-44.5 68t-49.5 60t-51.5 42.5t-51 16q-5 0 -11 -3t-12.5 -7t-13 -7t-12.5 -3q-8 0 -14.5 9.5t-6.5 29.5q0 15 5 33t13 35.5t17.5 31.5t17.5 21q10 8 22 11.5t25 3.5q47 0 92.5 -35.5t83.5 -87.5t65 -111t38 -107
q12 -51 12 -110q0 -32 -3.5 -63t-9.5 -60q-6 -25 -41 -52.5t-92 -50t-131.5 -37.5t-158.5 -15q-61 0 -84 18.5t-23 64.5q0 6 2 22t7 32.5t12 29t18 12.5q6 0 10 -3t12 -6t23.5 -6t45.5 -3q36 0 85 6t98.5 17t94 26.5t70.5 34.5q7 6 7 11zM310 1142q8 -13 23.5 -28.5
t32.5 -29.5t34 -25.5t29 -15.5q4 -1 4 -6q0 -4 -5 -7q-5 -7 -20.5 -26t-32 -39t-31 -35.5t-18.5 -15.5q-11 0 -32 13t-42 30t-36.5 35t-15.5 29q0 4 4 9q9 15 24.5 34.5t31.5 37.5t28.5 30.5t16.5 12.5q3 0 5 -3z" />
    <glyph glyph-name="reh" unicode="&#x631;" horiz-adv-x="850" 
d="M721 -34q-6 37 -23 75.5t-36.5 72.5t-38 61t-25.5 42q-4 9 -4 23q0 6 4.5 28t11.5 45t15 41.5t15 18.5q9 0 21.5 -16t25.5 -41t26.5 -56.5t24.5 -61.5t18.5 -56.5t9.5 -41.5q2 -20 5.5 -50t3.5 -64q0 -59 -18.5 -130t-57 -143.5t-98.5 -140t-144 -117.5
q-23 -14 -53 -16.5t-69 -2.5q-42 0 -92 7t-93.5 17.5t-73 22.5t-29.5 21q0 8 14 10t31 2q47 0 88.5 2.5t80.5 11t78 25t82 43.5q31 20 65 47.5t67 60t63 67.5t53 69t37 66t15 58z" />
    <glyph glyph-name="zeh" unicode="&#x632;" horiz-adv-x="850" 
d="M721 -34q-6 37 -23 75.5t-36.5 72.5t-38 61t-25.5 42q-4 9 -4 23q0 6 4.5 28t11.5 45t15 41.5t15 18.5q9 0 21.5 -16t25.5 -41t26.5 -56.5t24.5 -61.5t18.5 -56.5t9.5 -41.5q2 -20 5.5 -50t3.5 -64q0 -59 -18.5 -130t-57 -143.5t-98.5 -140t-144 -117.5
q-23 -14 -53 -16.5t-69 -2.5q-42 0 -92 7t-93.5 17.5t-73 22.5t-29.5 21q0 8 14 10t31 2q47 0 88.5 2.5t80.5 11t78 25t82 43.5q31 20 65 47.5t67 60t63 67.5t53 69t37 66t15 58zM573 852q8 -13 23.5 -28.5t32.5 -29.5t34 -25.5t29 -15.5q4 -1 4 -6q0 -4 -5 -7
q-5 -7 -20.5 -26t-32 -39t-31 -35.5t-18.5 -15.5q-11 0 -32 13t-42 30t-36.5 35t-15.5 29q0 4 4 9q9 15 24.5 34.5t31.5 37.5t28.5 30.5t16.5 12.5q3 0 5 -3z" />
    <glyph glyph-name="seen" unicode="&#x633;" horiz-adv-x="1730" 
d="M452 -428q83 0 168 23t156.5 60.5t121.5 86t64 99.5q-3 66 -12 111t-20.5 75.5t-24 49.5t-23 33t-17.5 27.5t-7 32.5q0 6 5 30t13 50t18 47t20 21q9 0 13.5 -3t6.5 -7q24 -37 45 -63t42 -42t44.5 -23.5t54.5 -7.5q34 0 66 12t59 33.5t49.5 51t37.5 63.5q21 48 38 48
q8 0 10.5 -9t2.5 -22q0 -10 -1.5 -21.5t-3.5 -21.5t-4 -18t-4 -11q10 -13 29 -27t44.5 -26t55 -20t60.5 -8q10 0 20.5 2t15.5 4q0 24 -5 45t-11 37t-11 26t-5 12q0 5 3 13t7.5 17.5t9.5 19t8 18.5q4 11 8 22.5t7.5 20.5t8 15t9.5 6q12 0 20 -21.5t12.5 -48t6 -49.5t1.5 -26
q0 -49 -12.5 -95.5t-35 -83t-53.5 -58.5t-68 -22q-49 0 -101 21.5t-95 77.5q-23 -39 -49 -64.5t-55 -40.5t-60 -21.5t-62 -6.5q-10 0 -22.5 0.5t-22.5 2.5q0 -10 0.5 -19.5t0.5 -19.5q0 -89 -14 -158.5t-42 -123.5t-69.5 -96.5t-95.5 -77.5q-25 -16 -65 -34.5t-91 -34.5
t-111 -26.5t-126 -10.5q-77 0 -142.5 21t-112.5 64t-73.5 107.5t-26.5 150.5q0 77 19.5 153.5t46.5 138t55.5 99.5t46.5 38q4 0 7.5 -2.5t3.5 -11.5q0 -15 -16.5 -44.5t-36.5 -69.5t-36.5 -89.5t-16.5 -104.5q0 -66 23.5 -120.5t65.5 -93.5t100.5 -60.5t129.5 -21.5z" />
    <glyph glyph-name="sheen" unicode="&#x634;" horiz-adv-x="1730" 
d="M452 -428q83 0 168 23t156.5 60.5t121.5 86t64 99.5q-3 66 -12 111t-20.5 75.5t-24 49.5t-23 33t-17.5 27.5t-7 32.5q0 6 5 30t13 50t18 47t20 21q9 0 13.5 -3t6.5 -7q24 -37 45 -63t42 -42t44.5 -23.5t54.5 -7.5q34 0 66 12t59 33.5t49.5 51t37.5 63.5q21 48 38 48
q8 0 10.5 -9t2.5 -22q0 -10 -1.5 -21.5t-3.5 -21.5t-4 -18t-4 -11q10 -13 29 -27t44.5 -26t55 -20t60.5 -8q10 0 20.5 2t15.5 4q0 24 -5 45t-11 37t-11 26t-5 12q0 5 3 13t7.5 17.5t9.5 19t8 18.5q4 11 8 22.5t7.5 20.5t8 15t9.5 6q12 0 20 -21.5t12.5 -48t6 -49.5t1.5 -26
q0 -49 -12.5 -95.5t-35 -83t-53.5 -58.5t-68 -22q-49 0 -101 21.5t-95 77.5q-23 -39 -49 -64.5t-55 -40.5t-60 -21.5t-62 -6.5q-10 0 -22.5 0.5t-22.5 2.5q0 -10 0.5 -19.5t0.5 -19.5q0 -89 -14 -158.5t-42 -123.5t-69.5 -96.5t-95.5 -77.5q-25 -16 -65 -34.5t-91 -34.5
t-111 -26.5t-126 -10.5q-77 0 -142.5 21t-112.5 64t-73.5 107.5t-26.5 150.5q0 77 19.5 153.5t46.5 138t55.5 99.5t46.5 38q4 0 7.5 -2.5t3.5 -11.5q0 -15 -16.5 -44.5t-36.5 -69.5t-36.5 -89.5t-16.5 -104.5q0 -66 23.5 -120.5t65.5 -93.5t100.5 -60.5t129.5 -21.5z
M1281 1083q8 -13 23.5 -28.5t32.5 -29.5t34 -25.5t29 -15.5q4 -1 4 -6q0 -4 -5 -7q-5 -7 -20.5 -26t-32 -39t-31 -35.5t-18.5 -15.5q-11 0 -32 13t-42 30t-36.5 35t-15.5 29q0 4 4 9q9 15 24.5 34.5t31.5 37.5t28.5 30.5t16.5 12.5q3 0 5 -3zM1293 655q-10 -13 -24 -29.5
t-27 -31.5t-23 -25.5t-12 -10.5q-12 0 -33 13t-42 30t-36.5 35t-15.5 29q0 4 4 9q9 15 24.5 34.5t31 37.5t28.5 30.5t17 12.5q3 0 5 -3q7 -11 20 -24.5t28 -27t30.5 -24.5t28.5 -18q10 15 25 33t29 34t25.5 26.5t14.5 10.5t5 -2q8 -13 23.5 -28.5t32.5 -30t34 -26t29 -15.5
q4 -1 4 -6q0 -2 -5 -7q-5 -7 -20.5 -25.5t-32 -38.5t-31 -35.5t-18.5 -15.5q-9 0 -25.5 9t-34.5 22.5t-34 29t-25 28.5z" />
    <glyph glyph-name="sad" unicode="&#x635;" horiz-adv-x="1994" 
d="M1227 155q20 -2 44 -2.5t44 -0.5q66 0 130.5 9t122 23t106.5 31t85.5 32.5t57.5 27.5t23 17q0 19 -19.5 42.5t-49 43.5t-64 33.5t-63.5 13.5q-42 0 -97.5 -22t-113.5 -59.5t-112.5 -86.5t-93.5 -102zM957 316q15 -36 40 -64t53.5 -47t57.5 -29.5t52 -12.5q29 41 69 86.5
t87 90.5t98.5 86t102.5 72t99 49.5t88 18.5q64 0 107 -18t68 -42.5t35.5 -48.5t10.5 -36q0 -18 -6 -46.5t-16.5 -60.5t-24.5 -65.5t-31 -60.5q-45 -47 -114.5 -82.5t-149 -59.5t-161.5 -36.5t-152 -12.5q-29 0 -61 2t-62.5 6.5t-57 12t-44.5 18.5q2 -13 3 -29.5t1 -26.5
q0 -89 -16.5 -159.5t-45.5 -125.5t-70 -97t-89 -74q-25 -17 -64.5 -35.5t-90.5 -34.5t-111.5 -26t-126.5 -10q-77 0 -142.5 21t-112.5 64t-73.5 107.5t-26.5 150.5q0 77 19.5 153.5t46.5 138t55.5 99.5t46.5 38q4 0 7.5 -2.5t3.5 -11.5q0 -15 -16.5 -44.5t-36.5 -69.5
t-36.5 -89.5t-16.5 -104.5q0 -66 23.5 -120.5t65.5 -93.5t100.5 -60.5t129.5 -21.5q83 0 168 23t156.5 60.5t121.5 86t64 99.5q-3 66 -12 112t-20 77.5t-23 51.5t-22 35.5t-16.5 29.5t-6.5 33q0 6 5 30t13 50t18 47t20 21q9 0 13 -3.5t6 -8.5z" />
    <glyph glyph-name="dad" unicode="&#x636;" horiz-adv-x="1994" 
d="M1227 155q20 -2 44 -2.5t44 -0.5q66 0 130.5 9t122 23t106.5 31t85.5 32.5t57.5 27.5t23 17q0 19 -19.5 42.5t-49 43.5t-64 33.5t-63.5 13.5q-42 0 -97.5 -22t-113.5 -59.5t-112.5 -86.5t-93.5 -102zM957 316q15 -36 40 -64t53.5 -47t57.5 -29.5t52 -12.5q29 41 69 86.5
t87 90.5t98.5 86t102.5 72t99 49.5t88 18.5q64 0 107 -18t68 -42.5t35.5 -48.5t10.5 -36q0 -18 -6 -46.5t-16.5 -60.5t-24.5 -65.5t-31 -60.5q-45 -47 -114.5 -82.5t-149 -59.5t-161.5 -36.5t-152 -12.5q-29 0 -61 2t-62.5 6.5t-57 12t-44.5 18.5q2 -13 3 -29.5t1 -26.5
q0 -89 -16.5 -159.5t-45.5 -125.5t-70 -97t-89 -74q-25 -17 -64.5 -35.5t-90.5 -34.5t-111.5 -26t-126.5 -10q-77 0 -142.5 21t-112.5 64t-73.5 107.5t-26.5 150.5q0 77 19.5 153.5t46.5 138t55.5 99.5t46.5 38q4 0 7.5 -2.5t3.5 -11.5q0 -15 -16.5 -44.5t-36.5 -69.5
t-36.5 -89.5t-16.5 -104.5q0 -66 23.5 -120.5t65.5 -93.5t100.5 -60.5t129.5 -21.5q83 0 168 23t156.5 60.5t121.5 86t64 99.5q-3 66 -12 112t-20 77.5t-23 51.5t-22 35.5t-16.5 29.5t-6.5 33q0 6 5 30t13 50t18 47t20 21q9 0 13 -3.5t6 -8.5zM1132 843q8 -13 23.5 -28.5
t32.5 -29.5t34 -25.5t29 -15.5q4 -1 4 -6q0 -4 -5 -7q-5 -7 -20.5 -26t-32 -39t-31 -35.5t-18.5 -15.5q-11 0 -32 13t-42 30t-36.5 35t-15.5 29q0 4 4 9q9 15 24.5 34.5t31.5 37.5t28.5 30.5t16.5 12.5q3 0 5 -3z" />
    <glyph glyph-name="tah" unicode="&#x637;" horiz-adv-x="1304" 
d="M401 138q19 18 38 37t42 41t52 48.5t68 60.5q2 32 4.5 62.5t2.5 60.5q0 53 -6.5 109t-17 113t-23.5 112.5t-25 107.5q-29 38 -42 72.5t-13 77.5q0 21 9.5 49.5t22.5 54.5t27 44t24 18q4 0 7 -3t4 -12q2 -22 5 -37.5t12 -29.5t25.5 -29t46.5 -36q13 -9 17.5 -18.5
t4.5 -26.5q0 -16 -4.5 -34t-12 -37t-16 -37t-17.5 -33q-4 -6 -4 -9q12 -87 24.5 -173t12.5 -176q0 -35 -2.5 -70t-8.5 -70q52 43 105 82.5t101 70t88.5 48.5t66.5 18q48 0 91.5 -19.5t76.5 -47.5t52.5 -60t19.5 -56q0 -39 -28 -93.5t-72 -113.5q-35 -48 -116 -88t-195 -69.5
t-256 -46t-299 -16.5q-13 0 -37 8.5t-51.5 21.5t-56 29t-51.5 31.5t-37.5 28.5t-14.5 20q0 4 4 7.5t12 3.5q19 0 61.5 -2t93.5 -2t98 2.5t87 5.5zM484 143q244 15 406.5 61t250.5 107q-6 19 -26 41t-47 41t-57.5 31t-57.5 12q-46 0 -96 -18t-107 -54t-122.5 -91t-143.5 -130
z" />
    <glyph glyph-name="zah" unicode="&#x638;" horiz-adv-x="1304" 
d="M401 138q19 18 38 37t42 41t52 48.5t68 60.5q2 32 4.5 62.5t2.5 60.5q0 53 -6.5 109t-17 113t-23.5 112.5t-25 107.5q-29 38 -42 72.5t-13 77.5q0 21 9.5 49.5t22.5 54.5t27 44t24 18q4 0 7 -3t4 -12q2 -22 5 -37.5t12 -29.5t25.5 -29t46.5 -36q13 -9 17.5 -18.5
t4.5 -26.5q0 -16 -4.5 -34t-12 -37t-16 -37t-17.5 -33q-4 -6 -4 -9q12 -87 24.5 -173t12.5 -176q0 -35 -2.5 -70t-8.5 -70q52 43 105 82.5t101 70t88.5 48.5t66.5 18q48 0 91.5 -19.5t76.5 -47.5t52.5 -60t19.5 -56q0 -39 -28 -93.5t-72 -113.5q-35 -48 -116 -88t-195 -69.5
t-256 -46t-299 -16.5q-13 0 -37 8.5t-51.5 21.5t-56 29t-51.5 31.5t-37.5 28.5t-14.5 20q0 4 4 7.5t12 3.5q19 0 61.5 -2t93.5 -2t98 2.5t87 5.5zM484 143q244 15 406.5 61t250.5 107q-6 19 -26 41t-47 41t-57.5 31t-57.5 12q-46 0 -96 -18t-107 -54t-122.5 -91t-143.5 -130
zM993 1052q8 -13 23.5 -28.5t32.5 -29.5t34 -25.5t29 -15.5q4 -1 4 -6q0 -4 -5 -7q-5 -7 -20.5 -26t-32 -39t-31 -35.5t-18.5 -15.5q-11 0 -32 13t-42 30t-36.5 35t-15.5 29q0 4 4 9q9 15 24.5 34.5t31.5 37.5t28.5 30.5t16.5 12.5q3 0 5 -3z" />
    <glyph glyph-name="ain" unicode="&#x639;" horiz-adv-x="963" 
d="M268 201q-42 18 -72.5 43t-50 53.5t-29 57.5t-9.5 55q0 37 11 76.5t29 77t42 71t50 59t52.5 40.5t50.5 15q48 0 85 -7t67 -19t54.5 -28t47.5 -33q19 -14 19 -29q0 -11 -9.5 -13t-14.5 -2t-16 4.5t-26 10t-32.5 10t-34.5 4.5q-60 0 -111.5 -12t-89.5 -30t-59.5 -39
t-21.5 -40q0 -17 18 -48.5t50.5 -62.5t78.5 -54t102 -23q20 0 28.5 2.5t16.5 6.5q19 9 46.5 22.5t58 28.5t62 30.5t59 28t48 20t29.5 7.5q17 0 17 -15q0 -8 -9 -21.5t-21.5 -29.5t-27.5 -34t-27 -35q-9 -12 -32.5 -24t-56.5 -25t-72.5 -28.5t-80.5 -34.5
q-68 -32 -133.5 -78.5t-117 -107t-83 -135.5t-31.5 -164q0 -93 27 -165.5t75 -126t114 -90.5t144 -59.5t164.5 -32.5t176.5 -10q68 0 129 4t111.5 9.5t87 9.5t55.5 4q28 0 28 -10q0 -8 -20 -23.5t-56 -34t-85 -38.5t-107.5 -36.5t-123.5 -27t-133 -10.5q-176 0 -300.5 44.5
t-204 116.5t-116 162t-36.5 181q0 205 53.5 346t162.5 236z" />
    <glyph glyph-name="ghain" unicode="&#x63a;" horiz-adv-x="963" 
d="M268 201q-42 18 -72.5 43t-50 53.5t-29 57.5t-9.5 55q0 37 11 76.5t29 77t42 71t50 59t52.5 40.5t50.5 15q48 0 85 -7t67 -19t54.5 -28t47.5 -33q19 -14 19 -29q0 -11 -9.5 -13t-14.5 -2t-16 4.5t-26 10t-32.5 10t-34.5 4.5q-60 0 -111.5 -12t-89.5 -30t-59.5 -39
t-21.5 -40q0 -17 18 -48.5t50.5 -62.5t78.5 -54t102 -23q20 0 28.5 2.5t16.5 6.5q19 9 46.5 22.5t58 28.5t62 30.5t59 28t48 20t29.5 7.5q17 0 17 -15q0 -8 -9 -21.5t-21.5 -29.5t-27.5 -34t-27 -35q-9 -12 -32.5 -24t-56.5 -25t-72.5 -28.5t-80.5 -34.5
q-68 -32 -133.5 -78.5t-117 -107t-83 -135.5t-31.5 -164q0 -93 27 -165.5t75 -126t114 -90.5t144 -59.5t164.5 -32.5t176.5 -10q68 0 129 4t111.5 9.5t87 9.5t55.5 4q28 0 28 -10q0 -8 -20 -23.5t-56 -34t-85 -38.5t-107.5 -36.5t-123.5 -27t-133 -10.5q-176 0 -300.5 44.5
t-204 116.5t-116 162t-36.5 181q0 205 53.5 346t162.5 236zM363 1202q8 -13 23.5 -28.5t32.5 -29.5t34 -25.5t29 -15.5q4 -1 4 -6q0 -4 -5 -7q-5 -7 -20.5 -26t-32 -39t-31 -35.5t-18.5 -15.5q-11 0 -32 13t-42 30t-36.5 35t-15.5 29q0 4 4 9q9 15 24.5 34.5t31.5 37.5
t28.5 30.5t16.5 12.5q3 0 5 -3z" />
    <glyph glyph-name="uni063B" unicode="&#x63b;" horiz-adv-x="1846" 
d="M1094 815q0 28 3.5 58.5t10 59.5t15.5 53.5t20 41.5q23 34 83 74.5t144 84t186 88t209.5 85.5t214.5 76.5t201 61.5q9 2 12 2.5t8 0.5q13 0 13 -11q0 -3 -1.5 -8t-2.5 -7l-44 -98q-6 -14 -11 -21.5t-16 -11.5q-51 -19 -130 -48.5t-171.5 -64.5t-190 -74.5t-185.5 -79
t-158.5 -77.5t-108.5 -70q89 -66 155 -142.5t110 -149.5t65.5 -135t21.5 -99q0 -32 -7 -69t-18.5 -71.5t-25.5 -62t-27 -40.5q-26 -25 -94.5 -54t-169.5 -54t-229.5 -41.5t-273.5 -16.5q-149 0 -254 12.5t-175 34.5t-110.5 50t-61 60t-26 64.5t-5.5 62.5q0 43 13 87.5t31 81
t37.5 60t31.5 23.5t12 -19q0 -13 -6.5 -27.5t-14 -33.5t-14 -43t-6.5 -56q0 -42 32.5 -79t100.5 -64.5t174.5 -43.5t254.5 -16q74 0 153.5 7.5t157.5 20.5t151 30t132.5 36t102.5 39.5t62 39.5q-1 6 -14 45t-40.5 93t-70.5 112.5t-103 102.5q-5 -2 -15 -4.5t-17 -2.5
q-10 0 -26 10t-32.5 25t-31.5 32t-22 30q-5 9 -7 22t-2 28zM1023 1343q-10 -13 -24 -29.5t-27 -31.5t-23 -25.5t-12 -10.5q-12 0 -33 13t-42 30t-36.5 35t-15.5 29q0 4 4 9q9 15 24.5 34.5t31 37.5t28.5 30.5t17 12.5q3 0 5 -3q7 -11 20 -24.5t28 -27t30.5 -24.5t28.5 -18
q10 15 25 33t29 34t25.5 26.5t14.5 10.5t5 -2q8 -13 23.5 -28.5t32.5 -30t34 -26t29 -15.5q4 -1 4 -6q0 -2 -5 -7q-5 -7 -20.5 -25.5t-32 -38.5t-31 -35.5t-18.5 -15.5q-9 0 -25.5 9t-34.5 22.5t-34 29t-25 28.5z" />
    <glyph glyph-name="uni063C" unicode="&#x63c;" horiz-adv-x="1846" 
d="M1094 815q0 28 3.5 58.5t10 59.5t15.5 53.5t20 41.5q23 34 83 74.5t144 84t186 88t209.5 85.5t214.5 76.5t201 61.5q9 2 12 2.5t8 0.5q13 0 13 -11q0 -3 -1.5 -8t-2.5 -7l-44 -98q-6 -14 -11 -21.5t-16 -11.5q-51 -19 -130 -48.5t-171.5 -64.5t-190 -74.5t-185.5 -79
t-158.5 -77.5t-108.5 -70q89 -66 155 -142.5t110 -149.5t65.5 -135t21.5 -99q0 -32 -7 -69t-18.5 -71.5t-25.5 -62t-27 -40.5q-26 -25 -94.5 -54t-169.5 -54t-229.5 -41.5t-273.5 -16.5q-149 0 -254 12.5t-175 34.5t-110.5 50t-61 60t-26 64.5t-5.5 62.5q0 43 13 87.5t31 81
t37.5 60t31.5 23.5t12 -19q0 -13 -6.5 -27.5t-14 -33.5t-14 -43t-6.5 -56q0 -42 32.5 -79t100.5 -64.5t174.5 -43.5t254.5 -16q74 0 153.5 7.5t157.5 20.5t151 30t132.5 36t102.5 39.5t62 39.5q-1 6 -14 45t-40.5 93t-70.5 112.5t-103 102.5q-5 -2 -15 -4.5t-17 -2.5
q-10 0 -26 10t-32.5 25t-31.5 32t-22 30q-5 9 -7 22t-2 28zM893 -288q-10 -13 -24 -29.5t-27 -31.5t-23 -25.5t-12 -10.5q-12 0 -33 13t-42 30t-36.5 35t-15.5 29q0 4 4 9q9 15 24.5 34.5t31 37.5t28.5 30.5t17 12.5q3 0 5 -3q7 -11 20 -24.5t28 -27t30.5 -24.5t28.5 -18
q10 15 25 33t29 34t25.5 26.5t14.5 10.5t5 -2q8 -13 23.5 -28.5t32.5 -30t34 -26t29 -15.5q4 -1 4 -6q0 -2 -5 -7q-5 -7 -20.5 -25.5t-32 -38.5t-31 -35.5t-18.5 -15.5q-9 0 -25.5 9t-34.5 22.5t-34 29t-25 28.5zM909 -418q8 -13 23.5 -28.5t32.5 -29.5t34 -25.5t29 -15.5
q4 -1 4 -6q0 -4 -5 -7q-5 -7 -20.5 -26t-32 -39t-31 -35.5t-18.5 -15.5q-11 0 -32 13t-42 30t-36.5 35t-15.5 29q0 4 4 9q9 15 24.5 34.5t31.5 37.5t28.5 30.5t16.5 12.5q3 0 5 -3z" />
    <glyph glyph-name="uni063D" unicode="&#x63d;" horiz-adv-x="1275" 
d="M1064 173q34 -14 49 -48.5t15 -71.5q0 -19 -1.5 -40t-7.5 -42t-17 -42.5t-30 -41.5q-54 -57 -128 -105t-157 -82t-168.5 -53t-162.5 -19q-95 0 -168 28.5t-122.5 79t-75 118.5t-25.5 147q0 70 16 133.5t37 114.5t41 85t28 45q14 17 23.5 22.5t15.5 5.5q10 0 10 -14
q0 -5 -6.5 -17.5t-14.5 -26.5q-17 -26 -31.5 -59t-25.5 -68t-17.5 -69t-6.5 -62q0 -67 28 -123.5t77 -97.5t116 -64t145 -23q71 0 140 14.5t130.5 37.5t113 50.5t89 53.5t58.5 46.5t21 30.5q0 21 -29.5 31t-74 16t-96.5 10.5t-96.5 15t-74 30t-29.5 54.5q0 71 24.5 136.5
t64.5 123t92 104.5t106 81t106.5 52.5t94.5 18.5q37 0 59.5 -19.5t22.5 -55.5q0 -14 -4 -34t-10.5 -39.5t-14 -33t-14.5 -13.5q-12 0 -17 6.5t-11 14.5t-16.5 14.5t-32.5 6.5q-37 0 -79.5 -14t-84 -37t-80 -51.5t-68 -57.5t-47 -56.5t-17.5 -46.5q0 -7 3 -13
q10 -21 36 -34.5t59.5 -21.5t70.5 -12t71 -6.5t60 -5t38 -7.5zM688.987 764.015q6 -5 7.5 -7.5t1.5 -10.499q0 -11 -4 -30.498q-4 -19.499 -9.49902 -37.998q-5.5 -18.499 -11.5 -32.498q-5.99902 -13.999 -9.99902 -13.999q-3 0 -6 4q-30.998 26.998 -58.4961 56.9961
t-49.9971 57.9971q-22.499 27.998 -38.998 50.9961q-16.498 22.999 -26.498 37.998q-8.99902 -18.999 -28.498 -48.4971t-42.4971 -60.9961q-22.999 -31.498 -46.498 -58.9971q-23.498 -27.498 -41.4971 -41.4971q-2 -2 -4 -2q-3.99902 0 -7.99902 11.499
q-4 11.5 -7.5 26.999q-3.49902 15.499 -6.49902 30.998t-4 23.498q0 8 3 11q73.9951 83.9941 117.492 151.99q43.498 67.9961 57.4971 101.994q5.99902 12.999 13.999 12.999q5 0 7.99902 -4.5q3 -4.49902 5 -10.499q5 -10.999 13.999 -26.498q9 -15.499 31.998 -43.498
q24.999 -28.998 58.9971 -66.9951q33.9971 -37.998 84.9941 -81.9951z" />
    <glyph glyph-name="uni063E" unicode="&#x63e;" horiz-adv-x="1275" 
d="M1064 173q34 -14 49 -48.5t15 -71.5q0 -19 -1.5 -40t-7.5 -42t-17 -42.5t-30 -41.5q-54 -57 -128 -105t-157 -82t-168.5 -53t-162.5 -19q-95 0 -168 28.5t-122.5 79t-75 118.5t-25.5 147q0 70 16 133.5t37 114.5t41 85t28 45q14 17 23.5 22.5t15.5 5.5q10 0 10 -14
q0 -5 -6.5 -17.5t-14.5 -26.5q-17 -26 -31.5 -59t-25.5 -68t-17.5 -69t-6.5 -62q0 -67 28 -123.5t77 -97.5t116 -64t145 -23q71 0 140 14.5t130.5 37.5t113 50.5t89 53.5t58.5 46.5t21 30.5q0 21 -29.5 31t-74 16t-96.5 10.5t-96.5 15t-74 30t-29.5 54.5q0 71 24.5 136.5
t64.5 123t92 104.5t106 81t106.5 52.5t94.5 18.5q37 0 59.5 -19.5t22.5 -55.5q0 -14 -4 -34t-10.5 -39.5t-14 -33t-14.5 -13.5q-12 0 -17 6.5t-11 14.5t-16.5 14.5t-32.5 6.5q-37 0 -79.5 -14t-84 -37t-80 -51.5t-68 -57.5t-47 -56.5t-17.5 -46.5q0 -7 3 -13
q10 -21 36 -34.5t59.5 -21.5t70.5 -12t71 -6.5t60 -5t38 -7.5zM513 653q-10 -13 -24 -29.5t-27 -31.5t-23 -25.5t-12 -10.5q-12 0 -33 13t-42 30t-36.5 35t-15.5 29q0 4 4 9q9 15 24.5 34.5t31 37.5t28.5 30.5t17 12.5q3 0 5 -3q7 -11 20 -24.5t28 -27t30.5 -24.5t28.5 -18
q10 15 25 33t29 34t25.5 26.5t14.5 10.5t5 -2q8 -13 23.5 -28.5t32.5 -30t34 -26t29 -15.5q4 -1 4 -6q0 -2 -5 -7q-5 -7 -20.5 -25.5t-32 -38.5t-31 -35.5t-18.5 -15.5q-9 0 -25.5 9t-34.5 22.5t-34 29t-25 28.5z" />
    <glyph glyph-name="uni063F" unicode="&#x63f;" horiz-adv-x="1275" 
d="M1064 173q34 -14 49 -48.5t15 -71.5q0 -19 -1.5 -40t-7.5 -42t-17 -42.5t-30 -41.5q-54 -57 -128 -105t-157 -82t-168.5 -53t-162.5 -19q-95 0 -168 28.5t-122.5 79t-75 118.5t-25.5 147q0 70 16 133.5t37 114.5t41 85t28 45q14 17 23.5 22.5t15.5 5.5q10 0 10 -14
q0 -5 -6.5 -17.5t-14.5 -26.5q-17 -26 -31.5 -59t-25.5 -68t-17.5 -69t-6.5 -62q0 -67 28 -123.5t77 -97.5t116 -64t145 -23q71 0 140 14.5t130.5 37.5t113 50.5t89 53.5t58.5 46.5t21 30.5q0 21 -29.5 31t-74 16t-96.5 10.5t-96.5 15t-74 30t-29.5 54.5q0 71 24.5 136.5
t64.5 123t92 104.5t106 81t106.5 52.5t94.5 18.5q37 0 59.5 -19.5t22.5 -55.5q0 -14 -4 -34t-10.5 -39.5t-14 -33t-14.5 -13.5q-12 0 -17 6.5t-11 14.5t-16.5 14.5t-32.5 6.5q-37 0 -79.5 -14t-84 -37t-80 -51.5t-68 -57.5t-47 -56.5t-17.5 -46.5q0 -7 3 -13
q10 -21 36 -34.5t59.5 -21.5t70.5 -12t71 -6.5t60 -5t38 -7.5zM513 653q-10 -13 -24 -29.5t-27 -31.5t-23 -25.5t-12 -10.5q-12 0 -33 13t-42 30t-36.5 35t-15.5 29q0 4 4 9q9 15 24.5 34.5t31 37.5t28.5 30.5t17 12.5q3 0 5 -3q7 -11 20 -24.5t28 -27t30.5 -24.5t28.5 -18
q10 15 25 33t29 34t25.5 26.5t14.5 10.5t5 -2q8 -13 23.5 -28.5t32.5 -30t34 -26t29 -15.5q4 -1 4 -6q0 -2 -5 -7q-5 -7 -20.5 -25.5t-32 -38.5t-31 -35.5t-18.5 -15.5q-9 0 -25.5 9t-34.5 22.5t-34 29t-25 28.5zM501 1081q8 -13 23.5 -28.5t32.5 -29.5t34 -25.5t29 -15.5
q4 -1 4 -6q0 -4 -5 -7q-5 -7 -20.5 -26t-32 -39t-31 -35.5t-18.5 -15.5q-11 0 -32 13t-42 30t-36.5 35t-15.5 29q0 4 4 9q9 15 24.5 34.5t31.5 37.5t28.5 30.5t16.5 12.5q3 0 5 -3z" />
    <glyph glyph-name="tt" unicode="&#x640;" horiz-adv-x="206" 
d="M198 151q8 0 14 -7.5t9.5 -19t5 -25t1.5 -26.5q0 -27 -7 -47t-23 -20h-211q-20 0 -28.5 20t-8.5 47q0 13 2 26.5t6.5 25t11.5 19t17 7.5h211z" />
    <glyph glyph-name="uni.feh" unicode="&#x641;" horiz-adv-x="1561" 
d="M990 1131q8 -13 23.5 -28.5t32.5 -29.5t34 -25.5t29 -15.5q4 -1 4 -6q0 -4 -5 -7q-5 -7 -20.5 -26t-32 -39t-31 -35.5t-18.5 -15.5q-11 0 -32 13t-42 30t-36.5 35t-15.5 29q0 4 4 9q9 15 24.5 34.5t31.5 37.5t28.5 30.5t16.5 12.5q3 0 5 -3zM1403 481q-7 -11 -21 -27
t-35 -30.5t-48 -24.5t-59 -10q-45 0 -72 15t-41.5 37.5t-18.5 49t-4 48.5q0 23 8.5 55t23.5 65.5t33.5 66.5t39.5 59.5t41.5 42.5t38.5 16q34 0 71.5 -36.5t68.5 -95t51 -132t20 -146.5q0 -25 -4 -54t-12.5 -58.5t-21 -56t-29.5 -47.5q-31 -38 -106 -77.5t-181.5 -72
t-238 -53t-275.5 -20.5q-128 0 -219.5 14.5t-154.5 39t-100 56t-57 65.5t-26 67.5t-6 62.5q0 30 10 68t25 71t31.5 56t28.5 23q9 0 11 -5.5t2 -11.5q0 -8 -5.5 -20.5t-12 -28.5t-12 -35.5t-5.5 -40.5q0 -42 34.5 -83t99 -73t157 -51.5t207.5 -19.5q54 0 128 4.5t154.5 15.5
t162.5 28.5t153 43.5t125 61t79 80q-2 20 -11.5 47.5t-27.5 51.5zM1343 598q-9 19 -22.5 35.5t-27.5 29.5t-27.5 20.5t-23.5 7.5q-13 0 -26 -9.5t-24 -23t-18 -28.5t-7 -26t3.5 -23.5t14 -23t29.5 -17.5t50 -7q13 0 26 7t23.5 17t18 21.5t11.5 19.5z" />
    <glyph glyph-name="uni.qaf" unicode="&#x642;" horiz-adv-x="1095" 
d="M723 963q-10 -13 -24 -29.5t-27 -31.5t-23 -25.5t-12 -10.5q-12 0 -33 13t-42 30t-36.5 35t-15.5 29q0 4 4 9q9 15 24.5 34.5t31 37.5t28.5 30.5t17 12.5q3 0 5 -3q7 -11 20 -24.5t28 -27t30.5 -24.5t28.5 -18q10 15 25 33t29 34t25.5 26.5t14.5 10.5t5 -2
q8 -13 23.5 -28.5t32.5 -30t34 -26t29 -15.5q4 -1 4 -6q0 -2 -5 -7q-5 -7 -20.5 -25.5t-32 -38.5t-31 -35.5t-18.5 -15.5q-9 0 -25.5 9t-34.5 22.5t-34 29t-25 28.5zM919 331q-7 -11 -21 -27t-34.5 -31t-47 -25.5t-57.5 -10.5q-46 0 -73.5 15.5t-42.5 39t-20 50t-5 48.5
q0 23 8.5 55t22.5 66t32 67.5t38 60t40 42.5t38 16q42 0 83 -39.5t73.5 -104.5t53 -148t20.5 -171q0 -10 -2 -37.5t-7 -60.5t-13 -66t-20 -54q-20 -35 -74 -83t-132 -92t-174 -75t-200 -31q-80 0 -142 24.5t-105 68t-65.5 103.5t-22.5 132q0 38 7.5 80.5t20 85.5t28.5 82
t33 69t32.5 48t28.5 18q2 0 5 -2.5t3 -9.5q0 -15 -13.5 -43t-30 -66t-30 -85.5t-13.5 -100.5q0 -56 24 -101t63.5 -77.5t90.5 -50t104 -17.5q82 0 165.5 19.5t157 53.5t130.5 78t87 94q2 3 3.5 12.5t1.5 18.5q0 5 -4.5 26t-11.5 47.5t-16 51.5t-17 37zM870 446
q-7 18 -19.5 35.5t-27 31.5t-30 23t-28.5 9t-27 -10.5t-25.5 -24.5t-19 -29.5t-7.5 -25.5q0 -27 25.5 -48.5t71.5 -21.5q12 0 25.5 5.5t26 14t22 19.5t13.5 22z" />
    <glyph glyph-name="ar.kaf" unicode="&#x643;" horiz-adv-x="1115" 
d="M976 897q6 -59 13.5 -133t15 -150t12.5 -148t5 -127q0 -41 -3.5 -74.5t-9.5 -59.5q-4 -18 -11.5 -41.5t-16.5 -45t-19.5 -38t-19.5 -19.5q-38 -14 -95 -25t-128.5 -19t-155.5 -12.5t-175 -4.5q-68 0 -125 3.5t-98 16.5t-64 39t-23 70q0 7 0.5 19t3 24t6.5 20.5t11 8.5
q9 0 18 -4t23 -9.5t36 -12.5t58.5 -12.5t90 -9.5t130.5 -4q76 0 153.5 5.5t146.5 14t123.5 19t84.5 21.5q-3 95 -13 191t-21.5 188t-23 177t-18.5 157q-2 9 -11 17q-20 21 -29 49.5t-9 58.5q0 33 11.5 66.5t27 60t30.5 43t22 16.5q6 0 6 -12q1 -27 4 -44.5t11.5 -30.5
t24.5 -26t45 -31q16 -11 16 -44q0 -15 -6 -33.5t-14 -36.5t-17.5 -34t-16.5 -26q-2 -4 -4 -8.5t-2 -9.5zM598 508q-9 13 -31 19t-44 13.5t-39 21t-17 42.5q0 35 21 78.5t51.5 82t65 64.5t61.5 26q12 0 15.5 -5.5t3.5 -15.5q0 -7 -4 -18.5t-10 -24t-12 -24.5l-10 -20
t-11 -11.5t-15 -6t-17.5 -4.5t-18.5 -7q-21 -11 -31.5 -24.5t-10.5 -19.5q0 -18 10.5 -26t26.5 -12.5t35 -7.5t35 -8.5t26.5 -17.5t10.5 -34q0 -10 -6 -28.5t-17 -41.5t-28 -46.5t-38.5 -42.5t-48 -31.5t-57.5 -12.5q-11 0 -37.5 0.5t-54.5 2.5t-49 5.5t-21 10.5
q0 6 19.5 13.5t48.5 16.5t63.5 19.5t64 22t49.5 25t21 27.5z" />
    <glyph glyph-name="lam" unicode="&#x644;" horiz-adv-x="1047" 
d="M881 914q7 -77 18.5 -168t22.5 -185t19 -186t8 -170q0 -50 -1.5 -103t-10.5 -104.5t-27 -100t-51 -88.5q-15 -18 -46 -47.5t-81 -58.5t-120.5 -50t-164.5 -21q-81 0 -139 18t-97.5 47t-63 65t-36 71t-16.5 66t-4 50q0 35 7 75t18.5 79t26 74.5t28.5 63t26 43.5t20 16
q9 0 9 -7q0 -13 -10 -30.5t-21.5 -43t-21.5 -61t-10 -83.5q0 -61 23 -113.5t63.5 -91t95 -60.5t118.5 -22q71 0 140.5 14.5t125.5 38.5t94.5 54.5t48.5 63.5q6 20 9 43t3 54q0 65 -7 150t-17.5 175.5t-23.5 181t-25 167.5t-21.5 134t-12.5 82q-2 9 -8 17q-18 20 -29.5 50.5
t-11.5 62.5q0 14 1.5 27t5.5 23q5 18 16 39.5t23.5 40t24.5 31t19 12.5q2 0 4 -1.5t3 -8.5q1 -23 4 -39t12 -29.5t25 -27.5t45 -32q8 -5 14 -15.5t6 -26.5t-4 -34t-10.5 -36t-14 -35t-14.5 -32q-2 -4 -4.5 -8.5t-2.5 -9.5z" />
    <glyph glyph-name="meem" unicode="&#x645;" horiz-adv-x="749" 
d="M670 388q2 -5 2.5 -10.5t0.5 -11.5q0 -7 -8.5 -29t-21 -45.5t-26 -42t-22.5 -18.5q-17 0 -38.5 2t-44.5 2q-47 0 -102 -8t-106.5 -25t-94 -43.5t-64.5 -62.5q0 -22 9.5 -72t24.5 -115t31.5 -139.5t31.5 -147.5t24.5 -138t9.5 -110q0 -58 -2 -98t-5.5 -64.5t-8 -35.5
t-10.5 -11q-3 0 -6 2t-5.5 9.5t-4 21.5t-1.5 38q-1 56 -12 121t-28 135t-36 141.5t-35 141t-27 133.5t-11 119q0 57 8.5 101t25 79t40.5 62t56 50q0 21 6 55t17 73.5t26.5 79t34.5 72t41 52.5t47 20q48 0 91.5 -28.5t80 -71t65 -92t47.5 -91.5zM535 392q-5 12 -18.5 33
t-34.5 42t-49 36t-62 15q-20 0 -37.5 -17t-31.5 -42.5t-23.5 -55t-11.5 -54.5q30 13 65 21.5t70.5 13t69.5 6.5t63 2z" />
    <glyph glyph-name="uni.noon" unicode="&#x646;" horiz-adv-x="1035" 
d="M890 263q0 79 -16 134t-35 94t-35 65.5t-16 48.5q0 9 3.5 34t9.5 51t13 46t14 20q6 0 11.5 -4t7.5 -7q19 -24 38 -67.5t34 -97t24.5 -112t9.5 -113.5q0 -78 -13.5 -152t-48.5 -129q-28 -44 -80 -85.5t-118 -73.5t-142 -51t-152 -19q-73 0 -132 21.5t-101 62.5
t-64.5 100.5t-22.5 136.5q0 48 7.5 96t20.5 91.5t28.5 81t31.5 65.5t30.5 43.5t25.5 15.5q10 0 10 -14q0 -13 -13.5 -37.5t-30 -58t-30 -75.5t-13.5 -90q0 -62 23 -113.5t62.5 -89.5t94 -59t117.5 -21q48 0 100 11.5t101.5 31.5t94 46t78.5 55t53.5 59.5t19.5 58.5z
M503 1082q8 -13 23.5 -28.5t32.5 -29.5t34 -25.5t29 -15.5q4 -1 4 -6q0 -4 -5 -7q-5 -7 -20.5 -26t-32 -39t-31 -35.5t-18.5 -15.5q-11 0 -32 13t-42 30t-36.5 35t-15.5 29q0 4 4 9q9 15 24.5 34.5t31.5 37.5t28.5 30.5t16.5 12.5q3 0 5 -3z" />
    <glyph glyph-name="heh" unicode="&#x647;" horiz-adv-x="559" 
d="M484 259q0 -23 -4 -48.5t-12 -51t-19 -49.5t-25 -43q-10 -15 -29 -28t-44 -23.5t-55 -16.5t-62 -6q-39 0 -69 13t-51 34.5t-31.5 49.5t-10.5 59q0 30 10.5 69.5t28 82t39 83t44 73t43.5 52t36 19.5q22 0 58 -18t70 -52.5t58.5 -84.5t24.5 -114zM414 220q-7 23 -25.5 49
t-43.5 47.5t-54.5 36t-57.5 14.5q-20 -10 -37 -28t-29.5 -38t-19.5 -40t-7 -35q0 -11 8.5 -25t23.5 -26t34.5 -20.5t42.5 -8.5q29 0 58.5 6t52.5 16.5t38 24t16 27.5z" />
    <glyph glyph-name="waw" unicode="&#x648;" horiz-adv-x="851" 
d="M731 -34q0 12 -3 26.5t-7 27t-8 21.5t-5 12q-13 -23 -33 -36.5t-42 -20.5t-42 -9t-32 -2q-39 0 -65 13t-42.5 35t-23.5 50.5t-7 58.5q0 21 7 50t19 60t28 61.5t33.5 54.5t35.5 39t35 15q42 0 80 -34t67.5 -89.5t47 -126.5t17.5 -144q0 -48 -6.5 -93.5t-22.5 -94.5
q-16 -51 -43 -104t-65 -103t-87.5 -96t-109.5 -82q-23 -14 -53 -16.5t-69 -2.5q-42 0 -92 7t-93.5 17.5t-73 22.5t-29.5 21q0 8 14 10t31 2q47 0 88.5 2.5t80.5 11t78 25t82 43.5q31 20 65.5 47.5t69 60t65.5 67.5t55.5 69t39 66t15.5 58zM665 187q-8 16 -21.5 33.5t-30 32
t-35.5 23.5t-38 9q-11 -6 -21 -18t-18 -25.5t-13 -26t-5 -18.5q0 -29 20 -51.5t61 -22.5q24 0 41 6.5t29 16t19 21t12 20.5z" />
    <glyph glyph-name="alefmaksura" unicode="&#x649;" horiz-adv-x="1275" 
d="M1064 173q34 -14 49 -48.5t15 -71.5q0 -19 -1.5 -40t-7.5 -42t-17 -42.5t-30 -41.5q-54 -57 -128 -105t-157 -82t-168.5 -53t-162.5 -19q-95 0 -168 28.5t-122.5 79t-75 118.5t-25.5 147q0 70 16 133.5t37 114.5t41 85t28 45q14 17 23.5 22.5t15.5 5.5q10 0 10 -14
q0 -5 -6.5 -17.5t-14.5 -26.5q-17 -26 -31.5 -59t-25.5 -68t-17.5 -69t-6.5 -62q0 -67 28 -123.5t77 -97.5t116 -64t145 -23q71 0 140 14.5t130.5 37.5t113 50.5t89 53.5t58.5 46.5t21 30.5q0 21 -29.5 31t-74 16t-96.5 10.5t-96.5 15t-74 30t-29.5 54.5q0 71 24.5 136.5
t64.5 123t92 104.5t106 81t106.5 52.5t94.5 18.5q37 0 59.5 -19.5t22.5 -55.5q0 -14 -4 -34t-10.5 -39.5t-14 -33t-14.5 -13.5q-12 0 -17 6.5t-11 14.5t-16.5 14.5t-32.5 6.5q-37 0 -79.5 -14t-84 -37t-80 -51.5t-68 -57.5t-47 -56.5t-17.5 -46.5q0 -7 3 -13
q10 -21 36 -34.5t59.5 -21.5t70.5 -12t71 -6.5t60 -5t38 -7.5z" />
    <glyph glyph-name="yeh" unicode="&#x64a;" horiz-adv-x="1275" 
d="M1064 173q34 -14 49 -48.5t15 -71.5q0 -19 -1.5 -40t-7.5 -42t-17 -42.5t-30 -41.5q-54 -57 -128 -105t-157 -82t-168.5 -53t-162.5 -19q-95 0 -168 28.5t-122.5 79t-75 118.5t-25.5 147q0 70 16 133.5t37 114.5t41 85t28 45q14 17 23.5 22.5t15.5 5.5q10 0 10 -14
q0 -5 -6.5 -17.5t-14.5 -26.5q-17 -26 -31.5 -59t-25.5 -68t-17.5 -69t-6.5 -62q0 -67 28 -123.5t77 -97.5t116 -64t145 -23q71 0 140 14.5t130.5 37.5t113 50.5t89 53.5t58.5 46.5t21 30.5q0 21 -29.5 31t-74 16t-96.5 10.5t-96.5 15t-74 30t-29.5 54.5q0 71 24.5 136.5
t64.5 123t92 104.5t106 81t106.5 52.5t94.5 18.5q37 0 59.5 -19.5t22.5 -55.5q0 -14 -4 -34t-10.5 -39.5t-14 -33t-14.5 -13.5q-12 0 -17 6.5t-11 14.5t-16.5 14.5t-32.5 6.5q-37 0 -79.5 -14t-84 -37t-80 -51.5t-68 -57.5t-47 -56.5t-17.5 -46.5q0 -7 3 -13
q10 -21 36 -34.5t59.5 -21.5t70.5 -12t71 -6.5t60 -5t38 -7.5zM493 -637q-10 -13 -24 -29.5t-27 -31.5t-23 -25.5t-12 -10.5q-12 0 -33 13t-42 30t-36.5 35t-15.5 29q0 4 4 9q9 15 24.5 34.5t31 37.5t28.5 30.5t17 12.5q3 0 5 -3q7 -11 20 -24.5t28 -27t30.5 -24.5t28.5 -18
q10 15 25 33t29 34t25.5 26.5t14.5 10.5t5 -2q8 -13 23.5 -28.5t32.5 -30t34 -26t29 -15.5q4 -1 4 -6q0 -2 -5 -7q-5 -7 -20.5 -25.5t-32 -38.5t-31 -35.5t-18.5 -15.5q-9 0 -25.5 9t-34.5 22.5t-34 29t-25 28.5z" />
    <glyph glyph-name="fathatan" unicode="&#x64b;" 
d="M188 227q0 -3 -3.5 -16t-8.5 -28t-12 -28t-14 -16q-30 -13 -75.5 -33.5t-94 -42.5t-92.5 -43t-70 -36q-9 -5 -16 -5t-7 10q0 7 2.5 18t7 23.5t11.5 23.5t16 18q27 20 70 42.5t90.5 45t93 42t78.5 33.5q2 1 6.5 2t7.5 1q10 0 10 -11zM188 409q0 -3 -3.5 -16t-8.5 -28
t-12 -28t-14 -16q-30 -13 -75.5 -33.5t-94 -42.5t-92.5 -43t-70 -36q-9 -5 -16 -5t-7 10q0 7 2.5 18t7 23.5t11.5 23.5t16 18q27 20 70 42.5t90.5 45t93 42t78.5 33.5q2 1 6.5 2t7.5 1q10 0 10 -11z" />
    </font>
</defs>
</svg>
