<?xml version="1.0" standalone="no"?>
<!DOCTYPE svg PUBLIC "-//W3C//DTD SVG 1.1//EN" "http://www.w3.org/Graphics/SVG/1.1/DTD/svg11.dtd" >
<svg xmlns="http://www.w3.org/2000/svg" xmlns:xlink="http://www.w3.org/1999/xlink" version="1.1">
<metadata>
Created by FontForge 20201107 at Mon May 10 04:00:27 2021
 By www-data
Copyright (c) by Omar Type Foundry. All rights reserved. Latin subset portion based on Linux Libertine, copyright (c) 2003-2018, Philipp H. Poll. The Latin subset, only, is licensed under the SIL Open Font License, Version 1.1. [http://scripts.sil.org/OFL]
</metadata>
<defs>
<font id="OmarNaskh-Semibold" horiz-adv-x="0" >
  <font-face 
    font-family="Omar Naskh Semibold"
    font-weight="600"
    font-stretch="normal"
    units-per-em="2048"
    panose-1="0 2 4 0 0 0 7 0 0 0"
    ascent="1638"
    descent="-410"
    bbox="-2326 -1040 23912 2261"
    underline-thickness="100"
    underline-position="-800"
    unicode-range="U+0020-FEFC"
  />
<missing-glyph horiz-adv-x="676" 
d="M66 0v1085h544v-1085h-544zM134 68h408v949h-408v-949z" />
    <glyph glyph-name="shaddadammatan" unicode="&#xfc5e;" arabic-form="isolated" 
d="M152 817q-15 0 -18.5 5.5t-5 12t-7.5 12t-26 5.5t-46.5 -12t-55 -32.5t-56 -47t-49.5 -55t-35.5 -57t-13.5 -52.5q0 -20 9.5 -35.5t32.5 -26.5q13 -6 13 -25q0 -11 -4 -23.5t-9.5 -23t-12 -17.5t-11.5 -7q-37 0 -59.5 32t-22.5 80q0 44 20.5 91.5t53 92.5t72.5 85.5
t79.5 71t74 48.5t55.5 18q17 0 28.5 -6t19 -15.5t10.5 -21t3 -22.5q0 -14 -3.5 -27t-9.5 -24t-13 -17.5t-13 -6.5zM137 538q17 -10 24.5 -18.5t7.5 -17.5t-4.5 -20t-10.5 -21.5t-12.5 -17.5t-11.5 -7q-6 0 -10.5 8t-23.5 16q-35 -47 -80 -83.5t-88 -61t-78.5 -37
t-51.5 -12.5q-12 0 -12 8q0 17 45 47q69 48 118 86.5t87 80.5q-11 5 -27 13.5t-31 21t-26 30t-11 40.5q0 26 15.5 55.5t39.5 55t53.5 42t57.5 16.5q34 0 47 -28.5t13 -67.5q0 -37 -9 -73.5t-21 -54.5zM81 559q8 8 13 26t5 39q0 28 -11 45t-29 17q-9 0 -20 -6t-21.5 -14.5
t-17.5 -19t-7 -19.5t7.5 -19t20 -19t28.5 -17t32 -13zM28 194q0 -10 8 -15.5t18.5 -8.5t20 -3.5t13.5 -0.5q17 0 28.5 13.5t14.5 44.5q2 28 10 50t23 22q12 0 17.5 -17.5t5.5 -46.5q0 -45 -10.5 -78t-27.5 -54.5t-37.5 -32.5t-39.5 -11q-23 0 -43.5 8t-29.5 8
q-5 0 -14.5 -11.5t-24.5 -25t-36 -24.5t-49 -11q-26 0 -42.5 10t-26 26.5t-13 38t-3.5 44.5q0 11 3.5 28t10 33t16.5 27.5t22 11.5q14 0 14 -16q0 -8 -1 -15t-1 -18q0 -18 8.5 -34.5t33.5 -16.5q31 0 49 20q8 10 16 28.5t13 38.5q6 23 13.5 40.5t25.5 17.5q9 0 13 -9t4 -20
t-1 -22.5t-1 -18.5z" />
    <glyph glyph-name="shaddakasratan" unicode="&#xfc5f;" arabic-form="isolated" 
d="M188 227q0 -3 -3.5 -16t-8.5 -28t-12 -28t-14 -16q-30 -13 -75.5 -33.5t-94 -42.5t-92.5 -43t-70 -36q-9 -5 -16 -5t-7 10q0 7 2.5 18t7 23.5t11.5 23.5t16 18q27 20 70 42.5t90.5 45t93 42t78.5 33.5q2 1 6.5 2t7.5 1q10 0 10 -11zM38 600q0 -10 8 -15.5t18.5 -8.5
t20 -3.5t13.5 -0.5q17 0 28.5 13.5t14.5 44.5q2 28 10 50t23 22q12 0 17.5 -17.5t5.5 -46.5q0 -45 -10.5 -78t-27.5 -54.5t-37.5 -32.5t-39.5 -11q-23 0 -43.5 8t-29.5 8q-5 0 -14.5 -11.5t-24.5 -25t-36 -24.5t-49 -11q-26 0 -42.5 10t-26 26.5t-13 38t-3.5 44.5
q0 11 3.5 28t10 33t16.5 27.5t22 11.5q14 0 14 -16q0 -8 -1 -15t-1 -18q0 -18 8.5 -34.5t33.5 -16.5q31 0 49 20q8 10 16 28.5t13 38.5q6 23 13.5 40.5t25.5 17.5q9 0 13 -9t4 -20t-1 -22.5t-1 -18.5zM188 408q0 -3 -3.5 -16t-8.5 -28t-12 -28t-14 -16q-30 -13 -75.5 -33.5
t-94 -42.5t-92.5 -43t-70 -36q-9 -5 -16 -5t-7 10q0 7 2.5 18t7 23.5t11.5 23.5t16 18q27 20 70 42.5t90.5 45t93 42t78.5 33.5q2 1 6.5 2t7.5 1q10 0 10 -11z" />
    <glyph glyph-name="shaddafatha" unicode="&#xfc60;" arabic-form="isolated" 
d="M187 514q0 -3 -3.5 -16t-8.5 -28t-12 -28t-14 -16q-30 -13 -75.5 -33.5t-94 -42.5t-92.5 -43t-70 -36q-9 -5 -16 -5t-7 10q0 7 2.5 18t7 23.5t11.5 23.5t16 18q27 20 70 42.5t90.5 45t93 42t78.5 33.5q2 1 6.5 2t7.5 1q10 0 10 -11zM28 194q0 -10 8 -15.5t18.5 -8.5
t20 -3.5t13.5 -0.5q17 0 28.5 13.5t14.5 44.5q2 28 10 50t23 22q12 0 17.5 -17.5t5.5 -46.5q0 -45 -10.5 -78t-27.5 -54.5t-37.5 -32.5t-39.5 -11q-23 0 -43.5 8t-29.5 8q-5 0 -14.5 -11.5t-24.5 -25t-36 -24.5t-49 -11q-26 0 -42.5 10t-26 26.5t-13 38t-3.5 44.5
q0 11 3.5 28t10 33t16.5 27.5t22 11.5q14 0 14 -16q0 -8 -1 -15t-1 -18q0 -18 8.5 -34.5t33.5 -16.5q31 0 49 20q8 10 16 28.5t13 38.5q6 23 13.5 40.5t25.5 17.5q9 0 13 -9t4 -20t-1 -22.5t-1 -18.5z" />
    <glyph glyph-name="shaddadamma" unicode="&#xfc61;" arabic-form="isolated" 
d="M148 539q18 -9 24.5 -17.5t6.5 -18.5q0 -9 -4 -20t-10 -21.5t-12.5 -17.5t-10.5 -7q-6 0 -11.5 8t-23.5 17q-35 -48 -79.5 -84t-87.5 -60.5t-79 -37t-52 -12.5q-10 0 -10 8q0 16 43 45q69 49 118.5 87.5t87.5 80.5q-11 5 -27 13.5t-31 21t-25.5 29.5t-10.5 40
q0 25 15 54.5t39 54.5t53.5 42t57.5 17q33 0 46 -27.5t13 -65.5t-9 -74t-21 -55zM92 560q8 8 13 26t5 38q0 29 -11 45.5t-28 16.5q-9 0 -20 -5.5t-21 -14.5t-17 -19t-7 -19t7.5 -19t19.5 -19t27.5 -17t31.5 -13zM28 194q0 -10 8 -15.5t18.5 -8.5t20 -3.5t13.5 -0.5
q17 0 28.5 13.5t14.5 44.5q2 28 10 50t23 22q12 0 17.5 -17.5t5.5 -46.5q0 -45 -10.5 -78t-27.5 -54.5t-37.5 -32.5t-39.5 -11q-23 0 -43.5 8t-29.5 8q-5 0 -14.5 -11.5t-24.5 -25t-36 -24.5t-49 -11q-26 0 -42.5 10t-26 26.5t-13 38t-3.5 44.5q0 11 3.5 28t10 33t16.5 27.5
t22 11.5q14 0 14 -16q0 -8 -1 -15t-1 -18q0 -18 8.5 -34.5t33.5 -16.5q31 0 49 20q8 10 16 28.5t13 38.5q6 23 13.5 40.5t25.5 17.5q9 0 13 -9t4 -20t-1 -22.5t-1 -18.5z" />
    <glyph glyph-name="shaddakasra" unicode="&#xfc62;" arabic-form="isolated" 
d="M38 419q0 -10 8 -15.5t18.5 -8.5t20 -3.5t13.5 -0.5q17 0 28.5 13.5t14.5 44.5q2 28 10 50t23 22q12 0 17.5 -17.5t5.5 -46.5q0 -45 -10.5 -78t-27.5 -54.5t-37.5 -32.5t-39.5 -11q-23 0 -43.5 8t-29.5 8q-5 0 -14.5 -11.5t-24.5 -25t-36 -24.5t-49 -11q-26 0 -42.5 10
t-26 26.5t-13 38t-3.5 44.5q0 11 3.5 28t10 33t16.5 27.5t22 11.5q14 0 14 -16q0 -8 -1 -15t-1 -18q0 -18 8.5 -34.5t33.5 -16.5q31 0 49 20q8 10 16 28.5t13 38.5q6 23 13.5 40.5t25.5 17.5q9 0 13 -9t4 -20t-1 -22.5t-1 -18.5zM188 227q0 -3 -3.5 -16t-8.5 -28t-12 -28
t-14 -16q-30 -13 -75.5 -33.5t-94 -42.5t-92.5 -43t-70 -36q-9 -5 -16 -5t-7 10q0 7 2.5 18t7 23.5t11.5 23.5t16 18q27 20 70 42.5t90.5 45t93 42t78.5 33.5q2 1 6.5 2t7.5 1q10 0 10 -11z" />
    <glyph glyph-name="shaddasuperscriptalef" unicode="&#xfc63;" arabic-form="isolated" 
d="M1 422q0 23 -4 51.5t-14 60.5t-27 65t-43 65q-1 2 -1.5 5t-0.5 4q4 23 10 51t10 52q0 3 3 3l2 -1l1 -1q14 -11 33.5 -36.5t37 -63t30 -85.5t12.5 -102q0 -14 -2.5 -38t-7.5 -47t-12 -40t-16 -17q-11 0 -11 34v40zM35 197q0 -9 7.5 -16t17.5 -11t20 -6t14 -2
q19 0 27.5 19.5t14.5 42.5t12.5 42.5t20.5 19.5t19.5 -18.5t5.5 -48.5q0 -23 -9 -54t-26 -58.5t-41 -46.5t-55 -19q-12 0 -22 4t-17.5 9.5t-13 9.5t-9.5 4q-5 0 -15 -11.5t-26 -26t-38 -26t-52 -11.5q-27 0 -44 10.5t-27 28t-14 40.5t-4 47q0 11 4 28.5t11 34.5t17.5 29.5
t22.5 12.5q16 0 16 -19q0 -7 -1.5 -15t-1.5 -17q0 -20 9 -37t35 -17q35 0 51 19q9 10 16 32t16 43.5t20.5 38t29.5 16.5q9 0 12 -5t3 -13q0 -11 -3 -22.5t-3 -30.5z" />
    <glyph glyph-name="Allah" unicode="&#xfdf2;" horiz-adv-x="1880" arabic-form="isolated" 
d="M867 1082q-20 -32 -38 -52t-33.5 -30.5t-29 -14t-24.5 -3.5q-26 0 -45.5 15t-33 38t-20.5 50.5t-7 53.5q0 27 6 61t15.5 64t21 51t22.5 21q12 0 16 -15t4 -32q0 -19 -3 -34.5t-3 -32.5q0 -23 7.5 -38.5t32.5 -15.5q28 0 46.5 16t30.5 40.5t18.5 53t11 53t8.5 40.5t10 16
q10 0 17 -6.5t11.5 -15.5t6.5 -17.5t2 -12.5q0 -17 -3.5 -37t-4.5 -31q5 -9 23 -18t32 -9t22.5 15t13.5 38.5t7 52t4 54.5q1 12 7 18t11 6q6 0 12.5 -11t12 -29t9 -40.5t3.5 -44.5q0 -32 -8 -74t-24.5 -80t-43 -64.5t-62.5 -26.5q-29 0 -61 28zM672 1936q0 2 0.5 4.5
l1.5 7.5l16 120q2 13 6 15.5t8 2.5q2 0 10 -5q31 -21 64 -68t60 -105.5t44.5 -122.5t17.5 -119q0 -17 -1.5 -49t-6.5 -64t-13.5 -56t-21.5 -24q-7 0 -12 9t-7 36q-5 45 -11 91t-22 94t-44.5 98t-76.5 103q-5 5 -8.5 12.5t-3.5 19.5zM1694 33q-2 61 -11 148t-21.5 184
t-26 196t-25.5 183.5t-19.5 146.5t-7.5 85q0 17 4.5 43t12 54.5t17.5 57t21 51.5t22.5 37t21.5 14q22 0 25 -68q2 -49 9 -120t17 -155.5t21.5 -176.5t21 -183t15.5 -175t6 -152q0 -56 -8.5 -103.5t-20.5 -81.5t-26 -53t-25 -19q-13 0 -17 19.5t-6 67.5zM434 423
q-11 -16 -33 -31t-49 -28.5t-55 -26.5t-51 -25t-38 -23.5t-15 -22.5q0 -14 24 -30t72 -16q42 0 74.5 14.5t65.5 43.5zM435 128q-21 -20 -46.5 -40t-53 -36t-55 -26t-51.5 -10q-27 0 -57 10t-55.5 29.5t-42 48t-16.5 65.5q0 43 20.5 82.5t48.5 72t57 56t46 35.5
q31 21 65.5 39.5t65.5 35t53.5 31t29.5 28.5q3 31 11.5 68.5t19 70t22 54.5t20.5 22q7 0 12.5 -12t9 -31.5t5 -45.5t1.5 -54q0 -59 -2 -120.5t-2 -133.5q0 -43 7.5 -82.5t27 -70t52 -48.5t82.5 -18q46 0 80.5 14.5t59.5 40.5t42 61.5t28 77.5q-5 37 -10.5 77t-12.5 88.5
t-15 108.5t-18 137q0 4 2.5 19t7 35.5t10.5 43t13 42t14.5 32t14.5 12.5q8 0 16.5 -24t17 -64.5t17.5 -93t18.5 -109t20.5 -113.5t24 -106q13 -51 33 -94t48.5 -74t66 -48.5t85.5 -17.5q24 0 38 7t21.5 17t9.5 22t2 23q0 8 -9 41.5t-22.5 80.5t-29 103t-29 109t-22.5 98.5
t-9 72.5q0 4 2.5 20t7.5 37t11 45t13 44t14 33t14 13q6 0 16.5 -27.5t23.5 -73t28 -105t29 -123t27.5 -126.5t23.5 -117t16 -93.5t6 -55.5q0 -61 -9 -117t-31 -98.5t-58.5 -68t-91.5 -25.5q-60 0 -107.5 24.5t-83.5 62t-62 82.5t-42 87q-14 -47 -37.5 -99.5t-58 -97t-81 -74
t-104.5 -29.5q-45 0 -87.5 20t-77 54t-58.5 78t-31 91z" />
    <glyph glyph-name="Muhammad" unicode="&#xfdf4;" horiz-adv-x="1894" arabic-form="isolated" 
d="M1742 232q-27 -2 -75.5 -9t-110 -19.5t-130.5 -30.5t-135.5 -42t-126.5 -55t-103 -68q-4 -3 -5 -7t-1 -7q1 -24 27 -42t61 -32.5t70.5 -26.5t56.5 -23q19 -11 19 -55q0 -23 -7.5 -53t-18 -56.5t-20.5 -45t-16 -18.5q-83 0 -169 34.5t-163.5 97t-139.5 149.5t-97 192
q-5 15 -11.5 32.5t-10.5 30.5q-2 -8 -5.5 -20t-8.5 -23q-17 -43 -54.5 -79t-88 -62t-109.5 -40.5t-120 -14.5q-35 0 -70 7t-63 23t-45 42t-17 64q0 36 4.5 73t12.5 68t19 51t25 20q8 0 17.5 -9.5t16.5 -38.5q3 -14 16 -24t30 -17t37 -10t38 -3q51 0 105.5 5.5t99 24
t73.5 55.5t29 100q0 45 -6.5 90t-15 88t-15 83.5t-6.5 76.5q0 28 8 61.5t19.5 63t23.5 49.5t21 20q11 0 16 -16.5t10 -48.5q8 -56 19.5 -117t24.5 -122t26.5 -118.5t25.5 -105t22.5 -82t17.5 -49.5q13 -29 31 -63t40.5 -67t49 -62.5t55.5 -50.5q5 35 25 68.5t50 63.5t67 55
t77 44q-63 5 -126.5 8.5t-130.5 3.5q-14 0 -26 -1t-22 -1q-24 0 -24 26q0 16 9.5 42t23 53t27.5 51t24 37q36 51 89 97t108 84.5t105 67.5t81 45q-8 10 -17.5 26t-9.5 30q0 28 15 65.5t37 71t45.5 56.5t41.5 23q39 0 84.5 -21.5t83.5 -52.5t63.5 -65.5t25.5 -59.5
q0 -21 -11.5 -52t-29.5 -62t-40.5 -55.5t-44.5 -31.5q-51 -17 -104 -27.5t-110 -26.5t-120 -42t-133 -73q57 0 105.5 -3t92 -6t84.5 -6t82 -3q31 0 74 1.5t93 5t103.5 8.5t104.5 11q16 0 16 -30q0 -17 -9.5 -48t-23.5 -62.5t-30 -55.5t-28 -27z" />
    <glyph glyph-name="SallallahoAlaiheWasallam" unicode="&#xfdfa;" horiz-adv-x="2398" arabic-form="isolated" 
d="M1872 -177q-2 -18 -5 -37.5t-8 -38.5q-9 -31 -25.5 -55.5t-37.5 -41.5t-45 -26t-47 -9q-36 0 -64.5 19t-45.5 68q-46 -30 -114.5 -53.5t-149.5 -40t-171 -25t-178 -8.5q-108 0 -205 13t-174 40q-32 11 -63.5 26t-58 35.5t-46 48t-27.5 63.5q-18 -22 -38.5 -35.5
t-62.5 -13.5q-17 0 -43 3t-50 11t-41.5 21.5t-17.5 35.5q0 27 14.5 47t29.5 40q24 32 53 50t57.5 28.5t53 17t39.5 15.5q11 35 26 59t27 24q11 0 16 -18t5 -60q0 -44 2.5 -74t7.5 -51t11.5 -35t15.5 -25q25 -32 78.5 -54t126 -36t159 -20t176.5 -6q78 0 155.5 6.5t149 20
t134 34t110.5 47.5q9 5 17 8.5t13 3.5q15 0 15 -17q0 -11 -5 -29q6 -20 25 -32.5t44 -12.5q11 0 25.5 4.5t28.5 14.5q18 13 27.5 33t14 46.5t5.5 57.5t1 66q0 56 -3 120.5t-6.5 126t-6.5 115t-3 89.5q0 8 3.5 22.5t8 30.5t9.5 30.5t8 21.5q5 11 11.5 19.5t13.5 8.5
q4 0 13.5 -12t12.5 -41q6 -68 11.5 -135t10 -127t8.5 -109.5t8 -80.5q3 -26 7.5 -54.5t12 -52.5t18.5 -39.5t29 -15.5q-9 15 -13 34t-4 39q0 39 14 83.5t39.5 82.5t61 63t77.5 25q11 0 24.5 -1.5t30.5 -9t37 -22.5t44 -41q19 -21 19 -38q0 -19 -19 -19q-7 0 -19 6
q-17 8 -38 11.5t-42 3.5q-29 0 -54.5 -6.5t-45.5 -17t-31.5 -23.5t-11.5 -25q0 -13 10 -29t28 -31.5t42 -28t51 -18.5q16 4 36.5 11.5t41 16.5t39.5 19.5t33 21.5q12 9 20 9q7 0 10 -6.5t3 -15.5q0 -6 -1 -11t-3 -10q-11 -33 -19.5 -49.5t-10.5 -19.5q-26 -23 -67 -47.5
t-87.5 -44t-94.5 -32t-89 -12.5q-39 0 -69.5 14.5t-47.5 47.5zM1230 759q-9 -31 -22.5 -53t-24.5 -22q-7 0 -12 12t-5 38q0 42 -3 97.5t-7.5 115t-10 119.5t-10 111.5t-7.5 91t-3 58.5q0 12 7.5 37.5t18.5 51t23.5 45t23.5 19.5q5 0 9.5 -8t4.5 -29q0 -46 4.5 -112
t10 -140.5t10 -150.5t4.5 -142q0 -43 -2 -78t-9 -61zM1657 -536q-5 -9 -13.5 -23t-17.5 -27.5t-17.5 -23.5t-14.5 -10q-8 0 -23.5 10.5t-31.5 23.5t-29 24.5t-14 13.5q-5 -7 -13 -21t-16.5 -27.5t-17.5 -23.5t-16 -10q-8 0 -23 11t-29.5 25.5t-26 27.5t-12.5 16q-3 7 -3 14
q0 12 8.5 31t20.5 37t24.5 30.5t21.5 12.5q6 0 18 -6.5t25.5 -17t27 -23t22.5 -24.5q20 35 35.5 55t27.5 20q9 0 25 -10t32 -24.5t28 -29t12 -23.5q0 -5 -2 -11.5t-8 -16.5zM2063 1278q-8 -21 -17.5 -39.5t-18.5 -23.5q-23 -9 -64.5 -26.5t-90 -38t-99 -41.5t-91.5 -38.5
t-67 -28.5t-25 -11q-9 0 -11 8t-2 16q0 20 11 41.5t28 32.5q16 11 47 26.5t69.5 33t82 36t85 35.5t77 31t59.5 23q9 4 17 4q16 0 16 -16q0 -9 -6 -24zM1858 838q40 1 85.5 7.5t88.5 17t79 24.5t57 30q-10 15 -33 31t-64 16q-46 0 -101.5 -34.5t-111.5 -91.5zM1555 421
q36 0 65 -24t50 -63t32.5 -87.5t11.5 -97.5q0 -58 -12.5 -103t-33.5 -78t-47.5 -56.5t-54.5 -40t-55 -26.5t-49 -17q-13 -5 -27.5 -6.5t-30.5 -1.5q-39 0 -88.5 16.5t-115.5 54.5q-15 8 -21.5 15t-6.5 18q0 15 34 15q28 0 57 -3.5t54 -3.5q42 0 79 5t64 16q31 12 64 31
t60.5 40t45.5 42t18 38q0 14 -0.5 19.5t-4.5 12.5q-12 -17 -36.5 -25t-53.5 -8q-57 0 -82 28t-25 82q0 36 10.5 73t26.5 67t35 49t37 19zM716 -34q-77 0 -124.5 32t-75.5 86.5t-40.5 127.5t-17.5 155q-10 -5 -19 -12.5t-21 -14.5q18 -27 25 -53t7 -52q0 -19 -3.5 -41.5
t-13.5 -41.5t-26.5 -31.5t-41.5 -12.5q-57 0 -99 16.5t-66 34.5q-9 -15 -25.5 -32t-36 -31.5t-39.5 -24.5t-36 -10q-14 0 -22.5 9t-8.5 27q0 29 12.5 47.5t38.5 23.5t46 16.5t39 29.5q-6 22 -6 44q0 19 4.5 38.5t14.5 37.5q17 32 37 42t44 10q11 0 25 -1.5t26 -1.5
q44 0 78 17.5t58 45.5q-1 15 -1.5 25.5t-1 23t-0.5 31v49.5q0 16 6.5 36.5t16 39t20 31t18.5 12.5q11 0 13 -30q2 -57 3.5 -116t5 -114.5t9.5 -105t16 -87.5q9 -33 28 -57t44 -40t54.5 -23.5t58.5 -7.5q35 0 68 8.5t59 25.5q17 11 28.5 25t20 26t16 20t16.5 8q8 0 13.5 -7.5
t5.5 -21.5q0 -6 -1 -18t-7 -26q13 -11 42.5 -20.5t62.5 -9.5q21 0 36.5 6.5t27.5 17.5t21.5 25.5t18.5 30.5l7 14t8.5 16t11 13.5t14.5 5.5q18 0 18 -36q0 -9 -2 -21.5t-2 -18.5q8 -8 20 -16t25 -15t26.5 -11.5t25.5 -4.5q8 0 13 1q0 13 -6 32t-13 33q-1 1 -1 4
q0 7 4.5 17.5t10.5 23.5q14 29 20.5 45t17.5 16q10 0 16 -12t9.5 -29t5 -37t1.5 -36q0 -38 -7 -73.5t-21.5 -63.5t-37.5 -45t-55 -17q-14 0 -30.5 5t-32.5 13.5t-31 19.5t-25 23q-24 -34 -61 -49.5t-77 -15.5q-30 0 -61.5 10t-64.5 39q-19 -22 -41 -35t-45 -20t-46.5 -9.5
t-44.5 -2.5zM1017 770q-17 -26 -41.5 -38t-45.5 -12q-8 0 -18 2q-6 -23 -9.5 -45t-3.5 -41q0 -38 18.5 -68.5t51.5 -52t78 -33t98 -11.5q63 0 123 10.5t106.5 25.5t75 30t28.5 24q0 11 -23.5 22.5t-55 20.5t-63.5 15t-50 6q-11 0 -15 10.5t-4 23.5q0 1 2 11t7.5 23.5
t15.5 27t27 21.5q21 10 33.5 36.5t19 58t8 63.5t1.5 54q0 108 -8.5 210t-8.5 191v28.5t2 25.5q1 9 8.5 27t18 36t22 31.5t20.5 13.5q11 0 12 -24q9 -161 17.5 -274t11.5 -167q5 -95 26 -139t76 -44q51 0 86 45q11 15 18.5 21t12.5 6q9 0 13.5 -8.5t4.5 -21.5q0 -4 -0.5 -7.5
t-1.5 -8.5q9 -22 27 -37t48 -17q45 66 93.5 116.5t93.5 84t83 51t62 17.5q23 0 46 -9.5t42.5 -24.5t33.5 -34t19 -38q4 -12 4 -37q0 -46 -22.5 -93t-59.5 -86q-13 -14 -38 -26.5t-57 -23t-68 -19t-71.5 -14.5t-68.5 -9t-58 -3h-20t-15 1q-18 -30 -27.5 -47.5t-23.5 -17.5
q-20 0 -20 24q0 8 4 21.5t13 27.5q-26 8 -44.5 28.5t-27.5 42.5q-45 -51 -103 -51q-45 0 -79 22t-53 72q-2 -20 -7 -42.5t-16 -47.5q28 -6 59 -16.5t56.5 -25.5t42.5 -35.5t17 -46.5q0 -8 -1 -11q-15 -55 -45 -96.5t-70.5 -72t-87.5 -50.5t-95 -32t-93 -17t-82 -5
q-64 0 -117.5 18.5t-92 51.5t-60 78.5t-21.5 99.5q0 49 16 97.5t33 85.5q-30 22 -47 46.5t-30 57.5q-12 -31 -31 -58t-41.5 -47.5t-47.5 -32t-49 -11.5q-39 0 -67 15.5t-47 39.5t-29.5 53.5t-14.5 57.5q-14 -10 -30 -20.5t-33 -19t-33.5 -14t-31.5 -5.5q-14 0 -32.5 6.5
t-35 18.5t-28 29.5t-11.5 40.5q0 16 8.5 33.5t20.5 33.5t26.5 29.5t26.5 22.5q26 19 55 35t71 32q17 6 26 11.5t15 14.5q1 23 10 47t20.5 43.5t22.5 32t15 12.5q7 0 10 -8.5t3 -29.5q0 -11 -1.5 -30t-3 -42.5t-2.5 -51t-1 -54.5q0 -40 3.5 -71.5t13.5 -44.5q8 -10 25.5 -25
t43.5 -15q19 0 38.5 10t35.5 26t25.5 36.5t9.5 40.5q-3 29 -7 54t-8 48.5t-7 47t-3 50.5v12t1 13q1 11 7 31.5t14 41t17 35.5t17 15q7 0 14 -12t10 -40q1 -14 6.5 -50t11.5 -77.5t12.5 -80t10.5 -57.5q5 -23 15.5 -46t26 -42t36 -31t45.5 -12q21 0 21 10q-4 43 -14.5 89
t-21.5 91.5t-19.5 87.5t-8.5 77q0 12 4.5 23.5t9.5 22.5q11 29 19.5 43t17.5 14q19 0 34 -87q6 -34 15 -75.5t17.5 -86.5t15 -92t6.5 -92t-8 -82.5t-28 -66.5zM748 1395q-16 -27 -38.5 -41.5t-45.5 -14.5q-32 0 -50 27.5t-18 69.5q0 16 3 34.5t9 35t15.5 27.5t21.5 11
q13 0 13 -16q0 -8 -2.5 -17t-2.5 -19q0 -14 6.5 -25t22.5 -11q17 0 26 16.5t16 36t15 36t25 16.5q6 0 11 -4.5t5 -18.5q0 -10 -1.5 -16t-1.5 -11q0 -13 11.5 -17.5t19.5 -4.5q13 0 19.5 14t11 31.5t9.5 31.5t16 14q5 0 13.5 -15t8.5 -44q0 -25 -7.5 -51t-19.5 -47.5
t-28.5 -35t-34.5 -13.5q-22 0 -48 21zM469 1035q-6 -8 -30 -18.5t-50.5 -20.5t-47.5 -18.5t-21 -11.5q0 -10 22 -17.5t55 -7.5q16 0 32.5 3.5t35.5 12.5zM402 -43q-51 -11 -81.5 -22t-47.5 -20.5t-22.5 -16.5t-5.5 -11q0 -9 11.5 -15.5t28.5 -10.5t35.5 -6t32.5 -2
q30 0 49 16v88zM1611 247q-10 36 -34.5 52.5t-40.5 16.5q-8 0 -15 -8t-12.5 -19t-9 -22t-3.5 -18q0 -20 13 -28.5t34 -8.5q26 0 47 9t21 26zM391 200q13 0 13 14q0 8 -15 20q-23 19 -48 32t-47 20.5t-38.5 10.5t-23.5 3q-5 0 -11 -5.5t-6 -13.5q0 -6 3 -7q34 -35 79.5 -54.5
t93.5 -19.5zM2278 484q-2 -8 -4.5 -21t-6 -26t-7.5 -23.5t-8 -12.5q-24 -11 -59.5 -26.5t-72.5 -33t-71 -34.5t-55 -30q-8 -4 -11 -4q-6 0 -6 7q0 6 1.5 19.5t4.5 28t8 27.5t13 18q21 14 54 32t69.5 36t72 34.5t61.5 27.5q8 4 14 4t6 -8q0 -5 -3 -15zM1727 1395
q-16 -27 -38.5 -41.5t-45.5 -14.5q-32 0 -50 27.5t-18 69.5q0 16 3 34.5t9 35t15.5 27.5t21.5 11q13 0 13 -16q0 -8 -2 -17t-2 -19q0 -14 6 -25t22 -11q18 0 27 16.5t15.5 36t15 36t24.5 16.5q6 0 11 -4.5t5 -18.5q0 -10 -1.5 -16t-1.5 -11q0 -13 11.5 -17.5t19.5 -4.5
q13 0 19.5 14t11 31.5t9.5 31.5t16 14q5 0 13.5 -15t8.5 -44q0 -25 -7.5 -51t-19.5 -47.5t-28.5 -35t-34.5 -13.5q-22 0 -48 21z" />
    <glyph glyph-name="Jallajalaluhoo" unicode="&#xfdfb;" horiz-adv-x="2699" arabic-form="isolated" 
d="M2308 1266q-5 -16 -13 -29.5t-20 -15.5q-23 -4 -76 -20.5t-120.5 -40t-142.5 -51.5t-142.5 -55.5t-120 -52.5t-75.5 -42q-8 -7 -15 -7q-8 0 -11 8t-3 19q0 7 2 18t5.5 22t7.5 20.5t8 12.5q18 15 56 35t87.5 42.5t107 46t116.5 46t115.5 42.5t103.5 35t80 23.5t46 8.5
q11 0 14 -3t3 -9q0 -10 -4.5 -23t-8.5 -30zM1433 1219q-20 -28 -44 -44t-46 -16q-30 0 -52.5 33t-22.5 85q0 20 4 41t10 38t14.5 27.5t17.5 10.5t12 -6.5t3.5 -16.5t0.5 -21.5t3.5 -21.5t11 -16.5t24.5 -6.5q20 0 31 19t19.5 42t17.5 42t26 19q5 0 9.5 -5t4.5 -21
q0 -6 -2.5 -16.5t-2.5 -21.5q0 -12 13 -17.5t21 -5.5q20 0 28.5 16.5t13.5 36.5t10 37t18 18q5 0 15 -16.5t10 -54.5q0 -28 -8 -60t-22.5 -59t-34 -44.5t-41.5 -17.5q-9 0 -21.5 5t-24.5 19q-7 5 -8 5t-8 -6zM1011 1363q-7 -22 -15 -42t-22 -27q-19 -10 -46.5 -22.5
t-57.5 -26t-59.5 -27t-53.5 -24t-39 -17l-15 -6.5q-8 0 -11 6t-3 15q0 7 2.5 19.5t7 25.5t11 24.5t14.5 16.5q24 15 59 33t72.5 36t72.5 34.5t61 28.5q9 5 15 5q15 0 15 -17q0 -13 -8 -35zM1929 714q-43 17 -92 33t-97 16q-20 0 -35 -3t-26.5 -6.5t-20.5 -6.5t-17 -3
q-9 0 -15.5 5t-6.5 19q0 7 5 22q11 45 29.5 73t38.5 44t40 21.5t35 5.5q26 0 51 -5.5t49.5 -13.5t47.5 -17.5t46 -16.5q59 -20 122 -37t125 -29t122.5 -19t114.5 -7q28 0 38.5 -5t10.5 -13q0 -3 -8.5 -25t-21.5 -47t-27 -45t-24 -20q-20 0 -32 1.5t-23 1.5
q-106 0 -206 -17.5t-194 -51.5q-44 -16 -107 -37t-133.5 -39.5t-143 -31.5t-135.5 -13q-82 0 -138 23t-91.5 60.5t-53.5 86t-24 98.5q-5 44 -10 73.5t-8 29.5q-2 0 -4.5 -10t-5 -23.5t-4.5 -27t-3 -21.5q-3 -34 -11 -79t-27.5 -98.5t-53.5 -114.5t-90 -127
q-20 -24 -51.5 -41.5t-68 -29.5t-76.5 -20t-76.5 -12.5t-67.5 -6t-50 -1.5q-23 0 -37 3.5t-14 13.5q0 13 18 25t49 27t72 35t87.5 47.5t95.5 64.5t95 87q14 16 24.5 26.5t17.5 21.5q-27 58 -64 112.5t-78.5 101t-84.5 81.5t-82 53q-14 -14 -26.5 -25t-29.5 -11
q-14 0 -35 8.5t-46.5 25.5t-53 43.5t-52.5 62.5q-9 13 -14 40t-5 60q0 25 2.5 49.5t7.5 43.5t13 31t19 12q26 0 73.5 -21t105.5 -59t121 -91t119 -118t100.5 -139.5t65.5 -154.5q21 52 33.5 105t19 105.5t9 104.5t2.5 102q0 43 2 81.5t9 75.5q2 9 9.5 34t17.5 50.5
t21.5 45.5t22.5 20q8 0 14 -12.5t10.5 -30.5t7 -37.5t4.5 -32.5q12 -96 18 -171.5t10.5 -135.5t9 -108t13.5 -90q4 -23 19 -47.5t42 -44.5t66.5 -33.5t93.5 -13.5q70 0 129 5.5t115.5 16.5t114.5 26.5t127 36.5zM327 -21q-14 -14 -29.5 -27.5t-33 -24.5t-37.5 -18t-42 -7
q-27 0 -51 7t-42 20t-29 30t-11 37q0 34 12.5 65.5t30 56.5t35 43.5t27.5 27.5q32 30 68 50.5t69 45.5q1 29 4 57.5t9 51t14 36.5t18 14q7 0 14.5 -17t12.5 -61q9 -79 21.5 -160.5t32.5 -154.5q3 -12 13 -32.5t27 -40.5t42 -35t59 -15q33 0 53.5 17t20.5 41q0 8 -0.5 18.5
t-2.5 28.5t-5 46.5t-8 71.5q20 2 44.5 4.5t42.5 6.5q4 -38 6 -69.5t2 -60.5q0 -45 -8 -97t-28.5 -95.5t-55 -72.5t-86.5 -29q-42 0 -77 25.5t-62 62.5t-45 78.5t-25 74.5zM312 66l-2.5 30t-3 37.5l-3 39t-2.5 34.5q-20 -19 -41 -35l-42 -32t-40 -32t-34 -34q7 -7 19.5 -11
t26.5 -6t27 -2.5t21 -0.5q18 0 37.5 3.5t36.5 8.5zM1514 686q-17 -2 -32.5 -3.5t-31.5 -1.5q-23 0 -44 3q-3 34 -8.5 73.5t-10.5 77t-8.5 68.5t-3.5 47q0 21 7.5 48.5t18 53t21.5 43t18 17.5q10 0 17.5 -17.5t9.5 -44.5q8 -93 22 -186t25 -178zM246 867q16 12 30.5 17.5
t24.5 5.5q22 0 22 -14q-1 -8 -9 -21.5t-27 -27.5q-30 -22 -57.5 -54t-48.5 -65.5t-34 -66t-13 -55.5q0 -13 10.5 -17t24.5 -4q13 0 25.5 2t18.5 2q30 0 30 -57q0 -23 -5 -44t-15.5 -37t-27 -25.5t-39.5 -9.5q-27 0 -47.5 10.5t-34 28.5t-20 41.5t-6.5 48.5q0 51 16.5 100
t44 93t63.5 81.5t74 67.5zM2100 273q-44 17 -96 33t-101 16q-20 0 -34.5 -3t-26.5 -7l-21 -7t-17 -3q-10 0 -16.5 5.5t-6.5 19.5q0 10 4 23q15 50 35 78.5t40.5 43t38.5 18t29 3.5q48 0 98.5 -18.5t96.5 -34.5q59 -20 121.5 -37t125 -29t123 -18.5t114.5 -6.5q27 0 38 -5
t11 -14q0 -3 -8.5 -25t-21 -47t-26.5 -45t-24 -20q-20 0 -32.5 1.5t-23.5 1.5q-107 0 -206.5 -16.5t-193.5 -51.5q-30 -12 -71 -28t-88 -31t-97.5 -25.5t-99.5 -10.5q-67 0 -118.5 26.5t-79.5 63.5q3 -37 7 -74t4 -80q0 -59 -6 -104t-15.5 -79t-20.5 -58t-21 -42
q-11 -19 -40 -51.5t-79.5 -63.5t-122 -53.5t-167.5 -22.5q-72 0 -126 25t-89 66t-52.5 94t-17.5 109q0 49 10.5 105.5t27 105t35 80.5t35.5 32q13 0 13 -17q0 -11 -6.5 -29t-14 -41t-13.5 -50t-6 -56q0 -44 12 -77.5t31.5 -58.5t45.5 -42t53 -27t53.5 -14.5t48.5 -4.5
q57 0 115.5 14.5t107.5 37t84 51t45 56.5q1 1 1 32q0 39 -6 100.5t-14.5 131t-18 141.5t-16.5 132q32 0 66 1.5t52 7.5q12 -47 29 -83t41 -60.5t57 -37.5t78 -13q36 0 70 3.5t72 11.5t84.5 20.5t107.5 31.5zM2323 -97l-13.5 -31.5t-15 -33t-15 -26t-11.5 -10.5
q-9 0 -28.5 10.5t-39 24t-35 25t-16.5 13.5q-6 6 -6 16q0 13 8 37t20 48t25.5 41.5t24.5 17.5q6 0 18.5 -7t27.5 -16.5t29.5 -20.5t25.5 -20q8 -6 10.5 -12.5t2.5 -14.5q0 -10 -3.5 -20t-8.5 -21zM1110 119q19 25 43.5 50.5t51.5 46.5t56.5 34.5t58.5 13.5q31 0 53.5 -17.5
t22.5 -56.5q0 -21 -9.5 -36.5t-23 -26t-28.5 -15.5t-25 -5q-15 0 -15 9t1 12.5t1 11.5q0 11 -7 16t-15 5q-19 0 -46 -14.5t-54 -40.5t-49.5 -64t-32.5 -84q-4 -16 -16.5 -22t-23.5 -6q-4 0 -11 1.5t-7 7.5q6 28 10.5 50.5t8 40.5t5.5 34t2 31q0 7 -1 21t-5 28t-11.5 25
t-20.5 11q-11 0 -23 -5t-18 -5q-11 0 -17 12t-6 30q0 13 4.5 28t14 28t24.5 21.5t36 8.5t35.5 -10t24 -26.5t14 -39t4.5 -47.5q0 -34 -6 -56zM597 363q-6 53 -12 88.5t-10.5 63.5t-7 52t-2.5 54q-9 14 -13 29t-4 30t3 30q3 11 13.5 33.5t24 44.5t27.5 38.5t23 16.5
q15 0 15 -28q0 -6 -0.5 -12.5t-0.5 -13.5q0 -14 3.5 -24t9 -18.5t13 -15.5t15.5 -16q3 -3 3 -8q0 -6 -3.5 -19t-8.5 -28.5t-10.5 -30.5t-9.5 -25q2 -34 5 -57.5t6 -44t6.5 -41t7.5 -47.5q-9 -8 -21 -15.5t-24.5 -14t-25 -12t-22.5 -9.5zM1981 -213q-6 -15 -14 -32.5
t-15.5 -33.5t-14.5 -26.5t-11 -10.5q-9 0 -28.5 10.5t-39 24t-35 25.5t-16.5 14q-5 7 -5 18q0 12 8 35.5t19.5 47t25 41t24.5 17.5t30.5 -11t38 -25.5t32 -29.5t13.5 -24q0 -8 -4 -19t-8 -21z" />
    <glyph glyph-name="uniFDFC" unicode="&#xfdfc;" horiz-adv-x="2393" arabic-form="isolated" 
d="M935 898q7 -83 17.5 -170.5t20.5 -176t16.5 -176.5t6.5 -171q0 -47 -4 -108t-15 -123t-30.5 -119t-51.5 -95q-15 -18 -46.5 -49t-83.5 -60.5t-125 -51t-170 -21.5q-88 0 -151 20.5t-105 53.5t-67 73.5t-38 80t-16.5 73.5t-3.5 54q0 45 8 93t21 94.5t29 88.5t33 73.5
t32.5 50t27.5 18.5q7 0 12 -5.5t5 -17.5q0 -14 -9.5 -35.5t-21 -51.5t-21 -70.5t-9.5 -91.5q0 -66 22.5 -114.5t64 -79.5t99 -46t127.5 -15q60 0 123.5 14t118 37.5t93 55t48.5 66.5q3 12 4 41t1 61q0 38 -6.5 107.5t-17 153.5t-22.5 174t-23.5 170t-20.5 141.5t-12 87.5
q-2 10 -9 17q-20 20 -29 53t-9 67q0 18 2.5 36t7.5 35q7 28 19.5 55.5t26 48.5t26 34t20.5 13t10.5 -6t3.5 -14q3 -42 26 -80t84 -77q16 -11 16 -45q0 -17 -4.5 -37t-11.5 -40.5t-15.5 -40t-16.5 -35.5q-2 -4 -4.5 -8.5t-2.5 -9.5zM1623 -281q-11 -14 -25 -31.5t-28 -33
t-24.5 -26.5t-13.5 -11q-12 0 -34 13.5t-43.5 31.5t-38 37t-16.5 30q0 4 4 9q10 15 26 36t32.5 40t30 32t17.5 13q3 0 5 -3q7 -12 21 -26.5t29.5 -28t32 -25t29.5 -18.5q11 16 26.5 35t30.5 35.5t26.5 27.5t15.5 11q3 0 5 -3q9 -14 25 -30t34 -31t36 -27t30 -16q4 -1 4 -6
q0 -3 -5 -8q-6 -7 -22 -27t-33.5 -41t-32.5 -37t-19 -16q-10 0 -27.5 9.5t-36 24t-35.5 30.5t-26 30zM2236 -83q-5 36 -22.5 71.5t-38 66t-39.5 54.5t-26 39q-2 4 -3 10t-1 12q0 14 5.5 45t14 62.5t19 55.5t21.5 24q15 0 35.5 -28t41 -72.5t38 -99t26.5 -108.5
q4 -20 6 -49.5t2 -61.5q0 -79 -18 -157.5t-57.5 -151.5t-102 -138.5t-151.5 -118.5q-20 -11 -45 -15.5t-55 -4.5q-53 0 -111 12t-107 28.5t-81 35t-32 31.5q0 12 13 15.5t30 3.5q46 0 89.5 4t85 14t82.5 27t83 43q45 28 97 72t96.5 93t74 98t30.5 88zM1402 19
q-16 11 -21.5 38.5t-5.5 54.5q0 24 4 48.5t11 44.5t17.5 32.5t22.5 12.5q2 0 9 -3.5t9 -5.5q20 -14 55.5 -25t88.5 -11q22 0 48 3t50.5 8t44.5 13t31 19q-7 20 -19.5 37t-25 32t-21.5 29.5t-9 29.5q0 28 9 61t21 61t24.5 46.5t20.5 18.5q13 0 29.5 -24.5t30.5 -65.5t24 -94
t10 -110q0 -26 -4 -57t-12 -62.5t-19.5 -59.5t-26.5 -47q-14 -16 -37 -29.5t-51.5 -23.5t-60 -15.5t-61.5 -5.5q-61 0 -105 12t-81 38zM1188 1067q-2 3 -3.5 7.5t-1.5 11.5q0 15 6 31t14.5 32.5t18 33t16.5 31.5q12 28 21 48.5t18 20.5q12 0 20.5 -27.5t15 -74t11.5 -107
t8.5 -127t5.5 -134.5t4 -128.5t4 -109.5t4 -78q3 -37 9 -75t17.5 -72.5t29 -63t42.5 -45.5q16 -11 26 -28t15.5 -35t7.5 -35.5t2 -29.5q0 -45 -20 -73.5t-49 -28.5q-5 0 -12.5 1t-15.5 7q-63 42 -100.5 114t-50.5 160q-8 54 -13 124.5t-8.5 147t-6.5 154.5t-7.5 146t-11 121
t-16.5 81z" />
    <glyph glyph-name="lamalefmadda" unicode="&#xfef5;" horiz-adv-x="1039" arabic-form="isolated" 
d="M908 937q-19 -280 -113 -482q13 -36 22 -82t15 -93t9 -90t3 -73q0 -31 -2.5 -66t-7.5 -58q-3 -13 -38.5 -24.5t-87.5 -20t-112 -13.5t-110 -5q-28 0 -53 1.5t-42 6.5q-5 1 -9 9.5t-6.5 21.5t-4 28.5t-1.5 31.5q0 32 5 60.5t14 42.5q3 6 12.5 11.5t29.5 17.5
q92 55 155.5 122.5t106.5 143.5q-40 72 -92.5 136t-109 119t-113 100.5t-103.5 81.5q-11 -14 -23.5 -24.5t-18.5 -10.5q-7 0 -22 11.5t-33.5 29t-38.5 39t-37 42.5t-28.5 38.5t-13.5 27.5q-3 13 -3.5 31t-0.5 34q0 83 17 124t43 41q14 0 33 -11t39 -25q75 -51 155.5 -124.5
t156 -160t141 -181.5t111.5 -188q35 104 46.5 210.5t13.5 207.5q-16 31 -27 63.5t-11 73.5q0 12 1 24t3 26q4 23 13.5 46.5t21.5 43t23.5 32t19.5 12.5q5 0 10.5 -8.5t8.5 -26.5q2 -14 5 -27t11 -26t23 -26.5t41 -29.5q14 -8 19.5 -22.5t5.5 -32.5t-7.5 -41t-19 -45.5
t-24 -42t-21.5 -31.5zM778 168q-9 89 -44 175q-35 -56 -77 -105.5t-91 -94.5q42 1 74 3t57 5t44.5 7.5t36.5 9.5zM476 1520q5 6 11.5 11t12.5 5q10 0 10 -19q0 -27 -16 -59.5t-44.5 -61t-68.5 -47.5t-88 -19q-23 0 -41.5 3.5t-35.5 8t-34 8.5t-38 4q-31 0 -52 -7t-36 -17
t-24 -21.5t-16 -20.5q-13 -19 -26 -19q-14 0 -14 19q0 23 15.5 55.5t43.5 62.5t67 51t85 21q19 0 37.5 -4t38.5 -8.5t42 -8.5t48 -4t45 5.5t33 14.5t25 21t20 26z" />
    <glyph glyph-name="lamalefmadda.f" unicode="&#xfef6;" horiz-adv-x="1328" arabic-form="final" 
d="M1130 19q-43 28 -81.5 85t-55.5 138q-11 51 -18.5 110.5t-13 111.5t-9 86.5t-6.5 36.5q-4 -10 -7.5 -27.5t-7.5 -46.5q-7 -50 -17.5 -108t-34 -124t-64 -140t-107.5 -155q-19 -22 -51 -40.5t-72.5 -33t-86 -25t-90 -17.5t-85 -10.5t-70.5 -3.5q-33 0 -47.5 7t-14.5 16
q0 13 21 27.5t56.5 33.5t84 44t103 59.5t112.5 79t114 102.5q14 14 26.5 30.5t24.5 33.5q-28 67 -71 130.5t-93 117t-102.5 93t-98.5 60.5q-14 -17 -29.5 -29t-35.5 -12q-15 0 -39.5 9.5t-54.5 29.5t-63 50.5t-64 72.5q-11 15 -17 49t-6 73q0 28 3.5 56.5t9.5 51t15.5 37
t21.5 14.5q26 0 79 -22t119.5 -63.5t140 -101t141 -134.5t122.5 -164t84 -190q23 62 37.5 130t23 134.5t12 129.5t6 116t4 93t5.5 61q1 7 6 23t12 36t16 41.5t18 39t18.5 28.5t17.5 11q11 0 18.5 -16t12.5 -38.5t7.5 -46t4.5 -38.5q12 -113 22 -215t18 -189t15.5 -156
t14.5 -117q4 -31 11 -61t17.5 -56.5t26 -48.5t37.5 -37q16 -11 26 -28t15.5 -35t7.5 -35.5t2 -29.5q0 -45 -20 -73.5t-49 -28.5q-5 0 -12.5 1t-15.5 7zM471 1353q5 6 11.5 11t12.5 5q10 0 10 -19q0 -27 -16 -59.5t-44.5 -61t-68.5 -47.5t-88 -19q-23 0 -41.5 3.5t-35.5 8
t-34 8.5t-38 4q-31 0 -52 -7t-36 -17t-24 -21.5t-16 -20.5q-13 -19 -26 -19q-14 0 -14 19q0 23 15.5 55.5t43.5 62.5t67 51t85 21q19 0 37.5 -4t38.5 -8.5t42 -8.5t48 -4t45 5.5t33 14.5t25 21t20 26z" />
    <glyph glyph-name="lamalefhamza" unicode="&#xfef7;" horiz-adv-x="1039" arabic-form="isolated" 
d="M908 937q-19 -280 -113 -482q13 -36 22 -82t15 -93t9 -90t3 -73q0 -31 -2.5 -66t-7.5 -58q-3 -13 -38.5 -24.5t-87.5 -20t-112 -13.5t-110 -5q-28 0 -53 1.5t-42 6.5q-5 1 -9 9.5t-6.5 21.5t-4 28.5t-1.5 31.5q0 32 5 60.5t14 42.5q3 6 12.5 11.5t29.5 17.5
q92 55 155.5 122.5t106.5 143.5q-40 72 -92.5 136t-109 119t-113 100.5t-103.5 81.5q-11 -14 -23.5 -24.5t-18.5 -10.5q-7 0 -22 11.5t-33.5 29t-38.5 39t-37 42.5t-28.5 38.5t-13.5 27.5q-3 13 -3.5 31t-0.5 34q0 83 17 124t43 41q14 0 33 -11t39 -25q75 -51 155.5 -124.5
t156 -160t141 -181.5t111.5 -188q35 104 46.5 210.5t13.5 207.5q-16 31 -27 63.5t-11 73.5q0 12 1 24t3 26q4 23 13.5 46.5t21.5 43t23.5 32t19.5 12.5q5 0 10.5 -8.5t8.5 -26.5q2 -14 5 -27t11 -26t23 -26.5t41 -29.5q14 -8 19.5 -22.5t5.5 -32.5t-7.5 -41t-19 -45.5
t-24 -42t-21.5 -31.5zM778 168q-9 89 -44 175q-35 -56 -77 -105.5t-91 -94.5q42 1 74 3t57 5t44.5 7.5t36.5 9.5zM87 1569q0 -9 12 -21.5t32 -24t46 -19t55 -7.5q8 0 16.5 0.5t10.5 1.5q57 24 84 37t35 13q12 0 12 -14q0 -10 -5.5 -25.5t-13.5 -30.5t-16.5 -27t-15.5 -15
q-88 -39 -147.5 -67t-97 -47t-57.5 -28t-28 -9q-9 0 -9 14q0 8 2.5 16.5t4.5 13.5q6 14 24 33t56 44q1 1 1 3t-2 3q-37 14 -51 38t-14 64q0 33 19 70t50.5 68t70.5 51.5t80 20.5q23 0 39.5 -9.5t16.5 -38.5q0 -9 -4 -26.5t-11.5 -35t-18 -30t-23.5 -12.5q-10 0 -13 6.5
t-7.5 15t-14.5 15t-33 6.5q-10 0 -23 -3.5t-25 -9.5t-22 -15t-15 -19z" />
    <glyph glyph-name="lamalefhamza.f" unicode="&#xfef8;" horiz-adv-x="1328" arabic-form="final" 
d="M1130 19q-43 28 -81.5 85t-55.5 138q-11 51 -18.5 110.5t-13 111.5t-9 86.5t-6.5 36.5q-4 -10 -7.5 -27.5t-7.5 -46.5q-7 -50 -17.5 -108t-34 -124t-64 -140t-107.5 -155q-19 -22 -51 -40.5t-72.5 -33t-86 -25t-90 -17.5t-85 -10.5t-70.5 -3.5q-33 0 -47.5 7t-14.5 16
q0 13 21 27.5t56.5 33.5t84 44t103 59.5t112.5 79t114 102.5q14 14 26.5 30.5t24.5 33.5q-28 67 -71 130.5t-93 117t-102.5 93t-98.5 60.5q-14 -17 -29.5 -29t-35.5 -12q-15 0 -39.5 9.5t-54.5 29.5t-63 50.5t-64 72.5q-11 15 -17 49t-6 73q0 28 3.5 56.5t9.5 51t15.5 37
t21.5 14.5q26 0 79 -22t119.5 -63.5t140 -101t141 -134.5t122.5 -164t84 -190q23 62 37.5 130t23 134.5t12 129.5t6 116t4 93t5.5 61q1 7 6 23t12 36t16 41.5t18 39t18.5 28.5t17.5 11q11 0 18.5 -16t12.5 -38.5t7.5 -46t4.5 -38.5q12 -113 22 -215t18 -189t15.5 -156
t14.5 -117q4 -31 11 -61t17.5 -56.5t26 -48.5t37.5 -37q16 -11 26 -28t15.5 -35t7.5 -35.5t2 -29.5q0 -45 -20 -73.5t-49 -28.5q-5 0 -12.5 1t-15.5 7zM91 1422q0 -9 12 -21.5t32 -24t46 -19t55 -7.5q8 0 16.5 0.5t10.5 1.5q57 24 84 37t35 13q12 0 12 -14q0 -10 -5.5 -25.5
t-13.5 -30.5t-16.5 -27t-15.5 -15q-88 -39 -147.5 -67t-97 -47t-57.5 -28t-28 -9q-9 0 -9 14q0 8 2.5 16.5t4.5 13.5q6 14 24 33t56 44q1 1 1 3t-2 3q-37 14 -51 38t-14 64q0 33 19 70t50.5 68t70.5 51.5t80 20.5q23 0 39.5 -9.5t16.5 -38.5q0 -9 -4 -26.5t-11.5 -35
t-18 -30t-23.5 -12.5q-10 0 -13 6.5t-7.5 15t-14.5 15t-33 6.5q-10 0 -23 -3.5t-25 -9.5t-22 -15t-15 -19z" />
    <glyph glyph-name="lamalefhamzabelow" unicode="&#xfef9;" horiz-adv-x="1039" arabic-form="isolated" 
d="M908 937q-19 -280 -113 -482q13 -36 22 -82t15 -93t9 -90t3 -73q0 -31 -2.5 -66t-7.5 -58q-3 -13 -38.5 -24.5t-87.5 -20t-112 -13.5t-110 -5q-28 0 -53 1.5t-42 6.5q-5 1 -9 9.5t-6.5 21.5t-4 28.5t-1.5 31.5q0 32 5 60.5t14 42.5q3 6 12.5 11.5t29.5 17.5
q92 55 155.5 122.5t106.5 143.5q-40 72 -92.5 136t-109 119t-113 100.5t-103.5 81.5q-11 -14 -23.5 -24.5t-18.5 -10.5q-7 0 -22 11.5t-33.5 29t-38.5 39t-37 42.5t-28.5 38.5t-13.5 27.5q-3 13 -3.5 31t-0.5 34q0 83 17 124t43 41q14 0 33 -11t39 -25q75 -51 155.5 -124.5
t156 -160t141 -181.5t111.5 -188q35 104 46.5 210.5t13.5 207.5q-16 31 -27 63.5t-11 73.5q0 12 1 24t3 26q4 23 13.5 46.5t21.5 43t23.5 32t19.5 12.5q5 0 10.5 -8.5t8.5 -26.5q2 -14 5 -27t11 -26t23 -26.5t41 -29.5q14 -8 19.5 -22.5t5.5 -32.5t-7.5 -41t-19 -45.5
t-24 -42t-21.5 -31.5zM778 168q-9 89 -44 175q-35 -56 -77 -105.5t-91 -94.5q42 1 74 3t57 5t44.5 7.5t36.5 9.5zM303 -312q0 -9 12 -21.5t32 -24t46 -19t55 -7.5q8 0 16.5 0.5t10.5 1.5q57 24 84 37t35 13q12 0 12 -14q0 -10 -5.5 -25.5t-13.5 -30.5t-16.5 -27t-15.5 -15
q-88 -39 -147.5 -67t-97 -47t-57.5 -28t-28 -9q-9 0 -9 14q0 8 2.5 16.5t4.5 13.5q6 14 24 33t56 44q1 1 1 3t-2 3q-37 14 -51 38t-14 64q0 33 19 70t50.5 68t70.5 51.5t80 20.5q23 0 39.5 -9.5t16.5 -38.5q0 -9 -4 -26.5t-11.5 -35t-18 -30t-23.5 -12.5q-10 0 -13 6.5
t-7.5 15t-14.5 15t-33 6.5q-10 0 -23 -3.5t-25 -9.5t-22 -15t-15 -19z" />
    <glyph glyph-name="lamalefhamzabelow.f" unicode="&#xfefa;" horiz-adv-x="1328" arabic-form="final" 
d="M1130 19q-43 28 -81.5 85t-55.5 138q-11 51 -18.5 110.5t-13 111.5t-9 86.5t-6.5 36.5q-4 -10 -7.5 -27.5t-7.5 -46.5q-7 -50 -17.5 -108t-34 -124t-64 -140t-107.5 -155q-19 -22 -51 -40.5t-72.5 -33t-86 -25t-90 -17.5t-85 -10.5t-70.5 -3.5q-33 0 -47.5 7t-14.5 16
q0 13 21 27.5t56.5 33.5t84 44t103 59.5t112.5 79t114 102.5q14 14 26.5 30.5t24.5 33.5q-28 67 -71 130.5t-93 117t-102.5 93t-98.5 60.5q-14 -17 -29.5 -29t-35.5 -12q-15 0 -39.5 9.5t-54.5 29.5t-63 50.5t-64 72.5q-11 15 -17 49t-6 73q0 28 3.5 56.5t9.5 51t15.5 37
t21.5 14.5q26 0 79 -22t119.5 -63.5t140 -101t141 -134.5t122.5 -164t84 -190q23 62 37.5 130t23 134.5t12 129.5t6 116t4 93t5.5 61q1 7 6 23t12 36t16 41.5t18 39t18.5 28.5t17.5 11q11 0 18.5 -16t12.5 -38.5t7.5 -46t4.5 -38.5q12 -113 22 -215t18 -189t15.5 -156
t14.5 -117q4 -31 11 -61t17.5 -56.5t26 -48.5t37.5 -37q16 -11 26 -28t15.5 -35t7.5 -35.5t2 -29.5q0 -45 -20 -73.5t-49 -28.5q-5 0 -12.5 1t-15.5 7zM294 -359q0 -9 12 -21.5t32 -24t46 -19t55 -7.5q8 0 16.5 0.5t10.5 1.5q57 24 84 37t35 13q12 0 12 -14
q0 -10 -5.5 -25.5t-13.5 -30.5t-16.5 -27t-15.5 -15q-88 -39 -147.5 -67t-97 -47t-57.5 -28t-28 -9q-9 0 -9 14q0 8 2.5 16.5t4.5 13.5q6 14 24 33t56 44q1 1 1 3t-2 3q-37 14 -51 38t-14 64q0 33 19 70t50.5 68t70.5 51.5t80 20.5q23 0 39.5 -9.5t16.5 -38.5q0 -9 -4 -26.5
t-11.5 -35t-18 -30t-23.5 -12.5q-10 0 -13 6.5t-7.5 15t-14.5 15t-33 6.5q-10 0 -23 -3.5t-25 -9.5t-22 -15t-15 -19z" />
    <glyph glyph-name="lamalef" unicode="&#xfefb;" horiz-adv-x="1039" arabic-form="isolated" 
d="M908 937q-19 -280 -113 -482q13 -36 22 -82t15 -93t9 -90t3 -73q0 -31 -2.5 -66t-7.5 -58q-3 -13 -38.5 -24.5t-87.5 -20t-112 -13.5t-110 -5q-28 0 -53 1.5t-42 6.5q-5 1 -9 9.5t-6.5 21.5t-4 28.5t-1.5 31.5q0 32 5 60.5t14 42.5q3 6 12.5 11.5t29.5 17.5
q92 55 155.5 122.5t106.5 143.5q-40 72 -92.5 136t-109 119t-113 100.5t-103.5 81.5q-11 -14 -23.5 -24.5t-18.5 -10.5q-7 0 -22 11.5t-33.5 29t-38.5 39t-37 42.5t-28.5 38.5t-13.5 27.5q-3 13 -3.5 31t-0.5 34q0 83 17 124t43 41q14 0 33 -11t39 -25q75 -51 155.5 -124.5
t156 -160t141 -181.5t111.5 -188q35 104 46.5 210.5t13.5 207.5q-16 31 -27 63.5t-11 73.5q0 12 1 24t3 26q4 23 13.5 46.5t21.5 43t23.5 32t19.5 12.5q5 0 10.5 -8.5t8.5 -26.5q2 -14 5 -27t11 -26t23 -26.5t41 -29.5q14 -8 19.5 -22.5t5.5 -32.5t-7.5 -41t-19 -45.5
t-24 -42t-21.5 -31.5zM778 168q-9 89 -44 175q-35 -56 -77 -105.5t-91 -94.5q42 1 74 3t57 5t44.5 7.5t36.5 9.5z" />
    <glyph glyph-name="lamalef.f" unicode="&#xfefc;" horiz-adv-x="1328" arabic-form="final" 
d="M1130 19q-43 28 -81.5 85t-55.5 138q-11 51 -18.5 110.5t-13 111.5t-9 86.5t-6.5 36.5q-4 -10 -7.5 -27.5t-7.5 -46.5q-7 -50 -17.5 -108t-34 -124t-64 -140t-107.5 -155q-19 -22 -51 -40.5t-72.5 -33t-86 -25t-90 -17.5t-85 -10.5t-70.5 -3.5q-33 0 -47.5 7t-14.5 16
q0 13 21 27.5t56.5 33.5t84 44t103 59.5t112.5 79t114 102.5q14 14 26.5 30.5t24.5 33.5q-28 67 -71 130.5t-93 117t-102.5 93t-98.5 60.5q-14 -17 -29.5 -29t-35.5 -12q-15 0 -39.5 9.5t-54.5 29.5t-63 50.5t-64 72.5q-11 15 -17 49t-6 73q0 28 3.5 56.5t9.5 51t15.5 37
t21.5 14.5q26 0 79 -22t119.5 -63.5t140 -101t141 -134.5t122.5 -164t84 -190q23 62 37.5 130t23 134.5t12 129.5t6 116t4 93t5.5 61q1 7 6 23t12 36t16 41.5t18 39t18.5 28.5t17.5 11q11 0 18.5 -16t12.5 -38.5t7.5 -46t4.5 -38.5q12 -113 22 -215t18 -189t15.5 -156
t14.5 -117q4 -31 11 -61t17.5 -56.5t26 -48.5t37.5 -37q16 -11 26 -28t15.5 -35t7.5 -35.5t2 -29.5q0 -45 -20 -73.5t-49 -28.5q-5 0 -12.5 1t-15.5 7z" />
    <glyph glyph-name=".notdef" horiz-adv-x="676" 
d="M66 0v1085h544v-1085h-544zM134 68h408v949h-408v-949z" />
    <glyph glyph-name=".null" 
 />
    <glyph glyph-name="nonmarkingreturn" horiz-adv-x="596" 
 />
    <glyph glyph-name="NULL" 
 />
    <glyph glyph-name="space" unicode=" " horiz-adv-x="328" 
 />
    <glyph glyph-name="numbersignArabic" unicode="&#x600;" horiz-adv-x="1426" 
d="M1289 137q15 10 25 10q11 0 16.5 -8.5t5.5 -21.5q0 -21 -12 -40q-23 -42 -36.5 -73t-20.5 -54t-9 -39t-2 -27q0 -15 4 -35t15 -31q3 0 23 3.5t43.5 7.5t43.5 7.5t25 3.5q8 0 11.5 -8.5t3.5 -29.5q0 -28 -4.5 -57t-12 -53.5t-16.5 -42.5t-18 -23q-16 -10 -66.5 -19
t-147.5 -15.5t-246.5 -10t-362.5 -3.5q-91 0 -164 9t-130 22.5t-97 29t-65 28.5q-14 7 -30.5 20.5t-30.5 29.5t-23.5 32t-9.5 28q0 11 6 14.5t22 4.5q33 -2 72 -3.5t85.5 -2.5t102.5 -2t123 -1q169 0 333.5 4.5t335.5 11.5q18 1 26 8.5t8 31.5q0 47 17 92t43 83.5t56.5 69
t57.5 49.5z" />
    <glyph glyph-name="yearsignArabic" unicode="&#x601;" horiz-adv-x="3730" 
d="M948 -441q-15 -25 -38 -60.5t-55 -68t-74 -55.5t-94 -23q-31 0 -54.5 14t-42.5 35t-34 45t-27 45t-22 35t-20 14q-4 0 -7 -1q-47 -23 -77.5 -62t-52 -84t-37.5 -90.5t-33 -82.5t-39 -60t-56 -23q-25 0 -57 20t-60.5 60.5t-48 101t-19.5 141.5q0 50 9 107q3 19 11 39.5
t18 38t19.5 28.5t17.5 11q6 0 9.5 -8t3.5 -28q0 -22 -5 -59t-5 -83q0 -34 4.5 -68.5t15 -62t29 -44.5t47.5 -17q24 0 34.5 18t19 49.5t21.5 75t43 93.5q17 29 43 64.5t55.5 66.5t59.5 52t55 21q22 0 38 -14t29.5 -35.5t26.5 -46t29 -46t37 -35.5t50 -14q51 0 88.5 22.5
t67.5 54t54 65t47 56.5q16 16 24 16q7 0 12.5 -5.5t16.5 -13.5q84 -65 194 -111t238 -75.5t271 -43.5t294 -14q180 0 365 18t364 51.5t347 80.5t312 105q34 13 70.5 26.5t70.5 23.5t63.5 16.5t50.5 6.5q35 0 50 -28.5t15 -64.5q0 -25 -6 -46q-13 -49 -27 -81.5t-30 -56.5
t-35 -43.5t-41 -42.5t-48 -53.5t-56 -75.5q-9 -13 -16 -18t-10 -5q-8 0 -11 11.5t-3 25.5q0 8 1 17t3 15q15 62 43.5 101t56.5 65t48.5 45t20.5 41q0 11 -19 11q-11 0 -23 -2.5t-23 -6t-20.5 -7t-15.5 -6.5q-98 -47 -211.5 -90.5t-238.5 -81t-259 -68t-272.5 -52.5t-280 -34
t-280.5 -12q-150 0 -294 14.5t-275.5 46t-248 80.5t-211.5 119z" />
    <glyph glyph-name="footnoteArabic" unicode="&#x602;" horiz-adv-x="1708" 
d="M664 -247q46 -4 100.5 -5.5t114.5 -1.5q59 0 128.5 1.5t140.5 4t137.5 6.5t119.5 9q35 3 73.5 6.5t75 6.5t68.5 5t53 2q11 0 22 -4.5t11 -21.5q0 -18 -10.5 -45t-26.5 -52.5t-34.5 -44.5t-34.5 -21q-102 -12 -215 -22.5t-226.5 -18.5t-223.5 -13t-207 -5q-177 0 -317 16
t-240 55q-82 32 -121 70.5t-44 67.5q-4 21 -6 45t-2 50q0 79 17 153t50.5 130.5t83.5 90.5t115 34q22 0 50 -5q63 -13 111 -42.5t83 -69.5t60 -88t42.5 -98.5t29.5 -100.5t22 -94zM548 -233q-10 55 -44 105.5t-80.5 89t-100 61.5t-102.5 23q-30 0 -54.5 -10t-42.5 -25.5
t-27.5 -34t-9.5 -34.5q0 -18 21 -37.5t56.5 -38.5t82 -36.5t97.5 -30.5t103.5 -22t100.5 -10z" />
    <glyph glyph-name="safha" unicode="&#x603;" horiz-adv-x="1929" 
d="M1330 -211q14 -1 33.5 -2t47.5 -1q85 0 169.5 17.5t176.5 54.5q35 14 48 24.5t13 14.5q0 18 -17 34.5t-41.5 29t-52.5 20.5t-50 8q-33 0 -62.5 -8.5t-57 -22.5t-52.5 -32t-48 -37q-11 -9 -21 -17.5t-22 -19.5t-27 -26zM1059 -281q-21 -39 -42.5 -66t-43.5 -44.5
t-44.5 -26.5t-44.5 -13q-15 -3 -39 -5t-53 -4t-62.5 -3t-67.5 -1q-35 0 -82.5 1t-100 3.5t-105.5 6.5t-100 10t-83.5 14.5t-55.5 19.5q-38 22 -64 46t-41.5 45t-22 37.5t-6.5 25.5q0 11 7 15t19 5q26 -3 68 -6.5t92.5 -7t107 -7t111 -6.5t104.5 -4.5t88 -1.5q53 0 119 1.5
t127.5 7.5t108 16.5t60.5 28.5q9 8 19 29.5t21 43.5t22 39t22 17q9 0 14 -6.5t9.5 -17t11 -24t19.5 -27.5t35 -27t57 -22q53 65 101 112.5t87 82.5q45 40 84 69t74 48t68 27.5t66 8.5q36 0 72.5 -11.5t66 -32.5t48.5 -51.5t19 -69.5q0 -42 -20 -95.5t-65 -110.5
q-38 -49 -95.5 -84.5t-122.5 -59t-133 -34.5t-128 -11q-51 0 -97 3.5t-80 13.5q-20 -25 -33 -44t-22 -32t-16 -19.5t-14 -6.5q-20 0 -20 23q0 15 11.5 43t33.5 66q-47 32 -69 73z" />
    <glyph glyph-name="uni0604" unicode="&#x604;" horiz-adv-x="1929" 
d="M1614 32q-29 -69 -74.5 -104.5t-96.5 -35.5q-32 0 -54 10t-38 24.5t-28 31.5t-24 31.5t-26 24.5t-33 10q-26 0 -48.5 -14t-39 -33.5t-26.5 -41t-10 -36.5q0 -9 12 -21.5t31.5 -25.5t44 -25.5t48.5 -22.5q37 -16 57.5 -30t30 -28.5t11 -30.5t1.5 -37q0 -22 -6.5 -45
t-15.5 -41.5t-19 -30.5t-17 -12q-1 0 -3.5 1.5t-10.5 7.5q-62 43 -109 57.5t-77 14.5q-9 0 -24.5 -2t-32.5 -6t-32.5 -8.5t-24.5 -9.5q-28 -15 -60 -24.5t-75 -15t-99.5 -7.5t-132.5 -2q-84 0 -161.5 5t-142.5 15t-115 25.5t-81 36.5q-54 37 -83.5 71t-29.5 60q0 24 32 24
q14 0 64.5 -6t121.5 -13t154 -13t163 -6q111 0 186 1t128 6t91 16.5t76 32.5q-1 8 -2 17.5t-1 20.5q0 37 9 80t25.5 85.5t39.5 82t51.5 69.5t61 48t68.5 18q18 0 29.5 -10t21 -25t19 -33t25 -33t39.5 -25t61 -10q33 0 56.5 11.5t41 30.5t29 42.5t19.5 47.5q3 10 6 23t7 24.5
t9.5 19t13.5 7.5q11 0 16 -14t5 -55q0 -25 15.5 -45t38 -33.5t47.5 -20.5t45 -7q30 0 33 17q-3 12 -10.5 24t-15.5 22.5t-14 19t-6 13.5q0 13 7.5 42.5t18.5 59.5t23 53t20 23q10 0 21 -16.5t20 -43t14.5 -60.5t5.5 -69q0 -45 -12 -95t-34.5 -91t-55 -68t-74.5 -27
q-27 0 -49.5 9.5t-40 24.5t-30 33t-19.5 35z" />
    <glyph glyph-name="uni0605" unicode="&#x605;" horiz-adv-x="1355" 
d="M173 1597q26 32 43 42t36 10q14 0 34.5 -7.5t50 -19.5t68.5 -28t89 -34q42 -15 88.5 -25t91 -16.5t85 -9t71.5 -2.5q103 0 185.5 10t145 22.5t106 22.5t67.5 10q13 0 16.5 -5t3.5 -14q0 -10 -11 -27.5t-26.5 -37.5t-32.5 -40t-30 -33q-24 -25 -61.5 -44.5t-83.5 -34
t-97 -24t-102 -15.5t-100 -8.5t-90 -2.5q-84 0 -156 8.5t-138 25.5t-127.5 42.5t-124.5 59.5q-29 -25 -51 -47t-38.5 -38t-29 -25t-24.5 -9q-18 0 -24.5 10.5t-6.5 23.5q0 15 15 43.5t40 64t55.5 75.5t62.5 77z" />
    <glyph glyph-name="uni0606" unicode="&#x606;" horiz-adv-x="1075" 
d="M970 293q-17 10 -43 24q-22 12 -54.5 30.5t-76.5 43.5l-328 -719q-10 -20 -24 -20q-15 0 -31.5 6t-30.5 14.5t-24.5 18.5t-11.5 19l-309 1806h106l266 -1541q64 142 109 244t75 172t48 112.5t29 65t17.5 30t13.5 7.5q8 0 16.5 -5t14.5 -10q43 -34 78.5 -59t70 -47.5
t70.5 -46t81 -53.5q-2 -8 -7 -20t-12.5 -25t-18 -25.5t-24.5 -21.5zM567 1194q30 -92 42.5 -174.5t12.5 -142.5q0 -30 -4.5 -66.5t-12 -68t-18 -53t-23.5 -21.5t-13 45q0 46 -3.5 84t-10 75t-17 76.5t-24.5 88.5q-16 57 -39 103t-44 83t-35.5 67t-14.5 56q0 9 3 19t8 25.5
t12 38t15 55.5q6 21 15 21q6 0 12 -6t12 -14.5t10.5 -17t6.5 -12.5q13 -27 25.5 -43t25 -24.5t25 -10.5t25.5 -2q56 0 85.5 27t48.5 90q5 17 11.5 24.5t11.5 7.5q9 0 14.5 -9.5t5.5 -23.5q0 -15 3 -29.5t11 -26.5t20.5 -19t32.5 -7q31 0 60 22t42 80q2 11 7.5 16t7.5 5
q8 0 14 -13t6 -36q0 -59 -16 -105.5t-40 -78t-53 -48t-56 -16.5q-39 0 -59.5 11.5t-34.5 28.5q-15 -35 -45 -57t-68 -24z" />
    <glyph glyph-name="uni0607" unicode="&#x607;" horiz-adv-x="1072" 
d="M970 293q-17 10 -43 24q-22 12 -54.5 30.5t-76.5 43.5l-328 -719q-8 -20 -24 -20q-15 0 -31.5 6t-30.5 14.5t-24.5 18.5t-11.5 19l-309 1806h106l266 -1541q64 142 109 244t75 172t48 112.5t29 65t17.5 30t13.5 7.5q8 0 16.5 -5t14.5 -10q43 -34 78.5 -59t70 -47.5
t70.5 -46t81 -53.5q-2 -8 -7 -20t-12.5 -25t-18 -25.5t-24.5 -21.5zM802 819q-14 -23 -31 -44.5t-40.5 -38.5t-54.5 -27.5t-73 -10.5q-29 0 -54.5 9t-45 25.5t-31 39t-11.5 48.5q0 39 15.5 74.5t33.5 66t33.5 55t15.5 41.5q0 16 -10.5 23.5t-26.5 12t-34 9.5t-34 16.5
t-26.5 33t-10.5 58.5q0 32 16.5 68t42 71.5t57 68.5t61.5 58t55 40t39 15q11 0 11 -12q0 -23 -6 -38t-14 -36q-12 -36 -39 -58.5t-54.5 -37t-48 -24t-20.5 -21.5q0 -14 13 -22t32.5 -13.5t42 -11.5t42 -17t32.5 -28.5t13 -46.5q0 -40 -17.5 -76t-38 -66t-38 -54.5
t-17.5 -42.5q0 -33 21 -48.5t59 -15.5q27 0 50 5t42.5 11.5t34 11.5t23.5 5q16 0 16 -15q0 -10 -5.5 -24.5t-19.5 -36.5z" />
    <glyph glyph-name="uni0608" unicode="&#x608;" horiz-adv-x="1723" 
d="M586 282q0 -18 -12 -42.5t-27 -57.5t-27 -75.5t-12 -96.5q0 -83 70.5 -128t221.5 -45q85 0 160 17t137.5 46t111 67.5t80.5 82.5q14 20 25 38.5t11 29.5v9.5t-1 12.5q-5 29 -13.5 56.5t-27.5 63.5q-38 -51 -76 -72.5t-92 -21.5q-41 0 -70.5 17t-49 44t-29 60t-9.5 64
q0 23 8 58.5t21.5 76.5t32.5 82.5t40.5 74.5t45 54t47.5 21q28 0 54 -14t49 -39t43.5 -59.5t37.5 -75.5q22 17 50.5 43.5t60 54t64.5 52t63 38.5q17 8 33.5 13t30.5 5q21 0 21 -22q0 -8 -3 -21.5t-11 -33.5l-57 -154q-13 -36 -29 -36q-14 0 -36 -11.5t-46.5 -29t-48.5 -37
t-42 -34.5q8 -39 12.5 -87t4.5 -101q0 -36 -3 -73.5t-10 -72.5t-17 -65.5t-25 -54.5q-15 -25 -39.5 -58.5t-58.5 -68t-79.5 -68t-103.5 -59.5t-130 -42t-159 -16q-104 0 -174 24t-113 66t-61 99.5t-18 125.5q0 42 5.5 86t16.5 90q-59 -29 -141.5 -70t-199.5 -102
q-5 -2 -10.5 -4t-8.5 -2q-11 0 -11 14q0 10 9.5 31.5t22 45.5t24.5 45.5t18 31.5q8 15 17.5 25t16.5 14q23 11 53.5 26.5t64.5 33t69.5 36t68.5 35.5t61.5 32t48.5 25q8 4 14.5 6.5t12.5 2.5q22 0 22 -26zM1221 420q-19 42 -44.5 69.5t-66.5 27.5q-14 0 -27 -10.5t-23 -24.5
t-16.5 -28.5t-6.5 -22.5q0 -12 4.5 -25t15 -24t28 -18t44.5 -7q12 0 26 7.5t26.5 17.5t23 20.5t16.5 17.5z" />
    <glyph glyph-name="uni0609" unicode="&#x609;" horiz-adv-x="1412" 
d="M1287 85q25 -13 25 -35q0 -5 -1.5 -10.5t-4.5 -10.5l-72 -145q-14 -26 -35 -26q-10 0 -22 7l-151 77q-14 5 -20 14t-6 19q0 6 2 11.5t5 12.5l71 143q5 13 14.5 19t20.5 6q5 0 10.5 -1t12.5 -5zM932 85q25 -13 25 -35q0 -5 -2 -10.5t-4 -10.5l-71 -145q-13 -26 -36 -26
q-8 0 -22 7l-150 77q-27 14 -27 33q0 6 2 11.5t5 12.5l72 143q5 13 14.5 19t19.5 6q5 0 10.5 -1t12.5 -5zM388 1042q25 -13 25 -35q0 -4 -1.5 -10t-4.5 -11l-71 -144q-14 -27 -36 -27q-4 0 -10 2.5t-12 5.5l-150 76q-27 13 -27 33q0 6 2 11.5t5 12.5l72 143q5 14 14.5 19.5
t19.5 5.5q12 0 23 -5zM1000 1390q-34 -79 -74 -171.5t-83.5 -192.5t-89 -203.5t-90.5 -205.5t-87 -198.5t-79 -181t-67.5 -155t-50.5 -119.5q-30 -72 -47 -119t-25 -81.5t-10 -63t-2 -64.5q-22 -7 -47.5 -12.5t-49.5 -5.5q-36 0 -59 15t-23 48q0 12 4.5 32t18 57.5
t37.5 98.5t63 156q30 75 74.5 178t96.5 222t109.5 248t113.5 255.5t108.5 245t95.5 217.5h163z" />
    <glyph glyph-name="uni060A" unicode="&#x60a;" horiz-adv-x="1776" 
d="M1642 85q24 -14 24 -35q0 -11 -5 -21l-72 -145q-14 -26 -36 -26q-9 0 -21 7l-151 77q-14 5 -20.5 14t-6.5 19q0 6 2.5 11.5t4.5 12.5l72 143q5 13 14.5 19t19.5 6q5 0 10.5 -1t13.5 -5zM1287 85q25 -13 25 -35q0 -5 -1.5 -10.5t-4.5 -10.5l-72 -145q-14 -26 -35 -26
q-10 0 -22 7l-151 77q-14 5 -20 14t-6 19q0 6 2 11.5t5 12.5l71 143q5 13 14.5 19t20.5 6q5 0 10.5 -1t12.5 -5zM932 85q25 -13 25 -35q0 -5 -2 -10.5t-4 -10.5l-71 -145q-13 -26 -36 -26q-8 0 -22 7l-150 77q-27 14 -27 33q0 6 2 11.5t5 12.5l72 143q5 13 14.5 19t19.5 6
q5 0 10.5 -1t12.5 -5zM388 1042q25 -13 25 -35q0 -4 -1.5 -10t-4.5 -11l-71 -144q-14 -27 -36 -27q-4 0 -10 2.5t-12 5.5l-150 76q-27 13 -27 33q0 6 2 11.5t5 12.5l72 143q5 14 14.5 19.5t19.5 5.5q12 0 23 -5zM1000 1390q-34 -79 -74 -171.5t-83.5 -192.5t-89 -203.5
t-90.5 -205.5t-87 -198.5t-79 -181t-67.5 -155t-50.5 -119.5q-30 -72 -47 -119t-25 -81.5t-10 -63t-2 -64.5q-22 -7 -47.5 -12.5t-49.5 -5.5q-36 0 -59 15t-23 48q0 12 4.5 32t18 57.5t37.5 98.5t63 156q30 75 74.5 178t96.5 222t109.5 248t113.5 255.5t108.5 245
t95.5 217.5h163z" />
    <glyph glyph-name="Afghani" unicode="&#x60b;" horiz-adv-x="1161" 
d="M981 457q-7 -14 -23 -29.5t-38.5 -28.5t-50.5 -21.5t-59 -8.5q-42 0 -71.5 13t-47.5 34.5t-26.5 48.5t-8.5 55q0 68 21.5 134.5t52 119t64 85t58.5 32.5q38 0 70 -23t58.5 -60.5t46.5 -85.5t33.5 -98.5t20.5 -99.5t7 -87q0 -26 -2.5 -63t-8 -75.5t-15.5 -72.5t-25 -55
q-10 -13 -31 -35t-57.5 -47t-89 -50t-123.5 -45.5t-163 -33.5t-207 -13q-64 0 -115.5 6t-87.5 27.5t-55.5 63.5t-19.5 115q0 33 8 57t25 24q9 0 30 -22q9 -11 28.5 -19t41.5 -13t44.5 -7.5t37.5 -2.5q66 0 140 5.5t147.5 16t142.5 26t125 37t95 48t53 58.5q0 20 -6 44.5
t-19 45.5zM709 -95q6 0 21 -15t31.5 -34t30.5 -37.5t19 -24.5q29 -42 50.5 -98t21.5 -125q0 -73 -4 -106.5t-7 -37.5q-17 -27 -27 -39t-15 -12q-10 0 -12.5 17.5t-2.5 43.5q0 43 -4.5 75t-15.5 59.5t-31 56t-51 66.5q-12 15 -22 35t-10 41q0 10 2 32.5t5.5 45t8.5 40
t12 17.5zM909 608q-7 25 -19 43.5t-25.5 30.5t-27.5 18t-26 6q-13 0 -24.5 -10t-20.5 -24t-14 -28.5t-5 -24.5q0 -29 24.5 -47.5t66.5 -18.5q27 0 47 17.5t24 37.5zM613 1188q9 -14 25.5 -30.5t35 -31.5t36.5 -27.5t31 -16.5q4 -1 4 -6q0 -3 -5 -8q-6 -7 -22.5 -27
t-34.5 -41.5t-33.5 -38t-19.5 -16.5q-12 0 -34 13.5t-44.5 32t-39 38t-16.5 30.5q0 2 5 9q10 16 26.5 37t33 40t30 32.5t17.5 13.5q3 0 5 -3z" />
    <glyph glyph-name="Arabic.comma" unicode="&#x60c;" horiz-adv-x="565" 
d="M183 -17q-26 37 -37 80.5t-11 90.5q0 51 12 101t35 93q14 28 36.5 57t47 52.5t47.5 38.5t38 15q16 0 16 -17q0 -14 -12 -34.5t-34 -39.5q-19 -16 -37 -39.5t-31.5 -51t-21.5 -58t-8 -60.5q0 -8 1.5 -20t3.5 -23.5t5.5 -20t8.5 -8.5q8 0 24.5 9t39.5 9q21 0 42.5 -7.5
t39 -22.5t28.5 -37.5t11 -52.5q0 -21 -8.5 -42.5t-24 -39t-37 -28t-47.5 -10.5q-81 0 -127 66z" />
    <glyph glyph-name="Arabic.date.separator" unicode="&#x60d;" horiz-adv-x="793" 
d="M679 579q8 4 15 4q18 0 18 -21q0 -8 -2 -30t-6 -51t-9 -60.5t-11 -59t-12 -47t-12 -23.5q-72 -47 -147 -108t-147 -130t-140 -141t-127 -139q-5 -6 -11.5 -8t-10.5 -2q-5 0 -6.5 7.5t-1.5 19.5q0 16 2 44t5.5 57.5t9 55.5t12.5 39q27 50 69 108t93 117t107.5 116.5
t112 106.5t107 87t92.5 58z" />
    <glyph glyph-name="Arabic.poetic.verse" unicode="&#x60e;" horiz-adv-x="1662" 
d="M625 17q22 -2 60 -3.5t76 -1.5q111 0 223.5 10.5t216.5 29.5t195.5 45t160.5 57q7 3 18.5 8.5t18.5 5.5q10 0 16.5 -9t6.5 -33q0 -27 -10.5 -53.5t-26.5 -49t-35 -40t-37 -25.5q-77 -36 -174 -63.5t-204 -45.5t-219 -27.5t-220 -9.5q-142 0 -265 16t-208 49
q-56 22 -89 46t-50 49.5t-22.5 51t-5.5 49.5q0 65 13.5 134.5t41.5 127t72 94.5t105 37q19 0 45 -6q52 -11 92 -37.5t70 -62.5t52 -79.5t37.5 -89t26.5 -90.5t19 -84zM538 25q-7 48 -35.5 95.5t-69 85t-88.5 61t-94 23.5q-42 0 -67 -15.5t-39 -34t-18.5 -35t-4.5 -19.5
q0 -15 19 -32t51 -34t73.5 -33t88 -28.5t94 -21.5t90.5 -12z" />
    <glyph glyph-name="Arabic.misra" unicode="&#x60f;" horiz-adv-x="1217" 
d="M281 -304q41 98 100 192.5t132.5 168.5t159.5 119.5t179 45.5q73 0 128 -28.5t92.5 -78t56.5 -116t19 -142.5q0 -121 -41.5 -222t-114.5 -174t-172.5 -114t-215.5 -41q-87 0 -171 26.5t-145 78.5q-14 -29 -24 -69.5t-20 -77.5t-21.5 -63t-29.5 -26q-14 0 -21 22t-7 60
q0 60 12 121t31 108q-30 36 -53.5 83.5t-40 98t-25.5 101t-9 92.5q0 89 13.5 165t40.5 143t68 127t96 116q-38 18 -67 44t-48.5 57.5t-29 66t-9.5 70.5q0 69 25 136t62.5 120t81 85.5t79.5 32.5q63 0 120 -18t112 -59q27 -20 42.5 -41.5t15.5 -38.5q0 -12 -7 -20.5t-20 -8.5
q-6 0 -18 5t-27.5 11.5t-34.5 11.5t-39 5q-34 0 -81 -9.5t-90 -25t-73 -35.5t-30 -42q0 -15 16.5 -42.5t48 -54.5t78 -47t106.5 -20q17 0 27 2t20 7q21 10 50 23t60.5 26.5t63.5 26.5t59.5 23.5t47.5 17t28 6.5q19 0 19 -15q0 -9 -6.5 -29.5t-16.5 -45t-23 -49t-25 -42.5
q-10 -14 -38.5 -29t-65 -31t-77 -32t-74.5 -32q-87 -42 -158.5 -99.5t-122 -122t-78 -133t-27.5 -133.5q0 -63 28 -124t79 -114zM370 -372q21 -15 48.5 -28t60 -23t68.5 -16t74 -6q84 0 161.5 28t137.5 70t96 91.5t36 93.5q0 33 -24 56t-59.5 37.5t-76.5 21.5t-74 7
q-86 0 -152.5 -25.5t-119.5 -70t-95.5 -105t-80.5 -131.5z" />
    <glyph glyph-name="s.wasallam" unicode="&#x610;" 
d="M-239 319q0 -24 -1 -54t-4.5 -56t-10.5 -43.5t-19 -17.5q-9 0 -15 16.5t-6 59.5q0 42 -9 73t-19.5 54.5t-19 40.5t-8.5 30q0 8 7.5 24.5t17 33t18 29t10.5 12.5q6 0 12 -11q11 -24 36.5 -42t54.5 -25q30 41 68.5 77.5t76.5 63.5t71 43t52 16q20 0 40 -5.5t36 -16.5
t26 -27t10 -38q0 -12 -3 -28t-8.5 -33t-14 -34.5t-19.5 -30.5q-23 -28 -59.5 -47.5t-77.5 -32t-82 -18.5t-74 -6q-20 0 -44.5 3.5t-41.5 11.5v-22zM-133 438q41 0 81.5 6.5t75 16.5t61 20t40.5 18q-3 6 -14.5 12.5t-26 12.5t-29.5 10t-25 4q-18 0 -38.5 -9t-42 -23.5
t-42.5 -32.5t-40 -35z" />
    <glyph glyph-name="a.salaam" unicode="&#x611;" 
d="M39 644q7 -6 14.5 -19t7.5 -21q0 -12 -13 -12q-9 0 -26.5 4t-37.5 4t-34.5 -4.5t-23.5 -11t-13 -13t-4 -10.5q0 -23 27.5 -49.5t73.5 -37.5q14 3 32.5 10t37 16t35.5 18.5t28 18.5q11 8 16 8t7.5 -6t2.5 -15q0 -14 -5.5 -28.5t-12.5 -27.5t-13.5 -21.5t-7.5 -9.5
q-55 -45 -128 -75t-155 -30q-12 0 -28.5 1t-26.5 4v-19q0 -26 -3 -55.5t-9 -55.5t-14.5 -43t-19.5 -17q-7 0 -13 17t-6 63q0 27 -7 56.5t-16.5 55.5t-19.5 45t-16 26q-4 7 -7 19t-3 24q0 11 4 19q4 6 10.5 21t13.5 30.5t14 27t11 11.5q5 0 12 -12q9 -29 23.5 -47t31 -29
t34 -16.5t32.5 -9.5q-11 8 -18.5 22t-7.5 39t10.5 55t29 56.5t45 44t58.5 17.5q16 0 34 -7.5t44 -30.5z" />
    <glyph glyph-name="rahima" unicode="&#x612;" 
d="M237 469q5 -22 5 -52q0 -39 -13.5 -83t-39 -81.5t-61.5 -62.5t-80 -25q-12 0 -34.5 3.5t-45 10t-39 15.5t-16.5 20q0 8 6.5 10t14.5 2q40 0 73.5 8t69.5 31q20 12 40 30t36 37.5t26.5 38.5t11.5 35q-3 18 -12 37t-24 36q-8 9 -12.5 17t-4.5 22q0 12 3 26t7 27t9 21.5
t8 8.5q8 0 19 -14.5t21.5 -35.5t19 -43.5t12.5 -38.5zM-333 206q-3 -30 -14.5 -47t-19.5 -17q-7 0 -7 17q0 51 12.5 95.5t33.5 81.5t50 65.5t62 48.5q-5 1 -15 1.5t-21.5 1t-21.5 1t-15 0.5q-23 0 -39 -2.5t-27.5 -6t-20 -6t-15.5 -2.5q-6 0 -6 8q0 7 3.5 19.5t8.5 25t10 23
t7 13.5q8 6 19.5 10.5t23.5 7t23.5 3.5t20.5 1q53 0 105 -10t110 -10q25 0 50.5 1.5t53.5 1.5q8 0 15 -2t7 -14q0 -10 -3.5 -23t-9 -24.5t-12 -19.5t-12.5 -8q-65 0 -116.5 -14.5t-90.5 -37.5t-67 -50.5t-46 -53.5t-26.5 -47t-9.5 -31z" />
    <glyph glyph-name="raziya" unicode="&#x613;" 
d="M231 474q2 -10 3.5 -24t1.5 -28q0 -39 -13.5 -83.5t-39 -82.5t-61 -63t-80.5 -25q-12 0 -35 4t-45 10.5t-38.5 15.5t-16.5 20q0 7 6.5 9t13.5 2q41 0 75 8t69 30q20 13 40 31t36 37.5t26.5 39t11.5 35.5q-3 38 -36 73q-17 17 -17 37q0 12 3 27t7 28t8.5 22t7.5 9
q9 0 20 -14.5t22 -35.5t19.5 -43.5t11.5 -38.5zM-235 674q-4 -9 -9 -20.5t-10.5 -21.5t-11 -16.5t-9.5 -6.5q-6 0 -17.5 5.5t-23 13t-20 13.5t-9.5 8q-1 3 -1 8q0 7 4.5 20.5t11 27t14 23.5t14.5 10q5 0 16.5 -5.5t23.5 -13.5t21 -16t9 -14q0 -3 -3 -15zM-331 333
q2 -8 4.5 -21.5t2.5 -30.5q0 -4 -2 -24.5t-6.5 -44t-12.5 -42.5t-20 -19q-8 0 -13 18t-5 64q0 33 -8.5 60.5t-18.5 49.5t-18.5 39t-8.5 28q0 8 7 24t16 32t16.5 28t9.5 12q8 0 12 -10q11 -25 36 -42t53 -23q29 39 66 74.5t74 61.5t68.5 41.5t49.5 15.5q20 0 39.5 -5.5
t34.5 -16t24.5 -26t9.5 -36.5q0 -12 -3 -27.5t-8.5 -32t-13 -33t-17.5 -29.5q-23 -26 -58.5 -45t-75 -31t-79.5 -18t-72 -6q-18 0 -42 3.5t-41 11.5zM-228 426q40 0 79 6.5t72.5 15.5t59 19t39.5 18q-4 4 -15 10.5t-24.5 11.5t-28 9t-25.5 4q-18 0 -37.5 -8t-40 -21.5
t-41 -30.5t-38.5 -34z" />
    <glyph glyph-name="arabic.takhallus" unicode="&#x614;" 
d="M203 226q-6 -42 -26.5 -67.5t-46.5 -25.5q-12 0 -27.5 4.5t-30 12t-27 18t-18.5 23.5q-6 -11 -15 -22t-24 -21q-19 -14 -49.5 -17t-76.5 -3q-51 0 -96.5 3t-71.5 10q-6 1 -17.5 6t-24.5 12.5t-25 16t-19 16.5q-4 4 -4 7q0 7 14 7q15 -2 37.5 -3.5t50.5 -2t58.5 -1
t60.5 -0.5q27 0 53 0.5t47 2t35.5 4t20.5 7.5q17 11 26.5 23t22.5 35q6 12 15 12t12 -19q3 -14 14 -25.5t28 -21.5q7 -3 22.5 -8t26.5 -5q8 0 10.5 3.5t2.5 13.5q0 23 -2.5 32.5t-2.5 14.5q0 7 4 15t9.5 15t10 11.5t6.5 5.5q2 2 3 2h2q6 0 10.5 -13.5t4.5 -37.5
q0 -18 -3 -40z" />
    <glyph glyph-name="tah.small" unicode="&#x615;" 
d="M12 506q1 -2 1 -4q0 -4 -2 -11t-5 -14.5l-6 -15t-4 -11.5q1 -17 3.5 -29.5t4.5 -23.5t3.5 -23.5t1.5 -30.5q0 -27 -4 -44q16 15 36 28.5t39 24t35 16.5t26 6q12 0 25 -6.5t23.5 -17.5t17.5 -25t7 -28q0 -15 -9 -39.5t-24 -44.5q-18 -22 -53 -38t-76 -26t-82 -15t-71 -5
q-5 0 -9.5 0.5t-6.5 0.5q-9 0 -27.5 7.5t-37 18.5t-32 24t-13.5 25q0 5 6 5q15 0 29.5 -1t28.5 -1q20 0 39 1t39 4q11 11 25 27.5t26 30.5q0 46 -7.5 82t-17 62.5t-17 44.5t-7.5 29q0 4 4.5 19.5t12 32t17.5 29.5t22 13q2 0 6 -5t4 -16q0 -17 8.5 -29.5t20.5 -26.5zM-28 217
q135 11 185 44q-5 18 -19.5 30.5t-29.5 12.5q-14 0 -32 -8.5t-37 -21t-37 -28t-30 -29.5z" />
    <glyph glyph-name="uni0616" unicode="&#x616;" 
d="M-169 490q0 -42 -2 -65.5t-5.5 -37.5t-9.5 -24.5t-15 -25.5q-12 -20 -36 -35t-49.5 -28t-47 -26t-28.5 -30q7 -4 23 -6t38 -2q46 0 114.5 6t146.5 14t157.5 15.5t148.5 9.5q13 0 13 -11q0 -8 -7 -20t-17.5 -23t-23 -19t-22.5 -8q-11 0 -47 -3t-85 -7.5t-104.5 -10
t-106 -10t-90 -7.5t-55.5 -3q-12 0 -24 -0.5t-25 -0.5q-20 0 -38 1.5t-32 7.5t-22 17t-8 30q0 39 15 67t37.5 47.5t49 33t49.5 24t38.5 20t16.5 22.5q-3 54 -6 102q-1 20 -2 41t-1.5 39.5t-1 33.5t-0.5 24t4 24.5t10 29.5t13.5 24.5t14.5 10.5q6 0 8 -4.5t4 -15.5
q1 -24 2.5 -52.5t3 -57.5t3 -57.5t1.5 -53.5zM3 717q8 -85 11.5 -148t3.5 -106q0 -51 -6.5 -85.5t-14.5 -55t-15.5 -29t-9.5 -8.5q-7 0 -7 14q0 9 0.5 18t0.5 21q0 47 -4.5 122.5t-15.5 181.5q-1 5 -1 8.5v7.5q0 11 3 17l20 40q5 11 10 18t10 7t9 -7t6 -16z" />
    <glyph glyph-name="uni0617" unicode="&#x617;" 
d="M135 428q3 -8 4.5 -22t1.5 -28q0 -38 -13.5 -81.5t-38.5 -81t-60.5 -62t-78.5 -24.5q-12 0 -34.5 4t-44.5 10.5t-38 15.5t-16 19q0 8 6 10t14 2q39 0 72.5 8.5t68.5 29.5q19 12 39 29.5t36.5 36.5t27 38.5t11.5 35.5q-2 19 -12 37t-25 35q-7 7 -12.5 16t-5.5 20
q0 12 3 27t7.5 27.5t9 21.5t6.5 9q9 0 20 -14.5t22 -35.5t19 -44t11 -39zM67 730q-3 -9 -8 -19.5t-10.5 -20.5t-11.5 -16.5t-10 -6.5q-6 0 -16.5 5.5t-21.5 12.5t-20 13.5t-10 8.5q-2 2 -2 3v2q0 7 4.5 20.5t11 27t14 23.5t14.5 10q5 0 16.5 -5.5t23 -13t20.5 -15.5t9 -13
q0 -3 -0.5 -6.5t-2.5 -9.5z" />
    <glyph glyph-name="uni0618" unicode="&#x618;" 
d="M115 175q2 0 3 1t2 1q3 0 3 -5q-2 -22 -11 -40t-20 -24l-208 -96l-4 -2h-1q-3 0 -3 5q1 11 5.5 25.5t10.5 21.5q4 6 12.5 11t24.5 13z" />
    <glyph glyph-name="uni0619" unicode="&#x619;" 
d="M129 227q23 -14 23 -26q0 -7 -3 -15.5t-7.5 -16t-9.5 -13t-8 -5.5q-4 0 -8.5 5t-17.5 13q-11 -16 -24 -34t-30 -35.5t-38 -32.5t-46 -26q-19 -8 -39.5 -14t-43.5 -6t-23 7q0 6 8 10l24 12q18 10 42 26.5t48.5 35.5t46 39t34.5 36q-8 4 -20.5 10.5t-24.5 16.5t-20.5 23
t-8.5 29q0 19 11.5 41t29.5 41t40 31.5t43 12.5q26 0 35 -20.5t9 -49.5q0 -28 -6 -54.5t-16 -40.5zM94 239q6 5 11.5 22t5.5 33q0 21 -11.5 34t-24.5 13q-7 0 -16 -5t-17 -12.5t-13.5 -15.5t-5.5 -15t6.5 -15t17 -15.5t23 -13.5t24.5 -10z" />
    <glyph glyph-name="uni061A" unicode="&#x61a;" 
d="M115 -2q2 0 3 1t2 1q3 0 3 -5q-2 -22 -11 -40t-20 -24l-208 -96l-4 -2h-1q-3 0 -3 5q1 11 5.5 25.5t10.5 21.5q4 6 12.5 11t24.5 13z" />
    <glyph glyph-name="Arabic.semicolon" unicode="&#x61b;" horiz-adv-x="582" 
d="M194 241q-26 37 -37.5 80.5t-11.5 91.5q0 52 12.5 102t35.5 94q15 28 37.5 57t47 53t48 39.5t38.5 15.5q16 0 16 -17q0 -15 -12 -35t-35 -40q-19 -16 -37 -39.5t-31.5 -51.5t-22 -59t-8.5 -61q0 -8 1.5 -20.5t4 -23.5t6 -19.5t7.5 -9.5q8 0 25 9t40 9q21 0 42.5 -7.5
t39.5 -22.5t29 -38t11 -53q0 -21 -8.5 -43t-24 -39.5t-37 -28.5t-47.5 -11q-83 0 -129 68zM192 -92q0 27 9.5 49.5t26 39t39.5 26t49 9.5t49 -9.5t39.5 -26t26 -39t9.5 -49.5q0 -26 -9.5 -48.5t-26 -39.5t-39.5 -26.5t-49 -9.5t-49 9.5t-39.5 26.5t-26 39.5t-9.5 48.5z" />
    <glyph glyph-name="uni061E" unicode="&#x61e;" horiz-adv-x="666" 
d="M314 576q9 -15 26.5 -32.5t37 -33.5t38.5 -28.5t32 -16.5q2 -1 3 -3t1 -4q0 -3 -5 -8q-6 -8 -23 -29t-36 -43.5t-35 -40t-20 -17.5q-13 0 -36.5 14.5t-47 34t-41 39.5t-17.5 32q0 4 5 10q10 16 27.5 38t35 42.5t31.5 34.5t19 14q3 0 5 -3zM328 109q-12 -15 -27.5 -33.5
t-30 -35.5t-26 -28.5t-14.5 -11.5q-12 0 -36 14t-47 33.5t-40.5 40t-17.5 32.5q0 3 4 10q10 16 27.5 38.5t35 42.5t32 34t18.5 14q3 0 6 -4q8 -13 22.5 -28t31.5 -29.5t34.5 -27t31.5 -19.5q12 17 28.5 37t32.5 37.5t28.5 29.5t16.5 12q3 0 5 -3q9 -14 26.5 -31.5t37 -33.5
t38.5 -28.5t32 -17.5q4 -1 4 -7q0 -3 -5 -8q-6 -8 -23.5 -29t-36.5 -43t-35 -39.5t-20 -17.5q-10 0 -28.5 10t-38.5 25t-38.5 32.5t-27.5 32.5z" />
    <glyph glyph-name="Arabic.questionmark" unicode="&#x61f;" horiz-adv-x="698" 
d="M623 681q0 -22 -7 -42.5t-20.5 -37t-32.5 -26.5t-43 -10q-21 0 -39 8t-32 22t-22 32t-8 38q0 54 27 78.5t65 24.5q13 0 27 -3q-13 23 -30.5 39t-37 25.5t-40 14t-38.5 4.5q-31 0 -59.5 -10.5t-50.5 -30t-35.5 -46.5t-13.5 -60q0 -30 14 -63t35.5 -70.5t46.5 -81
t46.5 -94.5t35.5 -111.5t14 -131.5q0 -49 -6.5 -83t-29.5 -34q-18 0 -24 8t-6 19q0 14 3 34t3 32q0 31 -8.5 56t-24 46.5t-36 41t-44.5 41.5q-36 32 -67.5 63t-55 66.5t-37 78t-13.5 96.5q0 61 24.5 114.5t65.5 93.5t96 63t115 23q49 0 93 -18.5t77.5 -49.5t53 -72.5
t19.5 -86.5zM274 -154q0 23 9 43.5t24 35.5t35.5 24t43.5 9t43 -9t35 -24t24 -35.5t9 -43.5t-9 -43t-24 -35t-35 -24t-43 -9t-43.5 9t-35.5 24t-24 35t-9 43z" />
    <glyph glyph-name="uni0620" unicode="&#x620;" horiz-adv-x="1311" 
d="M1082 209q42 -17 61.5 -58t19.5 -95q0 -24 -3.5 -53.5t-11.5 -59t-22 -58t-35 -51.5q-60 -65 -138 -113.5t-160 -81.5t-161.5 -49.5t-142.5 -16.5q-117 0 -199.5 32t-135 89t-76.5 135.5t-24 171.5q0 70 16.5 137.5t38.5 122.5t43.5 93.5t31.5 52.5q11 14 25.5 26
t28.5 12q19 0 19 -23q0 -9 -4.5 -21t-12.5 -26q-13 -24 -27.5 -54t-26.5 -65t-19.5 -75t-7.5 -83q0 -62 26.5 -113.5t74.5 -88.5t114 -57.5t145 -20.5q65 0 129.5 12t123.5 30.5t110 41t89.5 44t62 39.5t28.5 28q0 17 -25 24.5t-64 11.5t-86.5 7t-92 10.5t-81 22.5t-53.5 43
q-19 25 -19 63q0 73 26 142.5t68.5 132t97 115t111.5 90.5t112.5 59.5t99.5 21.5q45 0 72.5 -27.5t27.5 -86.5q0 -19 -5.5 -47.5t-14 -55.5t-19 -46t-20.5 -19q-12 0 -19.5 7t-16 15.5t-20 15.5t-31.5 7q-30 0 -65 -10t-71 -26t-70.5 -37t-63 -42.5t-49.5 -42.5t-29 -38
q-13 -21 -13 -32q1 -19 23 -31t54.5 -19.5t71.5 -11.5t75.5 -6.5t66 -5.5t42.5 -8zM661 -667q0 -14 -1 -33t-3 -37.5t-6.5 -34.5t-11.5 -25q-23 -34 -55 -56t-83 -22q-45 0 -72 29.5t-27 72.5t11.5 86.5t28.5 78.5t36.5 57.5t34.5 22.5q14 0 39 -9t49 -26.5t42 -43.5t18 -60
zM629 -707q-7 18 -21.5 34.5t-33 29.5t-39.5 21.5t-41 10.5q-12 -9 -20 -23t-12.5 -30t-6 -32t-1.5 -28q0 -21 16.5 -41.5t48.5 -20.5q16 0 35 8t35.5 19.5t28 25.5t11.5 26z" />
    <glyph glyph-name="hamza" unicode="&#x621;" horiz-adv-x="746" 
d="M230 13q0 2 -5 4q-38 8 -61 24t-35.5 34.5t-17 38.5t-4.5 35q0 47 15 92t40 85.5t58 74t69.5 58t74 38.5t71.5 14q45 0 63 -19.5t18 -67.5q0 -22 -6.5 -49t-17 -51t-24.5 -40.5t-29 -16.5t-20 9.5t-10.5 20.5t-16.5 20.5t-39 9.5q-31 0 -53 -11t-36 -25t-20.5 -26.5
t-6.5 -15.5q0 -9 13.5 -23.5t38.5 -28t60.5 -23t78.5 -9.5q17 0 32 2t20 5q26 14 52.5 29t49 27t40.5 20t27 8t12.5 -7t3.5 -18q0 -20 -7 -46t-17 -50.5t-21.5 -43t-21.5 -23.5q-36 -20 -92 -50.5t-118 -66.5t-124.5 -74.5t-110.5 -72.5q-8 -5 -19 -12.5t-23 -7.5
q-8 0 -11 7.5t-3 17.5q0 14 7.5 39t23 53.5t40.5 57.5t60 51q2 2 2 3z" />
    <glyph glyph-name="alefmadda" unicode="&#x622;" horiz-adv-x="466" 
d="M242 93q-1 63 -7.5 146.5t-15 173.5t-19 180.5t-19 168.5t-14 137t-5.5 87t12 69t28.5 79t35 65t31.5 27q10 0 14 -14t4 -39q0 -65 8.5 -163.5t19 -215.5t19.5 -245.5t9 -255.5q0 -45 -8 -91.5t-20.5 -85t-27.5 -63t-29 -24.5q-9 0 -12 15.5t-4 48.5zM495 1499
q5 6 11.5 11t12.5 5q10 0 10 -19q0 -27 -16 -59.5t-44.5 -61t-68.5 -47.5t-88 -19q-23 0 -41.5 3.5t-35.5 8t-34 8.5t-38 4q-31 0 -52 -7t-36 -17t-24 -21.5t-16 -20.5q-13 -19 -26 -19q-14 0 -14 19q0 23 15.5 55.5t43.5 62.5t67 51t85 21q19 0 37.5 -4t38.5 -8.5t42 -8.5
t48 -4t45 5.5t33 14.5t25 21t20 26z" />
    <glyph glyph-name="alefhamza" unicode="&#x623;" horiz-adv-x="455" 
d="M242 93q-1 63 -7.5 146.5t-15 173.5t-19 180.5t-19 168.5t-14 137t-5.5 87t12 69t28.5 79t35 65t31.5 27q10 0 14 -14t4 -39q0 -65 8.5 -163.5t19 -215.5t19.5 -245.5t9 -255.5q0 -45 -8 -91.5t-20.5 -85t-27.5 -63t-29 -24.5q-9 0 -12 15.5t-4 48.5zM133 1512
q0 -9 12 -21.5t32 -24t46 -19t55 -7.5q8 0 16.5 0.5t10.5 1.5q57 24 84 37t35 13q12 0 12 -14q0 -10 -5.5 -25.5t-13.5 -30.5t-16.5 -27t-15.5 -15q-88 -39 -147.5 -67t-97 -47t-57.5 -28t-28 -9q-9 0 -9 14q0 8 2.5 16.5t4.5 13.5q6 14 24 33t56 44q1 1 1 3t-2 3
q-37 14 -51 38t-14 64q0 33 19 70t50.5 68t70.5 51.5t80 20.5q23 0 39.5 -9.5t16.5 -38.5q0 -9 -4 -26.5t-11.5 -35t-18 -30t-23.5 -12.5q-10 0 -13 6.5t-7.5 15t-14.5 15t-33 6.5q-10 0 -23 -3.5t-25 -9.5t-22 -15t-15 -19z" />
    <glyph glyph-name="wawhamza" unicode="&#x624;" horiz-adv-x="878" 
d="M728 -51q-2 23 -5 37.5t-13 31.5q-19 -33 -62.5 -58.5t-104.5 -25.5q-45 0 -75.5 14.5t-48.5 37t-26 50t-8 54.5q0 66 20 132t49.5 119.5t63.5 87t62 33.5q34 0 65 -22t57 -59t46.5 -86t35.5 -103t22.5 -109.5t7.5 -106.5q0 -98 -26.5 -185.5t-72.5 -161t-108 -130.5
t-132 -94q-21 -11 -47.5 -16t-57.5 -5q-52 0 -109.5 11t-106 27t-80 33.5t-31.5 31.5q0 11 11 15t27 4q47 0 91 3.5t86 13.5t83.5 27t84.5 44q51 32 104 77.5t96.5 95t71.5 98t30 84.5zM653 182q-8 17 -21.5 35.5t-30 34.5t-35.5 26t-39 10q-11 -6 -21.5 -19t-19 -27
t-14 -26.5t-5.5 -19.5q0 -30 21 -53.5t64 -23.5q21 0 37.5 6t29 15.5t21 20.5t13.5 21zM471 770q0 -9 12 -21.5t32 -24t46 -19t55 -7.5q8 0 16.5 0.5t10.5 1.5q57 24 84 37t35 13q12 0 12 -14q0 -10 -5.5 -25.5t-13.5 -30.5t-16.5 -27t-15.5 -15q-88 -39 -147.5 -67t-97 -47
t-57.5 -28t-28 -9q-9 0 -9 14q0 8 2.5 16.5t4.5 13.5q6 14 24 33t56 44q1 1 1 3t-2 3q-37 14 -51 38t-14 64q0 33 19 70t50.5 68t70.5 51.5t80 20.5q23 0 39.5 -9.5t16.5 -38.5q0 -9 -4 -26.5t-11.5 -35t-18 -30t-23.5 -12.5q-10 0 -13 6.5t-7.5 15t-14.5 15t-33 6.5
q-10 0 -23 -3.5t-25 -9.5t-22 -15t-15 -19z" />
    <glyph glyph-name="alefhamzabelow" unicode="&#x625;" horiz-adv-x="455" 
d="M242 93q-1 63 -7.5 146.5t-15 173.5t-19 180.5t-19 168.5t-14 137t-5.5 87t12 69t28.5 79t35 65t31.5 27q10 0 14 -14t4 -39q0 -65 8.5 -163.5t19 -215.5t19.5 -245.5t9 -255.5q0 -45 -8 -91.5t-20.5 -85t-27.5 -63t-29 -24.5q-9 0 -12 15.5t-4 48.5zM167 -202
q0 -9 12 -21.5t32 -24t46 -19t55 -7.5q8 0 16.5 0.5t10.5 1.5q57 24 84 37t35 13q12 0 12 -14q0 -10 -5.5 -25.5t-13.5 -30.5t-16.5 -27t-15.5 -15q-88 -39 -147.5 -67t-97 -47t-57.5 -28t-28 -9q-9 0 -9 14q0 8 2.5 16.5t4.5 13.5q6 14 24 33t56 44q1 1 1 3t-2 3
q-37 14 -51 38t-14 64q0 33 19 70t50.5 68t70.5 51.5t80 20.5q23 0 39.5 -9.5t16.5 -38.5q0 -9 -4 -26.5t-11.5 -35t-18 -30t-23.5 -12.5q-10 0 -13 6.5t-7.5 15t-14.5 15t-33 6.5q-10 0 -23 -3.5t-25 -9.5t-22 -15t-15 -19z" />
    <glyph glyph-name="yehhamza" unicode="&#x626;" horiz-adv-x="1309" 
d="M1082 209q42 -17 61.5 -58t19.5 -95q0 -24 -3.5 -53.5t-11.5 -59t-22 -58t-35 -51.5q-60 -65 -138 -113.5t-160 -81.5t-161.5 -49.5t-142.5 -16.5q-117 0 -199.5 32t-135 89t-76.5 135.5t-24 171.5q0 70 16.5 137.5t38.5 122.5t43.5 93.5t31.5 52.5q11 14 25.5 26
t28.5 12q19 0 19 -23q0 -9 -4.5 -21t-12.5 -26q-13 -24 -27.5 -54t-26.5 -65t-19.5 -75t-7.5 -83q0 -62 26.5 -113.5t74.5 -88.5t114 -57.5t145 -20.5q65 0 129.5 12t123.5 30.5t110 41t89.5 44t62 39.5t28.5 28q0 17 -25 24.5t-64 11.5t-86.5 7t-92 10.5t-81 22.5t-53.5 43
q-19 25 -19 63q0 73 26 142.5t68.5 132t97 115t111.5 90.5t112.5 59.5t99.5 21.5q45 0 72.5 -27.5t27.5 -86.5q0 -19 -5.5 -47.5t-14 -55.5t-19 -46t-20.5 -19q-12 0 -19.5 7t-16 15.5t-20 15.5t-31.5 7q-30 0 -65 -10t-71 -26t-70.5 -37t-63 -42.5t-49.5 -42.5t-29 -38
q-13 -21 -13 -32q1 -19 23 -31t54.5 -19.5t71.5 -11.5t75.5 -6.5t66 -5.5t42.5 -8zM461 773q0 -9 12 -21.5t32 -24t46 -19t55 -7.5q8 0 16.5 0.5t10.5 1.5q57 24 84 37t35 13q12 0 12 -14q0 -10 -5.5 -25.5t-13.5 -30.5t-16.5 -27t-15.5 -15q-88 -39 -147.5 -67t-97 -47
t-57.5 -28t-28 -9q-9 0 -9 14q0 8 2.5 16.5t4.5 13.5q6 14 24 33t56 44q1 1 1 3t-2 3q-37 14 -51 38t-14 64q0 33 19 70t50.5 68t70.5 51.5t80 20.5q23 0 39.5 -9.5t16.5 -38.5q0 -9 -4 -26.5t-11.5 -35t-18 -30t-23.5 -12.5q-10 0 -13 6.5t-7.5 15t-14.5 15t-33 6.5
q-10 0 -23 -3.5t-25 -9.5t-22 -15t-15 -19z" />
    <glyph glyph-name="alef" unicode="&#x627;" horiz-adv-x="455" 
d="M242 93q-1 63 -7.5 146.5t-15 173.5t-19 180.5t-19 168.5t-14 137t-5.5 87t12 69t28.5 79t35 65t31.5 27q10 0 14 -14t4 -39q0 -65 8.5 -163.5t19 -215.5t19.5 -245.5t9 -255.5q0 -45 -8 -91.5t-20.5 -85t-27.5 -63t-29 -24.5q-9 0 -12 15.5t-4 48.5z" />
    <glyph glyph-name="uni.beh" unicode="&#x628;" horiz-adv-x="1677" 
d="M1609 412q0 -32 -5.5 -67.5t-14.5 -69t-20 -61.5t-22 -44q-18 -26 -59.5 -52t-102 -50t-137.5 -44.5t-164.5 -36t-183 -24.5t-193.5 -9q-165 0 -284 20.5t-195.5 60.5t-112.5 100t-36 138q0 54 14 114t34 111t43.5 84.5t43.5 33.5q23 0 23 -25q0 -13 -7.5 -30t-16 -39
t-16 -48.5t-7.5 -59.5q0 -38 26.5 -76.5t90 -69.5t169 -50.5t263.5 -19.5q104 0 203 8t186 22t159.5 32t125 38t81.5 39.5t29 37.5q0 15 -16 36.5t-34.5 43t-34.5 41.5t-16 33q0 16 6 49.5t15 67.5t21 59.5t24 25.5q15 0 35.5 -29.5t39.5 -75.5t32.5 -102.5t13.5 -111.5z
M874 -192q9 -14 25 -30t34 -31t36 -27t30 -16q4 -1 4 -6q0 -3 -5 -8q-6 -7 -22 -27t-33.5 -41t-32.5 -37t-19 -16q-12 0 -34 13.5t-43.5 31.5t-38 37t-16.5 30q0 4 4 9q10 15 26 36t32.5 40t30 32t17.5 13q3 0 5 -3z" />
    <glyph glyph-name="tehmarbuta" unicode="&#x629;" horiz-adv-x="571" 
d="M504 274q0 -57 -18 -119.5t-48 -107.5q-13 -19 -33 -36t-45.5 -30.5t-56.5 -21.5t-65 -8q-44 0 -77.5 17t-56 46t-33.5 66.5t-11 78.5q0 35 11.5 79.5t30.5 90.5t42.5 90t48.5 78t48 55t40 21q26 0 64 -17t73.5 -53t60.5 -93t25 -136zM415 224q-7 22 -25 47t-43 45
t-53.5 33.5t-55.5 13.5q-20 -9 -37 -26t-29 -36t-19 -38t-7 -34q0 -11 8.5 -24t23 -24.5t34 -19.5t41.5 -8q28 0 57 6t52 16t37.5 22.5t15.5 26.5zM278 842q-11 -14 -25 -31.5t-28 -33t-24.5 -26.5t-13.5 -11q-12 0 -34 13.5t-43.5 31.5t-38 37t-16.5 30q0 4 4 9
q10 15 26 36t32.5 40t30 32t17.5 13q3 0 5 -3q7 -12 21 -26.5t29.5 -28t32 -25t29.5 -18.5q11 16 26.5 35t30.5 35.5t26.5 27.5t15.5 11q3 0 5 -3q9 -14 25 -30t34 -31t36 -27t30 -16q4 -1 4 -6q0 -3 -5 -8q-6 -7 -22 -27t-33.5 -41t-32.5 -37t-19 -16q-10 0 -27.5 9.5
t-36 24t-35.5 30.5t-26 30z" />
    <glyph glyph-name="teh" unicode="&#x62a;" horiz-adv-x="1677" 
d="M1609 412q0 -32 -5.5 -67.5t-14.5 -69t-20 -61.5t-22 -44q-18 -26 -59.5 -52t-102 -50t-137.5 -44.5t-164.5 -36t-183 -24.5t-193.5 -9q-165 0 -284 20.5t-195.5 60.5t-112.5 100t-36 138q0 54 14 114t34 111t43.5 84.5t43.5 33.5q23 0 23 -25q0 -13 -7.5 -30t-16 -39
t-16 -48.5t-7.5 -59.5q0 -38 26.5 -76.5t90 -69.5t169 -50.5t263.5 -19.5q104 0 203 8t186 22t159.5 32t125 38t81.5 39.5t29 37.5q0 15 -16 36.5t-34.5 43t-34.5 41.5t-16 33q0 16 6 49.5t15 67.5t21 59.5t24 25.5q15 0 35.5 -29.5t39.5 -75.5t32.5 -102.5t13.5 -111.5z
M875 747q-11 -14 -25 -31.5t-28 -33t-24.5 -26.5t-13.5 -11q-12 0 -34 13.5t-43.5 31.5t-38 37t-16.5 30q0 4 4 9q10 15 26 36t32.5 40t30 32t17.5 13q3 0 5 -3q7 -12 21 -26.5t29.5 -28t32 -25t29.5 -18.5q11 16 26.5 35t30.5 35.5t26.5 27.5t15.5 11q3 0 5 -3
q9 -14 25 -30t34 -31t36 -27t30 -16q4 -1 4 -6q0 -3 -5 -8q-6 -7 -22 -27t-33.5 -41t-32.5 -37t-19 -16q-10 0 -27.5 9.5t-36 24t-35.5 30.5t-26 30z" />
    <glyph glyph-name="theh" unicode="&#x62b;" horiz-adv-x="1680" 
d="M1609 412q0 -32 -5.5 -67.5t-14.5 -69t-20 -61.5t-22 -44q-18 -26 -59.5 -52t-102 -50t-137.5 -44.5t-164.5 -36t-183 -24.5t-193.5 -9q-165 0 -284 20.5t-195.5 60.5t-112.5 100t-36 138q0 54 14 114t34 111t43.5 84.5t43.5 33.5q23 0 23 -25q0 -13 -7.5 -30t-16 -39
t-16 -48.5t-7.5 -59.5q0 -38 26.5 -76.5t90 -69.5t169 -50.5t263.5 -19.5q104 0 203 8t186 22t159.5 32t125 38t81.5 39.5t29 37.5q0 15 -16 36.5t-34.5 43t-34.5 41.5t-16 33q0 16 6 49.5t15 67.5t21 59.5t24 25.5q15 0 35.5 -29.5t39.5 -75.5t32.5 -102.5t13.5 -111.5z
M863 1183q9 -14 25 -30t34 -31t36 -27t30 -16q4 -1 4 -6q0 -3 -5 -8q-6 -7 -22 -27t-33.5 -41t-32.5 -37t-19 -16q-12 0 -34 13.5t-43.5 31.5t-38 37t-16.5 30q0 4 4 9q10 15 26 36t32.5 40t30 32t17.5 13q3 0 5 -3zM875 747q-11 -14 -25 -31.5t-28 -33t-24.5 -26.5
t-13.5 -11q-12 0 -34 13.5t-43.5 31.5t-38 37t-16.5 30q0 4 4 9q10 15 26 36t32.5 40t30 32t17.5 13q3 0 5 -3q7 -12 21 -26.5t29.5 -28t32 -25t29.5 -18.5q11 16 26.5 35t30.5 35.5t26.5 27.5t15.5 11q3 0 5 -3q9 -14 25 -30t34 -31t36 -27t30 -16q4 -1 4 -6q0 -3 -5 -8
q-6 -7 -22 -27t-33.5 -41t-32.5 -37t-19 -16q-10 0 -27.5 9.5t-36 24t-35.5 30.5t-26 30z" />
    <glyph glyph-name="jeem" unicode="&#x62c;" horiz-adv-x="1197" 
d="M472 351q-86 18 -163 18q-55 0 -98 -7t-74 -15.5t-50 -15.5t-25 -7q-11 0 -11 11q0 3 4 18.5t11.5 38t16.5 49t19.5 50t20.5 41.5t19 25q17 13 40.5 21t50 12.5t53 6.5t49.5 2q46 0 103.5 -7.5t121.5 -17t133.5 -17t140.5 -7.5q63 0 132 2.5t132 2.5q14 0 20.5 -2
t6.5 -16q0 -8 -3.5 -26t-10 -41t-15 -47.5t-17.5 -45t-18.5 -33.5t-17.5 -13q-12 0 -25 0.5t-25 0.5q-130 0 -244 -23.5t-208.5 -65t-169.5 -99t-126.5 -126t-78.5 -146t-27 -157.5q0 -94 34 -162.5t91 -117t130.5 -79.5t152.5 -48.5t156.5 -24t143.5 -6.5q77 0 142.5 4
t117 9.5t87.5 9.5t54 4h7t10 -1.5t8.5 -4t3.5 -6.5q0 -8 -7 -17.5t-16.5 -19.5t-20.5 -19.5t-20 -17.5q-47 -35 -102 -67.5t-117.5 -58t-133 -41t-147.5 -15.5q-174 0 -300 41t-207.5 115.5t-120 177.5t-38.5 226q0 120 26.5 231.5t80 209t133 177.5t185.5 137zM729 -89
q9 -14 25 -30t34 -31t36 -27t30 -16q4 -1 4 -6q0 -3 -5 -8q-6 -7 -22 -27t-33.5 -41t-32.5 -37t-19 -16q-12 0 -34 13.5t-43.5 31.5t-38 37t-16.5 30q0 4 4 9q10 15 26 36t32.5 40t30 32t17.5 13q3 0 5 -3z" />
    <glyph glyph-name="hah" unicode="&#x62d;" horiz-adv-x="1197" 
d="M472 351q-86 18 -163 18q-55 0 -98 -7t-74 -15.5t-50 -15.5t-25 -7q-11 0 -11 11q0 3 4 18.5t11.5 38t16.5 49t19.5 50t20.5 41.5t19 25q17 13 40.5 21t50 12.5t53 6.5t49.5 2q46 0 103.5 -7.5t121.5 -17t133.5 -17t140.5 -7.5q63 0 132 2.5t132 2.5q14 0 20.5 -2
t6.5 -16q0 -8 -3.5 -26t-10 -41t-15 -47.5t-17.5 -45t-18.5 -33.5t-17.5 -13q-12 0 -25 0.5t-25 0.5q-130 0 -244 -23.5t-208.5 -65t-169.5 -99t-126.5 -126t-78.5 -146t-27 -157.5q0 -94 34 -162.5t91 -117t130.5 -79.5t152.5 -48.5t156.5 -24t143.5 -6.5q77 0 142.5 4
t117 9.5t87.5 9.5t54 4h7t10 -1.5t8.5 -4t3.5 -6.5q0 -8 -7 -17.5t-16.5 -19.5t-20.5 -19.5t-20 -17.5q-47 -35 -102 -67.5t-117.5 -58t-133 -41t-147.5 -15.5q-174 0 -300 41t-207.5 115.5t-120 177.5t-38.5 226q0 120 26.5 231.5t80 209t133 177.5t185.5 137z" />
    <glyph glyph-name="khah" unicode="&#x62e;" horiz-adv-x="1197" 
d="M472 351q-86 18 -163 18q-55 0 -98 -7t-74 -15.5t-50 -15.5t-25 -7q-11 0 -11 11q0 3 4 18.5t11.5 38t16.5 49t19.5 50t20.5 41.5t19 25q17 13 40.5 21t50 12.5t53 6.5t49.5 2q46 0 103.5 -7.5t121.5 -17t133.5 -17t140.5 -7.5q63 0 132 2.5t132 2.5q14 0 20.5 -2
t6.5 -16q0 -8 -3.5 -26t-10 -41t-15 -47.5t-17.5 -45t-18.5 -33.5t-17.5 -13q-12 0 -25 0.5t-25 0.5q-130 0 -244 -23.5t-208.5 -65t-169.5 -99t-126.5 -126t-78.5 -146t-27 -157.5q0 -94 34 -162.5t91 -117t130.5 -79.5t152.5 -48.5t156.5 -24t143.5 -6.5q77 0 142.5 4
t117 9.5t87.5 9.5t54 4h7t10 -1.5t8.5 -4t3.5 -6.5q0 -8 -7 -17.5t-16.5 -19.5t-20.5 -19.5t-20 -17.5q-47 -35 -102 -67.5t-117.5 -58t-133 -41t-147.5 -15.5q-174 0 -300 41t-207.5 115.5t-120 177.5t-38.5 226q0 120 26.5 231.5t80 209t133 177.5t185.5 137zM625 997
q9 -14 25 -30t34 -31t36 -27t30 -16q4 -1 4 -6q0 -3 -5 -8q-6 -7 -22 -27t-33.5 -41t-32.5 -37t-19 -16q-12 0 -34 13.5t-43.5 31.5t-38 37t-16.5 30q0 4 4 9q10 15 26 36t32.5 40t30 32t17.5 13q3 0 5 -3z" />
    <glyph glyph-name="dal" unicode="&#x62f;" horiz-adv-x="712" 
d="M549 283q0 3 -1 6q-17 40 -48.5 81.5t-70.5 75t-81.5 54.5t-81.5 21q-5 0 -11 -3.5t-12.5 -7t-14 -7t-13.5 -3.5q-8 0 -14.5 11.5t-6.5 40.5q0 43 7.5 76.5t18 57.5t21 38.5t16.5 19.5q10 8 22.5 11.5t25.5 3.5q49 0 99.5 -31.5t94 -84t77 -119.5t47.5 -137
q4 -20 6.5 -49t2.5 -61q0 -14 -2 -37t-5.5 -48.5t-9 -49.5t-11.5 -40q-11 -27 -45.5 -54.5t-87.5 -50t-120.5 -37t-142.5 -14.5q-63 0 -95.5 19t-32.5 67q0 30 3.5 61.5t10 57t15.5 42t20 16.5q7 0 12.5 -3t15 -6t27 -6t47.5 -3q37 0 80.5 5.5t85.5 16t80 25.5t65 34
q7 6 7 11z" />
    <glyph glyph-name="thal" unicode="&#x630;" horiz-adv-x="712" 
d="M549 283q0 3 -1 6q-17 40 -48.5 81.5t-70.5 75t-81.5 54.5t-81.5 21q-5 0 -11 -3.5t-12.5 -7t-14 -7t-13.5 -3.5q-8 0 -14.5 11.5t-6.5 40.5q0 43 7.5 76.5t18 57.5t21 38.5t16.5 19.5q10 8 22.5 11.5t25.5 3.5q49 0 99.5 -31.5t94 -84t77 -119.5t47.5 -137
q4 -20 6.5 -49t2.5 -61q0 -14 -2 -37t-5.5 -48.5t-9 -49.5t-11.5 -40q-11 -27 -45.5 -54.5t-87.5 -50t-120.5 -37t-142.5 -14.5q-63 0 -95.5 19t-32.5 67q0 30 3.5 61.5t10 57t15.5 42t20 16.5q7 0 12.5 -3t15 -6t27 -6t47.5 -3q37 0 80.5 5.5t85.5 16t80 25.5t65 34
q7 6 7 11zM300 1169q9 -14 25 -30t34 -31t36 -27t30 -16q4 -1 4 -6q0 -3 -5 -8q-6 -7 -22 -27t-33.5 -41t-32.5 -37t-19 -16q-12 0 -34 13.5t-43.5 31.5t-38 37t-16.5 30q0 4 4 9q10 15 26 36t32.5 40t30 32t17.5 13q3 0 5 -3z" />
    <glyph glyph-name="reh" unicode="&#x631;" horiz-adv-x="872" 
d="M724 -55q-5 36 -22.5 71.5t-38 66t-39.5 54.5t-26 39q-2 4 -3 10t-1 12q0 14 5.5 45t14 62.5t19 55.5t21.5 24q15 0 35.5 -28t41 -72.5t38 -99t26.5 -108.5q4 -20 6 -49.5t2 -61.5q0 -79 -18 -157.5t-57.5 -151.5t-102 -138.5t-151.5 -118.5q-20 -11 -45 -15.5t-55 -4.5
q-53 0 -111 12t-107 28.5t-81 35t-32 31.5q0 12 13 15.5t30 3.5q46 0 89.5 4t85 14t82.5 27t83 43q45 28 97 72t96.5 93t74 98t30.5 88z" />
    <glyph glyph-name="zeh" unicode="&#x632;" horiz-adv-x="872" 
d="M724 -55q-5 36 -22.5 71.5t-38 66t-39.5 54.5t-26 39q-2 4 -3 10t-1 12q0 14 5.5 45t14 62.5t19 55.5t21.5 24q15 0 35.5 -28t41 -72.5t38 -99t26.5 -108.5q4 -20 6 -49.5t2 -61.5q0 -79 -18 -157.5t-57.5 -151.5t-102 -138.5t-151.5 -118.5q-20 -11 -45 -15.5t-55 -4.5
q-53 0 -111 12t-107 28.5t-81 35t-32 31.5q0 12 13 15.5t30 3.5q46 0 89.5 4t85 14t82.5 27t83 43q45 28 97 72t96.5 93t74 98t30.5 88zM596 846q9 -14 25 -30t34 -31t36 -27t30 -16q4 -1 4 -6q0 -3 -5 -8q-6 -7 -22 -27t-33.5 -41t-32.5 -37t-19 -16q-12 0 -34 13.5
t-43.5 31.5t-38 37t-16.5 30q0 4 4 9q10 15 26 36t32.5 40t30 32t17.5 13q3 0 5 -3z" />
    <glyph glyph-name="seen" unicode="&#x633;" horiz-adv-x="1765" 
d="M1038 -29q0 -11 0.5 -20.5t0.5 -19.5q0 -93 -13.5 -163.5t-40 -124.5t-65.5 -95.5t-90 -75.5q-26 -18 -67 -38.5t-92.5 -38t-110.5 -29t-121 -11.5q-192 0 -288 96t-96 282q0 65 11 127.5t28.5 117.5t39.5 101.5t43.5 80t40 52t30.5 18.5q13 0 17 -7.5t4 -17.5
q0 -19 -16.5 -50t-37 -72.5t-37 -92.5t-16.5 -109q0 -140 84.5 -210.5t241.5 -70.5q74 0 150.5 21t141.5 57t111.5 83.5t61.5 101.5q-5 61 -22.5 102t-37 70.5t-35 51.5t-15.5 45q0 6 0.5 17.5t2.5 25.5q4 19 12.5 50t18.5 60t21 50.5t19 21.5q10 0 14 -3t7 -7
q25 -38 45.5 -65t41.5 -43.5t45.5 -24t56.5 -7.5q27 0 56 10t55.5 29t49.5 47t39 63q11 24 23 37.5t23 13.5t17 -10t6 -24q0 -18 -4 -37t-6 -27q10 -15 28.5 -30.5t44 -28t56.5 -21t66 -8.5q10 0 17.5 2t12.5 4q0 16 -7.5 31t-16 27.5t-16 21.5t-7.5 14q0 4 5 18.5
t12.5 33.5t16 39.5t16.5 37.5q10 21 18.5 36t16.5 15q13 0 22 -20.5t15 -51.5t8.5 -66t2.5 -64q0 -50 -14 -101.5t-38 -93t-56.5 -67.5t-69.5 -26q-71 0 -126 24t-91 69q-23 -40 -49 -66t-54 -41.5t-58.5 -22t-63.5 -6.5q-20 0 -39 3z" />
    <glyph glyph-name="sheen" unicode="&#x634;" horiz-adv-x="1746" 
d="M1038 -29q0 -11 0.5 -20.5t0.5 -19.5q0 -93 -13.5 -163.5t-40 -124.5t-65.5 -95.5t-90 -75.5q-26 -18 -67 -38.5t-92.5 -38t-110.5 -29t-121 -11.5q-192 0 -288 96t-96 282q0 65 11 127.5t28.5 117.5t39.5 101.5t43.5 80t40 52t30.5 18.5q13 0 17 -7.5t4 -17.5
q0 -19 -16.5 -50t-37 -72.5t-37 -92.5t-16.5 -109q0 -140 84.5 -210.5t241.5 -70.5q74 0 150.5 21t141.5 57t111.5 83.5t61.5 101.5q-5 61 -22.5 102t-37 70.5t-35 51.5t-15.5 45q0 6 0.5 17.5t2.5 25.5q4 19 12.5 50t18.5 60t21 50.5t19 21.5q10 0 14 -3t7 -7
q25 -38 45.5 -65t41.5 -43.5t45.5 -24t56.5 -7.5q27 0 56 10t55.5 29t49.5 47t39 63q11 24 23 37.5t23 13.5t17 -10t6 -24q0 -18 -4 -37t-6 -27q10 -15 28.5 -30.5t44 -28t56.5 -21t66 -8.5q10 0 17.5 2t12.5 4q0 16 -7.5 31t-16 27.5t-16 21.5t-7.5 14q0 4 5 18.5
t12.5 33.5t16 39.5t16.5 37.5q10 21 18.5 36t16.5 15q13 0 22 -20.5t15 -51.5t8.5 -66t2.5 -64q0 -50 -14 -101.5t-38 -93t-56.5 -67.5t-69.5 -26q-71 0 -126 24t-91 69q-23 -40 -49 -66t-54 -41.5t-58.5 -22t-63.5 -6.5q-20 0 -39 3zM1293 657q-11 -14 -25 -31.5t-28 -33
t-24.5 -26.5t-13.5 -11q-12 0 -34 13.5t-43.5 31.5t-38 37t-16.5 30q0 4 4 9q10 15 26 36t32.5 40t30 32t17.5 13q3 0 5 -3q7 -12 21 -26.5t29.5 -28t32 -25t29.5 -18.5q11 16 26.5 35t30.5 35.5t26.5 27.5t15.5 11q3 0 5 -3q9 -14 25 -30t34 -31t36 -27t30 -16q4 -1 4 -6
q0 -3 -5 -8q-6 -7 -22 -27t-33.5 -41t-32.5 -37t-19 -16q-10 0 -27.5 9.5t-36 24t-35.5 30.5t-26 30zM1281 1093q9 -14 25 -30t34 -31t36 -27t30 -16q4 -1 4 -6q0 -3 -5 -8q-6 -7 -22 -27t-33.5 -41t-32.5 -37t-19 -16q-12 0 -34 13.5t-43.5 31.5t-38 37t-16.5 30q0 4 4 9
q10 15 26 36t32.5 40t30 32t17.5 13q3 0 5 -3z" />
    <glyph glyph-name="sad" unicode="&#x635;" horiz-adv-x="2014" 
d="M1046 -17q2 -12 2 -21v-16q0 -97 -13.5 -169t-39.5 -126.5t-65.5 -96t-90.5 -76.5q-26 -18 -67 -38.5t-92.5 -37.5t-110.5 -28.5t-121 -11.5q-187 0 -285.5 93.5t-98.5 283.5q0 98 23.5 188t55.5 159t64 110t50 41q13 0 17 -8t4 -17q0 -19 -16.5 -50t-37 -72.5t-37 -92.5
t-16.5 -109q0 -140 83.5 -211t242.5 -71q75 0 152 21.5t142.5 58t111.5 84t58 100.5q-3 45 -12.5 79t-22 60t-26 45t-25 35t-19 31t-7.5 32q0 7 4 25.5t10 42t14.5 49t17 46.5t17 34.5t15.5 13.5q8 0 13.5 -3t7.5 -7q32 -60 84 -104.5t118 -52.5q29 38 70.5 85t90 94
t102 91.5t106 79t102 55.5t91.5 21q70 0 115 -20.5t71.5 -49.5t36.5 -60.5t10 -53.5q0 -29 -7.5 -66t-21 -75t-31.5 -74t-38 -62q-47 -53 -117 -91.5t-150 -64t-164 -38t-159 -12.5q-56 0 -106.5 5t-104.5 23zM1256 189h26.5t27.5 1q65 3 136 13.5t137.5 26t123 35.5
t92.5 41q8 5 14.5 9.5t12.5 9.5q-7 18 -29 36.5t-50.5 33.5t-59 25t-54.5 10q-43 0 -91.5 -21t-98 -55t-97.5 -77.5t-90 -87.5z" />
    <glyph glyph-name="dad" unicode="&#x636;" horiz-adv-x="1999" 
d="M1046 -17q2 -12 2 -21v-16q0 -97 -13.5 -169t-39.5 -126.5t-65.5 -96t-90.5 -76.5q-26 -18 -67 -38.5t-92.5 -37.5t-110.5 -28.5t-121 -11.5q-187 0 -285.5 93.5t-98.5 283.5q0 98 23.5 188t55.5 159t64 110t50 41q13 0 17 -8t4 -17q0 -19 -16.5 -50t-37 -72.5t-37 -92.5
t-16.5 -109q0 -140 83.5 -211t242.5 -71q75 0 152 21.5t142.5 58t111.5 84t58 100.5q-3 45 -12.5 79t-22 60t-26 45t-25 35t-19 31t-7.5 32q0 7 4 25.5t10 42t14.5 49t17 46.5t17 34.5t15.5 13.5q8 0 13.5 -3t7.5 -7q32 -60 84 -104.5t118 -52.5q29 38 70.5 85t90 94
t102 91.5t106 79t102 55.5t91.5 21q70 0 115 -20.5t71.5 -49.5t36.5 -60.5t10 -53.5q0 -29 -7.5 -66t-21 -75t-31.5 -74t-38 -62q-47 -53 -117 -91.5t-150 -64t-164 -38t-159 -12.5q-56 0 -106.5 5t-104.5 23zM1256 189h26.5t27.5 1q65 3 136 13.5t137.5 26t123 35.5
t92.5 41q8 5 14.5 9.5t12.5 9.5q-7 18 -29 36.5t-50.5 33.5t-59 25t-54.5 10q-43 0 -91.5 -21t-98 -55t-97.5 -77.5t-90 -87.5zM1160 858q9 -14 25 -30t34 -31t36 -27t30 -16q4 -1 4 -6q0 -3 -5 -8q-6 -7 -22 -27t-33.5 -41t-32.5 -37t-19 -16q-12 0 -34 13.5t-43.5 31.5
t-38 37t-16.5 30q0 4 4 9q10 15 26 36t32.5 40t30 32t17.5 13q3 0 5 -3z" />
    <glyph glyph-name="tah" unicode="&#x637;" horiz-adv-x="1335" 
d="M409 179q38 42 89 92.5t104 101.5q2 17 2 33.5v33.5q0 115 -24.5 235.5t-56.5 250.5q-32 31 -42.5 68t-10.5 83q0 24 11 57.5t26 64.5t31.5 52.5t28.5 21.5q13 0 14 -19q2 -21 6.5 -40t16 -37.5t31.5 -37t53 -39.5q16 -9 16 -50q0 -16 -4.5 -35t-12 -39.5t-16.5 -39.5
t-18 -35q-1 -2 -2 -4.5t-1 -4.5q6 -35 12.5 -75t12.5 -83t9.5 -87t3.5 -86q0 -31 -2 -62.5t-8 -60.5q52 43 103 82t96 69t82.5 47.5t64.5 17.5q48 0 94.5 -19.5t82.5 -49t58 -64t22 -65.5q0 -27 -8.5 -63.5t-22.5 -75.5t-33.5 -76.5t-41.5 -67.5q-36 -48 -111 -89.5
t-177.5 -72t-227.5 -49t-262 -20.5q-17 0 -36 1t-39 4q-23 5 -54 18.5t-64 33t-66.5 45t-61.5 54.5q-16 16 -25 32.5t-9 30.5t20 14q4 0 14 -1t28.5 -2t47 -2t70.5 -1q49 0 91.5 2t95.5 8zM519 179q223 15 375.5 56t241.5 103q-8 15 -26.5 32.5t-43.5 32.5t-54 25t-56 10
q-46 0 -98.5 -18.5t-108 -52.5t-114 -82t-116.5 -106z" />
    <glyph glyph-name="zah" unicode="&#x638;" horiz-adv-x="1335" 
d="M409 179q38 42 89 92.5t104 101.5q2 17 2 33.5v33.5q0 115 -24.5 235.5t-56.5 250.5q-32 31 -42.5 68t-10.5 83q0 24 11 57.5t26 64.5t31.5 52.5t28.5 21.5q13 0 14 -19q2 -21 6.5 -40t16 -37.5t31.5 -37t53 -39.5q16 -9 16 -50q0 -16 -4.5 -35t-12 -39.5t-16.5 -39.5
t-18 -35q-1 -2 -2 -4.5t-1 -4.5q6 -35 12.5 -75t12.5 -83t9.5 -87t3.5 -86q0 -31 -2 -62.5t-8 -60.5q52 43 103 82t96 69t82.5 47.5t64.5 17.5q48 0 94.5 -19.5t82.5 -49t58 -64t22 -65.5q0 -27 -8.5 -63.5t-22.5 -75.5t-33.5 -76.5t-41.5 -67.5q-36 -48 -111 -89.5
t-177.5 -72t-227.5 -49t-262 -20.5q-17 0 -36 1t-39 4q-23 5 -54 18.5t-64 33t-66.5 45t-61.5 54.5q-16 16 -25 32.5t-9 30.5t20 14q4 0 14 -1t28.5 -2t47 -2t70.5 -1q49 0 91.5 2t95.5 8zM519 179q223 15 375.5 56t241.5 103q-8 15 -26.5 32.5t-43.5 32.5t-54 25t-56 10
q-46 0 -98.5 -18.5t-108 -52.5t-114 -82t-116.5 -106zM1020 1081q9 -14 25 -30t34 -31t36 -27t30 -16q4 -1 4 -6q0 -3 -5 -8q-6 -7 -22 -27t-33.5 -41t-32.5 -37t-19 -16q-12 0 -34 13.5t-43.5 31.5t-38 37t-16.5 30q0 4 4 9q10 15 26 36t32.5 40t30 32t17.5 13q3 0 5 -3z
" />
    <glyph glyph-name="ain" unicode="&#x639;" horiz-adv-x="989" 
d="M255 198q-45 19 -74.5 47.5t-47 60t-25 64t-7.5 59.5q0 45 12.5 92t33.5 90.5t48 81.5t56 66.5t58 45t54 16.5q57 0 112.5 -19t113.5 -61q28 -20 46 -41.5t18 -41.5q0 -11 -8.5 -19t-21.5 -8q-5 0 -17 5.5t-29 11.5t-36.5 11.5t-38.5 5.5q-36 0 -83.5 -9.5t-90 -25
t-72 -35.5t-29.5 -42q0 -15 16.5 -42.5t48.5 -54.5t78 -47t106 -20q20 0 29.5 2.5t18.5 6.5q31 13 78 34t93.5 41t85 34t52.5 14q19 0 19 -15q0 -9 -7 -30.5t-18 -47.5t-24.5 -52t-26.5 -44q-10 -14 -34 -26t-57.5 -25t-74.5 -28.5t-84 -36.5q-72 -35 -141.5 -87.5
t-124 -118.5t-88 -142.5t-33.5 -157.5q0 -88 32.5 -154.5t87 -114.5t126 -79.5t150.5 -50.5t159.5 -26.5t152.5 -7.5t134.5 4t113 9.5t86.5 9.5t56 4q29 0 29 -11q0 -16 -22 -39t-51 -44q-47 -33 -105 -64.5t-122.5 -55.5t-132.5 -39t-134 -15q-123 0 -219.5 22t-169 61.5
t-123 94.5t-82.5 120.5t-46 139.5t-14 152q0 90 12 169.5t37.5 149.5t65 133t95.5 120z" />
    <glyph glyph-name="ghain" unicode="&#x63a;" horiz-adv-x="987" 
d="M255 198q-45 19 -74.5 47.5t-47 60t-25 64t-7.5 59.5q0 45 12.5 92t33.5 90.5t48 81.5t56 66.5t58 45t54 16.5q57 0 112.5 -19t113.5 -61q28 -20 46 -41.5t18 -41.5q0 -11 -8.5 -19t-21.5 -8q-5 0 -17 5.5t-29 11.5t-36.5 11.5t-38.5 5.5q-36 0 -83.5 -9.5t-90 -25
t-72 -35.5t-29.5 -42q0 -15 16.5 -42.5t48.5 -54.5t78 -47t106 -20q20 0 29.5 2.5t18.5 6.5q31 13 78 34t93.5 41t85 34t52.5 14q19 0 19 -15q0 -9 -7 -30.5t-18 -47.5t-24.5 -52t-26.5 -44q-10 -14 -34 -26t-57.5 -25t-74.5 -28.5t-84 -36.5q-72 -35 -141.5 -87.5
t-124 -118.5t-88 -142.5t-33.5 -157.5q0 -88 32.5 -154.5t87 -114.5t126 -79.5t150.5 -50.5t159.5 -26.5t152.5 -7.5t134.5 4t113 9.5t86.5 9.5t56 4q29 0 29 -11q0 -16 -22 -39t-51 -44q-47 -33 -105 -64.5t-122.5 -55.5t-132.5 -39t-134 -15q-123 0 -219.5 22t-169 61.5
t-123 94.5t-82.5 120.5t-46 139.5t-14 152q0 90 12 169.5t37.5 149.5t65 133t95.5 120zM372 1232q9 -14 25 -30t34 -31t36 -27t30 -16q4 -1 4 -6q0 -3 -5 -8q-6 -7 -22 -27t-33.5 -41t-32.5 -37t-19 -16q-12 0 -34 13.5t-43.5 31.5t-38 37t-16.5 30q0 4 4 9q10 15 26 36
t32.5 40t30 32t17.5 13q3 0 5 -3z" />
    <glyph glyph-name="uni063B" unicode="&#x63b;" horiz-adv-x="1922" 
d="M1626 425q0 -70 -22 -136.5t-57 -118.5q-17 -26 -59 -52t-102.5 -50t-137 -45t-164 -36t-183.5 -24t-194 -9q-165 0 -284 20.5t-195.5 60.5t-112.5 100t-36 138q0 54 14 114t34 111t43.5 84.5t43.5 33.5q23 0 23 -25q0 -13 -7.5 -30t-16 -39t-16 -48.5t-7.5 -59.5
q0 -38 26.5 -76.5t90 -69.5t169 -50.5t263.5 -19.5q146 0 279.5 15.5t239 39.5t174.5 52.5t86 54.5q-5 17 -18 51.5t-37 76.5t-59.5 86.5t-85.5 83.5l-17.5 -5t-15.5 -3q-18 0 -37 14.5t-36 34.5t-31.5 42t-23.5 37q-6 11 -8 27.5t-2 36.5q0 31 5 67t13.5 70t19.5 63t22 46
q25 36 84.5 78t142.5 86t184 88.5t207.5 85.5t213.5 76t203 62q15 4 25 4q21 0 21 -20q0 -8 -6 -24t-11 -29q-11 -27 -23 -55.5t-22.5 -52.5t-19 -40t-12.5 -17q-17 -7 -57 -21.5t-95.5 -35t-122 -46t-136.5 -53.5t-139.5 -57t-131.5 -57.5t-111.5 -54.5t-79.5 -48
q82 -68 140 -145t94.5 -149.5t53.5 -135.5t17 -102zM1023 1342q-11 -14 -25 -31.5t-28 -33t-24.5 -26.5t-13.5 -11q-12 0 -34 13.5t-43.5 31.5t-38 37t-16.5 30q0 4 4 9q10 15 26 36t32.5 40t30 32t17.5 13q3 0 5 -3q7 -12 21 -26.5t29.5 -28t32 -25t29.5 -18.5
q11 16 26.5 35t30.5 35.5t26.5 27.5t15.5 11q3 0 5 -3q9 -14 25 -30t34 -31t36 -27t30 -16q4 -1 4 -6q0 -3 -5 -8q-6 -7 -22 -27t-33.5 -41t-32.5 -37t-19 -16q-10 0 -27.5 9.5t-36 24t-35.5 30.5t-26 30z" />
    <glyph glyph-name="uni063C" unicode="&#x63c;" horiz-adv-x="1922" 
d="M1626 425q0 -70 -22 -136.5t-57 -118.5q-17 -26 -59 -52t-102.5 -50t-137 -45t-164 -36t-183.5 -24t-194 -9q-165 0 -284 20.5t-195.5 60.5t-112.5 100t-36 138q0 54 14 114t34 111t43.5 84.5t43.5 33.5q23 0 23 -25q0 -13 -7.5 -30t-16 -39t-16 -48.5t-7.5 -59.5
q0 -38 26.5 -76.5t90 -69.5t169 -50.5t263.5 -19.5q146 0 279.5 15.5t239 39.5t174.5 52.5t86 54.5q-5 17 -18 51.5t-37 76.5t-59.5 86.5t-85.5 83.5l-17.5 -5t-15.5 -3q-18 0 -37 14.5t-36 34.5t-31.5 42t-23.5 37q-6 11 -8 27.5t-2 36.5q0 31 5 67t13.5 70t19.5 63t22 46
q25 36 84.5 78t142.5 86t184 88.5t207.5 85.5t213.5 76t203 62q15 4 25 4q21 0 21 -20q0 -8 -6 -24t-11 -29q-11 -27 -23 -55.5t-22.5 -52.5t-19 -40t-12.5 -17q-17 -7 -57 -21.5t-95.5 -35t-122 -46t-136.5 -53.5t-139.5 -57t-131.5 -57.5t-111.5 -54.5t-79.5 -48
q82 -68 140 -145t94.5 -149.5t53.5 -135.5t17 -102zM893 -289q-11 -14 -25 -31.5t-28 -33t-24.5 -26.5t-13.5 -11q-12 0 -34 13.5t-43.5 31.5t-38 37t-16.5 30q0 4 4 9q10 15 26 36t32.5 40t30 32t17.5 13q3 0 5 -3q7 -12 21 -26.5t29.5 -28t32 -25t29.5 -18.5
q11 16 26.5 35t30.5 35.5t26.5 27.5t15.5 11q3 0 5 -3q9 -14 25 -30t34 -31t36 -27t30 -16q4 -1 4 -6q0 -3 -5 -8q-6 -7 -22 -27t-33.5 -41t-32.5 -37t-19 -16q-10 0 -27.5 9.5t-36 24t-35.5 30.5t-26 30zM909 -411q9 -14 25 -30t34 -31t36 -27t30 -16q4 -1 4 -6q0 -3 -5 -8
q-6 -7 -22 -27t-33.5 -41t-32.5 -37t-19 -16q-12 0 -34 13.5t-43.5 31.5t-38 37t-16.5 30q0 4 4 9q10 15 26 36t32.5 40t30 32t17.5 13q3 0 5 -3z" />
    <glyph glyph-name="uni063D" unicode="&#x63d;" horiz-adv-x="1311" 
d="M1082 209q42 -17 61.5 -58t19.5 -95q0 -24 -3.5 -53.5t-11.5 -59t-22 -58t-35 -51.5q-60 -65 -138 -113.5t-160 -81.5t-161.5 -49.5t-142.5 -16.5q-117 0 -199.5 32t-135 89t-76.5 135.5t-24 171.5q0 70 16.5 137.5t38.5 122.5t43.5 93.5t31.5 52.5q11 14 25.5 26
t28.5 12q19 0 19 -23q0 -9 -4.5 -21t-12.5 -26q-13 -24 -27.5 -54t-26.5 -65t-19.5 -75t-7.5 -83q0 -62 26.5 -113.5t74.5 -88.5t114 -57.5t145 -20.5q65 0 129.5 12t123.5 30.5t110 41t89.5 44t62 39.5t28.5 28q0 17 -25 24.5t-64 11.5t-86.5 7t-92 10.5t-81 22.5t-53.5 43
q-19 25 -19 63q0 73 26 142.5t68.5 132t97 115t111.5 90.5t112.5 59.5t99.5 21.5q45 0 72.5 -27.5t27.5 -86.5q0 -19 -5.5 -47.5t-14 -55.5t-19 -46t-20.5 -19q-12 0 -19.5 7t-16 15.5t-20 15.5t-31.5 7q-30 0 -65 -10t-71 -26t-70.5 -37t-63 -42.5t-49.5 -42.5t-29 -38
q-13 -21 -13 -32q1 -19 23 -31t54.5 -19.5t71.5 -11.5t75.5 -6.5t66 -5.5t42.5 -8zM688.987 764.015q6 -5 7.5 -7.5t1.5 -10.499q0 -11 -4 -30.498q-4 -19.499 -9.49902 -37.998q-5.5 -18.499 -11.5 -32.498q-5.99902 -13.999 -9.99902 -13.999q-3 0 -6 4
q-30.998 26.998 -58.4961 56.9961t-49.9971 57.9971q-22.499 27.998 -38.998 50.9961q-16.498 22.999 -26.498 37.998q-8.99902 -18.999 -28.498 -48.4971t-42.4971 -60.9961q-22.999 -31.498 -46.498 -58.9971q-23.498 -27.498 -41.4971 -41.4971q-2 -2 -4 -2
q-3.99902 0 -7.99902 11.499q-4 11.5 -7.5 26.999q-3.49902 15.499 -6.49902 30.998t-4 23.498q0 8 3 11q73.9951 83.9941 117.492 151.99q43.498 67.9961 57.4971 101.994q5.99902 12.999 13.999 12.999q5 0 7.99902 -4.5q3 -4.49902 5 -10.499q5 -10.999 13.999 -26.498
q9 -15.499 31.998 -43.498q24.999 -28.998 58.9971 -66.9951q33.9971 -37.998 84.9941 -81.9951z" />
    <glyph glyph-name="uni063E" unicode="&#x63e;" horiz-adv-x="1311" 
d="M1082 209q42 -17 61.5 -58t19.5 -95q0 -24 -3.5 -53.5t-11.5 -59t-22 -58t-35 -51.5q-60 -65 -138 -113.5t-160 -81.5t-161.5 -49.5t-142.5 -16.5q-117 0 -199.5 32t-135 89t-76.5 135.5t-24 171.5q0 70 16.5 137.5t38.5 122.5t43.5 93.5t31.5 52.5q11 14 25.5 26
t28.5 12q19 0 19 -23q0 -9 -4.5 -21t-12.5 -26q-13 -24 -27.5 -54t-26.5 -65t-19.5 -75t-7.5 -83q0 -62 26.5 -113.5t74.5 -88.5t114 -57.5t145 -20.5q65 0 129.5 12t123.5 30.5t110 41t89.5 44t62 39.5t28.5 28q0 17 -25 24.5t-64 11.5t-86.5 7t-92 10.5t-81 22.5t-53.5 43
q-19 25 -19 63q0 73 26 142.5t68.5 132t97 115t111.5 90.5t112.5 59.5t99.5 21.5q45 0 72.5 -27.5t27.5 -86.5q0 -19 -5.5 -47.5t-14 -55.5t-19 -46t-20.5 -19q-12 0 -19.5 7t-16 15.5t-20 15.5t-31.5 7q-30 0 -65 -10t-71 -26t-70.5 -37t-63 -42.5t-49.5 -42.5t-29 -38
q-13 -21 -13 -32q1 -19 23 -31t54.5 -19.5t71.5 -11.5t75.5 -6.5t66 -5.5t42.5 -8zM513 652q-11 -14 -25 -31.5t-28 -33t-24.5 -26.5t-13.5 -11q-12 0 -34 13.5t-43.5 31.5t-38 37t-16.5 30q0 4 4 9q10 15 26 36t32.5 40t30 32t17.5 13q3 0 5 -3q7 -12 21 -26.5t29.5 -28
t32 -25t29.5 -18.5q11 16 26.5 35t30.5 35.5t26.5 27.5t15.5 11q3 0 5 -3q9 -14 25 -30t34 -31t36 -27t30 -16q4 -1 4 -6q0 -3 -5 -8q-6 -7 -22 -27t-33.5 -41t-32.5 -37t-19 -16q-10 0 -27.5 9.5t-36 24t-35.5 30.5t-26 30z" />
    <glyph glyph-name="uni063F" unicode="&#x63f;" horiz-adv-x="1311" 
d="M1082 209q42 -17 61.5 -58t19.5 -95q0 -24 -3.5 -53.5t-11.5 -59t-22 -58t-35 -51.5q-60 -65 -138 -113.5t-160 -81.5t-161.5 -49.5t-142.5 -16.5q-117 0 -199.5 32t-135 89t-76.5 135.5t-24 171.5q0 70 16.5 137.5t38.5 122.5t43.5 93.5t31.5 52.5q11 14 25.5 26
t28.5 12q19 0 19 -23q0 -9 -4.5 -21t-12.5 -26q-13 -24 -27.5 -54t-26.5 -65t-19.5 -75t-7.5 -83q0 -62 26.5 -113.5t74.5 -88.5t114 -57.5t145 -20.5q65 0 129.5 12t123.5 30.5t110 41t89.5 44t62 39.5t28.5 28q0 17 -25 24.5t-64 11.5t-86.5 7t-92 10.5t-81 22.5t-53.5 43
q-19 25 -19 63q0 73 26 142.5t68.5 132t97 115t111.5 90.5t112.5 59.5t99.5 21.5q45 0 72.5 -27.5t27.5 -86.5q0 -19 -5.5 -47.5t-14 -55.5t-19 -46t-20.5 -19q-12 0 -19.5 7t-16 15.5t-20 15.5t-31.5 7q-30 0 -65 -10t-71 -26t-70.5 -37t-63 -42.5t-49.5 -42.5t-29 -38
q-13 -21 -13 -32q1 -19 23 -31t54.5 -19.5t71.5 -11.5t75.5 -6.5t66 -5.5t42.5 -8zM513 652q-11 -14 -25 -31.5t-28 -33t-24.5 -26.5t-13.5 -11q-12 0 -34 13.5t-43.5 31.5t-38 37t-16.5 30q0 4 4 9q10 15 26 36t32.5 40t30 32t17.5 13q3 0 5 -3q7 -12 21 -26.5t29.5 -28
t32 -25t29.5 -18.5q11 16 26.5 35t30.5 35.5t26.5 27.5t15.5 11q3 0 5 -3q9 -14 25 -30t34 -31t36 -27t30 -16q4 -1 4 -6q0 -3 -5 -8q-6 -7 -22 -27t-33.5 -41t-32.5 -37t-19 -16q-10 0 -27.5 9.5t-36 24t-35.5 30.5t-26 30zM501 1088q9 -14 25 -30t34 -31t36 -27t30 -16
q4 -1 4 -6q0 -3 -5 -8q-6 -7 -22 -27t-33.5 -41t-32.5 -37t-19 -16q-12 0 -34 13.5t-43.5 31.5t-38 37t-16.5 30q0 4 4 9q10 15 26 36t32.5 40t30 32t17.5 13q3 0 5 -3z" />
    <glyph glyph-name="tt" unicode="&#x640;" horiz-adv-x="209" 
d="M193 200q12 0 21 -11.5t15 -29.5t8.5 -40t2.5 -42q0 -22 -2.5 -42t-8.5 -35.5t-14.5 -25t-20.5 -9.5h-200q-14 0 -24 9.5t-17 25t-10 35.5t-3 42q0 20 3 42t10 40t17 29.5t24 11.5h199z" />
    <glyph glyph-name="uni.feh" unicode="&#x641;" horiz-adv-x="1582" 
d="M998 1208q9 -14 25 -30t34 -31t36 -27t30 -16q4 -1 4 -6q0 -3 -5 -8q-6 -7 -22 -27t-33.5 -41t-32.5 -37t-19 -16q-12 0 -34 13.5t-43.5 31.5t-38 37t-16.5 30q0 4 4 9q10 15 26 36t32.5 40t30 32t17.5 13q3 0 5 -3zM1411 483q-8 -12 -23 -28.5t-37 -30.5t-50.5 -24
t-61.5 -10q-48 0 -79.5 15.5t-50 38.5t-26 50t-7.5 51q0 45 10.5 90.5t28 88t40 80t46.5 65t47.5 43.5t42.5 16q47 0 89 -44.5t74 -113.5t51 -152t19 -161q0 -60 -14 -121t-35 -106q-22 -46 -84.5 -94.5t-164 -89t-241.5 -66.5t-315 -26q-162 0 -277.5 22.5t-189 65
t-108 103t-34.5 135.5q0 49 14.5 106.5t34.5 106t42.5 81t38.5 32.5q14 0 19.5 -7.5t5.5 -17.5q0 -12 -6.5 -28.5t-14.5 -37t-14.5 -45.5t-6.5 -54q0 -38 27.5 -76.5t89.5 -70t162.5 -51.5t246.5 -20q72 0 150.5 5.5t155.5 17t148.5 28.5t129.5 39.5t99 50.5t57 62
q-2 14 -7.5 35t-21.5 47zM1348 637q-10 23 -23.5 41t-28 30.5t-28.5 19t-25 6.5q-15 0 -29.5 -10.5t-26 -25t-18 -30t-6.5 -25.5q0 -13 6 -25.5t19 -22t34 -15.5t52 -6q27 0 46.5 21t27.5 42z" />
    <glyph glyph-name="uni.qaf" unicode="&#x642;" horiz-adv-x="1114" 
d="M757 1008q-11 -14 -25 -31.5t-28 -33t-24.5 -26.5t-13.5 -11q-12 0 -34 13.5t-43.5 31.5t-38 37t-16.5 30q0 4 4 9q10 15 26 36t32.5 40t30 32t17.5 13q3 0 5 -3q7 -12 21 -26.5t29.5 -28t32 -25t29.5 -18.5q11 16 26.5 35t30.5 35.5t26.5 27.5t15.5 11q3 0 5 -3
q9 -14 25 -30t34 -31t36 -27t30 -16q4 -1 4 -6q0 -3 -5 -8q-6 -7 -22 -27t-33.5 -41t-32.5 -37t-19 -16q-10 0 -27.5 9.5t-36 24t-35.5 30.5t-26 30zM925 306q-7 -12 -21 -28.5t-34 -30.5t-47 -24t-61 -10q-48 0 -79.5 15t-50 38.5t-25.5 50.5t-7 51q0 67 22 135t54 123
t68 89.5t65 34.5q34 0 65 -22.5t57.5 -61t48 -89.5t36.5 -107.5t23 -115.5t8 -113q0 -12 -2.5 -44t-9 -73t-19.5 -84.5t-34 -78.5q-22 -37 -70 -85.5t-119 -91.5t-163 -72.5t-202 -29.5q-96 0 -164.5 28t-112 79t-64 121.5t-20.5 155.5q0 41 8.5 88.5t23 94.5t32 90.5t36 77
t35 53.5t28.5 20q22 0 22 -29q0 -19 -12.5 -47.5t-27 -65t-27 -80t-12.5 -93.5t20 -94.5t56 -77.5t86.5 -52.5t112.5 -19.5q77 0 157.5 17.5t151 49t124 74.5t76.5 93q0 18 -3 41q-2 17 -10 47t-19 53zM875 464q-22 47 -55 72.5t-56 25.5q-17 0 -31.5 -10.5t-25 -25.5
t-17 -30.5t-6.5 -25.5q0 -27 27.5 -48.5t84.5 -21.5q29 0 49.5 21t29.5 43z" />
    <glyph glyph-name="ar.kaf" unicode="&#x643;" horiz-adv-x="1128" 
d="M1005 908q7 -63 14.5 -135.5t13.5 -145t10 -142t4 -126.5q0 -43 -2 -79t-6 -63q-4 -32 -15 -65t-25 -61t-30 -48t-30 -25q-40 -14 -100 -25t-130.5 -18.5t-147 -11.5t-149.5 -4q-226 0 -276 41q-24 20 -43 58t-19 102q0 41 7.5 67.5t24.5 26.5q10 0 19 -4t24 -10.5
t38.5 -13.5t62 -13.5t95.5 -10.5t138 -4t154 5t134.5 13.5t109 19.5t79.5 23q-3 85 -13.5 169.5t-22.5 168t-24.5 164t-19.5 156.5q-1 9 -9 18q-20 20 -29.5 55t-9.5 70q0 18 1.5 35t5.5 31q7 23 19.5 50t26.5 50.5t26.5 39.5t20.5 16t11.5 -5t4.5 -13q1 -21 5 -40
t14.5 -37.5t29 -37.5t48.5 -38q17 -12 17 -45q0 -32 -15.5 -71t-33.5 -69q-2 -4 -4.5 -8.5t-3.5 -9.5zM605 517q-16 10 -40.5 13.5t-48 12.5t-40 28.5t-16.5 61.5q0 37 23.5 85t57.5 91.5t72.5 73.5t68.5 30q23 0 23 -21q0 -11 -5 -27.5t-11.5 -34t-13.5 -32.5t-11 -24
q-5 -8 -11.5 -11.5t-15 -5.5t-18.5 -3t-20 -5q-5 -2 -12 -5.5t-13.5 -8t-11.5 -9t-5 -7.5q0 -19 12 -27t30 -12.5t39 -7.5t39 -10.5t30 -22.5t12 -43q0 -10 -6.5 -31.5t-19.5 -47.5t-31.5 -54t-42 -51t-52 -37.5t-60.5 -14.5q-11 0 -39.5 1t-58.5 4t-53 9t-23 15
q0 8 20 17.5t50 20t64.5 21t65 22t51 23.5t21.5 24z" />
    <glyph glyph-name="lam" unicode="&#x644;" horiz-adv-x="1065" 
d="M928 898q7 -83 17.5 -170.5t20.5 -176t16.5 -176.5t6.5 -171q0 -47 -4 -108t-15 -123t-30.5 -119t-51.5 -95q-15 -18 -46.5 -49t-83.5 -60.5t-125 -51t-170 -21.5q-88 0 -151 20.5t-105 53.5t-67 73.5t-38 80t-16.5 73.5t-3.5 54q0 45 8 93t21 94.5t29 88.5t33 73.5
t32.5 50t27.5 18.5q7 0 12 -5.5t5 -17.5q0 -14 -9.5 -35.5t-21 -51.5t-21 -70.5t-9.5 -91.5q0 -66 22.5 -114.5t64 -79.5t99 -46t127.5 -15q60 0 123.5 14t118 37.5t93 55t48.5 66.5q3 12 4 41t1 61q0 38 -6.5 107.5t-17 153.5t-22.5 174t-23.5 170t-20.5 141.5t-12 87.5
q-2 10 -9 17q-20 20 -29 53t-9 67q0 18 2.5 36t7.5 35q7 28 19.5 55.5t26 48.5t26 34t20.5 13t10.5 -6t3.5 -14q3 -42 26 -80t84 -77q16 -11 16 -45q0 -17 -4.5 -37t-11.5 -40.5t-15.5 -40t-16.5 -35.5q-2 -4 -4.5 -8.5t-2.5 -9.5z" />
    <glyph glyph-name="meem" unicode="&#x645;" horiz-adv-x="757" 
d="M687 440q2 -5 3 -11t1 -11q0 -26 -9 -63.5t-23 -72t-30 -59t-29 -24.5q-19 0 -37.5 2t-41.5 2q-38 0 -92.5 -7t-107.5 -23t-95.5 -42.5t-55.5 -66.5q0 -24 9.5 -69.5t23.5 -103.5t31 -124.5t31 -133t23.5 -128.5t9.5 -110q0 -124 -15.5 -182.5t-34.5 -58.5
q-14 0 -19.5 27.5t-6.5 66.5q-1 54 -13 118t-29 134t-36.5 144t-36 147t-27.5 143.5t-11 134.5q0 61 11 107.5t30.5 82t46 62t56.5 47.5q0 22 7.5 56t20.5 72t30.5 76.5t38.5 69t43.5 49.5t46.5 19q51 0 95 -25.5t80 -64.5t64 -87t48 -93zM559 429q-7 12 -22 33.5t-36 42.5
t-47.5 37t-57.5 16q-23 0 -41 -16t-31.5 -40t-22.5 -51.5t-13 -51.5q73 22 139 26t132 4z" />
    <glyph glyph-name="uni.noon" unicode="&#x646;" horiz-adv-x="1061" 
d="M895 286q0 54 -11.5 96.5t-27 75.5t-31.5 58.5t-24 45.5q-4 9 -6.5 26.5t-2.5 37.5q0 17 1.5 33t3.5 30q1 5 5 26.5t10.5 45t15.5 42.5t20 19q10 0 28 -26q19 -27 39 -72.5t36.5 -101.5t27 -119t10.5 -126q0 -92 -15.5 -176t-53.5 -143q-33 -50 -83.5 -97t-115 -83
t-139 -58t-155.5 -22q-174 0 -268.5 94.5t-94.5 277.5q0 85 21 163.5t49.5 139.5t58.5 97.5t49 36.5q18 0 18 -22q0 -20 -14.5 -46.5t-31.5 -61t-31.5 -78t-14.5 -97.5q0 -57 21 -104.5t59 -82t91 -54t118 -19.5q49 0 101 11t100.5 29.5t91.5 43t75.5 51.5t51 55t18.5 54z
M522 1123q9 -14 25 -30t34 -31t36 -27t30 -16q4 -1 4 -6q0 -3 -5 -8q-6 -7 -22 -27t-33.5 -41t-32.5 -37t-19 -16q-12 0 -34 13.5t-43.5 31.5t-38 37t-16.5 30q0 4 4 9q10 15 26 36t32.5 40t30 32t17.5 13q3 0 5 -3z" />
    <glyph glyph-name="heh" unicode="&#x647;" horiz-adv-x="571" 
d="M504 274q0 -57 -18 -119.5t-48 -107.5q-13 -19 -33 -36t-45.5 -30.5t-56.5 -21.5t-65 -8q-44 0 -77.5 17t-56 46t-33.5 66.5t-11 78.5q0 35 11.5 79.5t30.5 90.5t42.5 90t48.5 78t48 55t40 21q26 0 64 -17t73.5 -53t60.5 -93t25 -136zM415 224q-7 22 -25 47t-43 45
t-53.5 33.5t-55.5 13.5q-20 -9 -37 -26t-29 -36t-19 -38t-7 -34q0 -11 8.5 -24t23 -24.5t34 -19.5t41.5 -8q28 0 57 6t52 16t37.5 22.5t15.5 26.5z" />
    <glyph glyph-name="waw" unicode="&#x648;" horiz-adv-x="878" 
d="M728 -51q-2 23 -5 37.5t-13 31.5q-19 -33 -62.5 -58.5t-104.5 -25.5q-45 0 -75.5 14.5t-48.5 37t-26 50t-8 54.5q0 66 20 132t49.5 119.5t63.5 87t62 33.5q34 0 65 -22t57 -59t46.5 -86t35.5 -103t22.5 -109.5t7.5 -106.5q0 -98 -26.5 -185.5t-72.5 -161t-108 -130.5
t-132 -94q-21 -11 -47.5 -16t-57.5 -5q-52 0 -109.5 11t-106 27t-80 33.5t-31.5 31.5q0 11 11 15t27 4q47 0 91 3.5t86 13.5t83.5 27t84.5 44q51 32 104 77.5t96.5 95t71.5 98t30 84.5zM653 182q-8 17 -21.5 35.5t-30 34.5t-35.5 26t-39 10q-11 -6 -21.5 -19t-19 -27
t-14 -26.5t-5.5 -19.5q0 -30 21 -53.5t64 -23.5q21 0 37.5 6t29 15.5t21 20.5t13.5 21z" />
    <glyph glyph-name="alefmaksura" unicode="&#x649;" horiz-adv-x="1311" 
d="M1082 209q42 -17 61.5 -58t19.5 -95q0 -24 -3.5 -53.5t-11.5 -59t-22 -58t-35 -51.5q-60 -65 -138 -113.5t-160 -81.5t-161.5 -49.5t-142.5 -16.5q-117 0 -199.5 32t-135 89t-76.5 135.5t-24 171.5q0 70 16.5 137.5t38.5 122.5t43.5 93.5t31.5 52.5q11 14 25.5 26
t28.5 12q19 0 19 -23q0 -9 -4.5 -21t-12.5 -26q-13 -24 -27.5 -54t-26.5 -65t-19.5 -75t-7.5 -83q0 -62 26.5 -113.5t74.5 -88.5t114 -57.5t145 -20.5q65 0 129.5 12t123.5 30.5t110 41t89.5 44t62 39.5t28.5 28q0 17 -25 24.5t-64 11.5t-86.5 7t-92 10.5t-81 22.5t-53.5 43
q-19 25 -19 63q0 73 26 142.5t68.5 132t97 115t111.5 90.5t112.5 59.5t99.5 21.5q45 0 72.5 -27.5t27.5 -86.5q0 -19 -5.5 -47.5t-14 -55.5t-19 -46t-20.5 -19q-12 0 -19.5 7t-16 15.5t-20 15.5t-31.5 7q-30 0 -65 -10t-71 -26t-70.5 -37t-63 -42.5t-49.5 -42.5t-29 -38
q-13 -21 -13 -32q1 -19 23 -31t54.5 -19.5t71.5 -11.5t75.5 -6.5t66 -5.5t42.5 -8z" />
    <glyph glyph-name="yeh" unicode="&#x64a;" horiz-adv-x="1311" 
d="M1082 209q42 -17 61.5 -58t19.5 -95q0 -24 -3.5 -53.5t-11.5 -59t-22 -58t-35 -51.5q-60 -65 -138 -113.5t-160 -81.5t-161.5 -49.5t-142.5 -16.5q-117 0 -199.5 32t-135 89t-76.5 135.5t-24 171.5q0 70 16.5 137.5t38.5 122.5t43.5 93.5t31.5 52.5q11 14 25.5 26
t28.5 12q19 0 19 -23q0 -9 -4.5 -21t-12.5 -26q-13 -24 -27.5 -54t-26.5 -65t-19.5 -75t-7.5 -83q0 -62 26.5 -113.5t74.5 -88.5t114 -57.5t145 -20.5q65 0 129.5 12t123.5 30.5t110 41t89.5 44t62 39.5t28.5 28q0 17 -25 24.5t-64 11.5t-86.5 7t-92 10.5t-81 22.5t-53.5 43
q-19 25 -19 63q0 73 26 142.5t68.5 132t97 115t111.5 90.5t112.5 59.5t99.5 21.5q45 0 72.5 -27.5t27.5 -86.5q0 -19 -5.5 -47.5t-14 -55.5t-19 -46t-20.5 -19q-12 0 -19.5 7t-16 15.5t-20 15.5t-31.5 7q-30 0 -65 -10t-71 -26t-70.5 -37t-63 -42.5t-49.5 -42.5t-29 -38
q-13 -21 -13 -32q1 -19 23 -31t54.5 -19.5t71.5 -11.5t75.5 -6.5t66 -5.5t42.5 -8zM523 -675q-11 -14 -25 -31.5t-28 -33t-24.5 -26.5t-13.5 -11q-12 0 -34 13.5t-43.5 31.5t-38 37t-16.5 30q0 4 4 9q10 15 26 36t32.5 40t30 32t17.5 13q3 0 5 -3q7 -12 21 -26.5t29.5 -28
t32 -25t29.5 -18.5q11 16 26.5 35t30.5 35.5t26.5 27.5t15.5 11q3 0 5 -3q9 -14 25 -30t34 -31t36 -27t30 -16q4 -1 4 -6q0 -3 -5 -8q-6 -7 -22 -27t-33.5 -41t-32.5 -37t-19 -16q-10 0 -27.5 9.5t-36 24t-35.5 30.5t-26 30z" />
    <glyph glyph-name="fathatan" unicode="&#x64b;" 
d="M188 227q0 -3 -3.5 -16t-8.5 -28t-12 -28t-14 -16q-30 -13 -75.5 -33.5t-94 -42.5t-92.5 -43t-70 -36q-9 -5 -16 -5t-7 10q0 7 2.5 18t7 23.5t11.5 23.5t16 18q27 20 70 42.5t90.5 45t93 42t78.5 33.5q2 1 6.5 2t7.5 1q10 0 10 -11zM188 409q0 -3 -3.5 -16t-8.5 -28
t-12 -28t-14 -16q-30 -13 -75.5 -33.5t-94 -42.5t-92.5 -43t-70 -36q-9 -5 -16 -5t-7 10q0 7 2.5 18t7 23.5t11.5 23.5t16 18q27 20 70 42.5t90.5 45t93 42t78.5 33.5q2 1 6.5 2t7.5 1q10 0 10 -11z" />
    </font>
</defs>
</svg>
